{"glyphs":{"0":{"ha":760,"x_min":58,"x_max":701,"o":"m 379 751 q 269 678 313 751 q 226 446 226 606 q 265 214 226 297 q 383 131 304 131 q 499 210 463 131 q 535 443 535 290 q 496 677 535 603 q 379 751 457 751 m 383 -14 q 236 22 297 -14 q 135 119 175 57 q 77 263 96 181 q 58 442 58 346 q 80 622 58 539 q 142 765 101 704 q 244 859 183 825 q 382 893 304 893 q 540 852 478 893 q 638 747 601 811 q 688 601 674 682 q 701 442 701 521 q 685 272 701 354 q 630 126 668 190 q 531 24 592 63 q 383 -14 471 -14 z "},"1":{"ha":471,"x_min":21,"x_max":346,"o":"m 189 0 q 178 10 178 0 l 178 708 q 104 678 147 692 q 32 658 61 664 q 21 667 21 657 l 21 785 q 29 796 21 794 q 130 831 78 808 q 222 879 182 853 q 243 885 229 885 l 339 885 q 346 875 346 885 l 346 10 q 338 0 346 0 l 189 0 z "},"2":{"ha":688,"x_min":33,"x_max":651,"o":"m 43 0 q 35 3 36 0 q 33 11 33 6 l 33 104 q 39 121 33 117 q 147 205 83 156 q 269 310 211 254 q 354 397 322 357 q 404 471 386 438 q 428 533 422 504 q 433 589 433 563 q 395 699 433 657 q 269 742 357 742 q 157 725 204 742 q 65 685 110 708 q 54 690 54 678 l 54 818 q 61 833 54 828 q 174 877 114 861 q 306 893 235 893 q 438 870 382 893 q 531 808 494 847 q 586 718 568 769 q 604 611 604 667 q 570 454 604 533 q 447 290 536 375 q 352 202 393 236 q 275 140 311 168 q 360 144 314 143 q 479 144 406 144 l 639 144 q 650 135 651 144 l 621 10 q 607 0 617 0 l 43 0 z "},"3":{"ha":697,"x_min":51,"x_max":638,"o":"m 204 385 q 194 394 194 385 l 194 521 q 203 533 194 533 l 272 533 q 390 558 349 533 q 432 636 432 583 q 393 715 432 685 q 275 744 354 744 q 172 732 221 744 q 75 692 124 719 q 65 697 65 689 l 65 825 q 65 833 65 831 q 72 839 65 836 q 178 878 118 864 q 307 893 238 893 q 519 828 442 893 q 596 658 596 764 q 584 591 596 621 q 554 538 572 561 q 514 499 536 515 q 469 474 492 483 q 526 449 496 465 q 581 408 556 433 q 622 344 606 382 q 638 257 638 307 q 610 141 638 192 q 535 56 582 90 q 424 3 488 21 q 290 -14 361 -14 q 165 -3 222 -14 q 60 32 107 7 q 53 40 54 35 q 51 50 51 44 l 51 188 q 56 194 51 192 q 64 193 60 196 q 174 149 122 163 q 285 135 226 135 q 424 172 382 135 q 465 261 465 208 q 285 385 465 385 l 204 385 z "},"4":{"ha":738,"x_min":36,"x_max":717,"o":"m 47 210 q 36 218 36 210 l 36 326 q 43 346 36 338 l 396 871 q 415 879 403 879 l 589 879 q 600 869 600 879 l 600 346 l 706 346 q 714 336 717 346 l 696 217 q 685 210 693 210 l 600 210 l 600 11 q 590 0 600 0 l 451 0 q 440 11 440 0 l 440 210 l 47 210 m 440 469 q 443 626 440 561 q 449 726 446 690 l 447 726 q 421 678 439 708 q 379 610 403 647 q 330 533 356 574 q 281 457 304 493 q 238 391 257 421 q 208 346 218 361 l 440 346 l 440 469 z "},"5":{"ha":697,"x_min":64,"x_max":635,"o":"m 271 732 q 262 697 267 717 q 251 655 257 676 q 241 613 246 633 q 233 581 236 593 q 417 544 340 569 q 542 480 493 518 q 613 390 590 442 q 635 275 635 339 q 610 157 635 210 q 542 66 586 104 q 434 7 497 28 q 294 -14 371 -14 q 72 29 161 -14 q 64 46 64 33 l 64 182 q 67 189 64 188 q 74 188 71 190 q 175 149 119 164 q 293 133 231 133 q 373 144 340 133 q 426 172 406 154 q 456 214 447 190 q 465 264 465 238 q 377 390 465 347 q 85 450 289 433 q 72 460 72 450 l 72 528 q 81 565 74 536 q 99 631 89 593 q 122 710 110 668 q 143 786 133 751 q 159 844 153 821 q 167 869 165 868 q 179 879 169 879 l 600 879 q 607 868 611 879 l 571 742 q 558 732 569 732 l 271 732 z "},"6":{"ha":761,"x_min":58,"x_max":708,"o":"m 376 433 q 293 421 331 433 q 228 389 256 408 q 226 367 226 382 q 225 342 225 353 q 270 187 225 242 q 392 132 315 132 q 499 173 461 132 q 538 281 538 214 q 494 392 538 351 q 376 433 451 433 m 626 757 q 619 749 626 750 q 503 722 558 740 q 401 676 447 704 q 317 610 354 649 q 260 524 281 571 q 332 555 290 542 q 428 568 374 568 q 537 549 486 568 q 626 494 588 531 q 686 406 664 458 q 708 288 708 354 q 688 176 708 231 q 627 80 668 122 q 526 12 586 38 q 386 -14 465 -14 q 246 14 307 -14 q 143 91 185 42 q 80 206 101 140 q 58 346 58 271 q 103 552 58 458 q 223 717 147 646 q 401 833 299 788 q 621 893 504 878 q 626 885 626 893 l 626 757 z "},"7":{"ha":642,"x_min":7,"x_max":621,"o":"m 613 879 q 621 871 621 879 l 621 775 q 617 757 621 767 q 572 655 597 713 q 516 531 546 597 q 453 394 486 465 q 389 256 421 324 q 327 124 357 188 q 272 8 297 60 q 260 0 268 0 l 100 0 q 94 10 90 0 q 328 488 243 311 q 446 731 414 665 l 15 731 q 8 740 7 731 l 29 871 q 39 879 31 879 l 613 879 z "},"8":{"ha":733,"x_min":53,"x_max":681,"o":"m 367 754 q 273 719 304 754 q 242 636 242 685 q 251 582 242 606 q 281 539 261 558 q 313 528 292 528 l 425 528 q 456 542 443 528 q 481 579 471 557 q 490 632 490 601 q 458 721 490 688 q 367 754 425 754 m 368 128 q 478 167 443 128 q 513 260 513 206 q 498 329 514 300 q 460 375 482 358 q 445 383 451 381 q 428 385 439 385 l 307 385 q 292 384 297 385 q 279 376 288 383 q 237 331 253 360 q 221 263 221 303 q 261 165 221 201 q 368 128 301 128 m 369 893 q 493 872 440 893 q 581 815 546 850 q 632 737 615 781 q 649 649 649 693 q 640 585 649 614 q 617 533 631 557 q 586 492 603 510 q 554 463 569 475 q 599 428 576 449 q 640 383 622 408 q 669 324 658 357 q 681 249 681 290 q 657 142 681 190 q 590 58 633 93 q 489 5 547 24 q 360 -14 431 -14 q 228 7 286 -14 q 132 63 171 28 q 73 147 93 99 q 53 247 53 194 q 88 369 53 318 q 176 454 122 421 q 110 532 139 485 q 82 649 82 579 q 101 740 82 696 q 156 819 119 785 q 245 873 192 853 q 369 893 299 893 z "},"9":{"ha":754,"x_min":51,"x_max":693,"o":"m 149 122 q 158 132 149 129 q 367 213 283 156 q 489 342 450 269 q 416 318 453 325 q 343 311 379 311 q 231 330 283 311 q 138 385 178 349 q 75 472 99 421 q 51 590 51 524 q 74 706 51 651 q 139 803 97 761 q 240 869 181 844 q 374 893 300 893 q 501 868 443 893 q 603 796 560 843 q 669 681 646 749 q 693 529 693 614 q 651 320 693 414 q 538 156 610 226 q 368 42 465 86 q 161 -14 271 -1 q 150 -4 150 -15 l 149 122 m 389 446 q 463 454 431 446 q 522 479 494 463 q 524 501 522 486 q 525 529 525 517 q 483 692 525 632 q 365 751 442 751 q 260 706 297 751 q 222 597 222 661 q 269 482 222 518 q 389 446 317 446 z "},"\u0000":{"ha":0,"x_min":0,"x_max":0,"o":""},"\r":{"ha":318,"x_min":0,"x_max":0,"o":""}," ":{"ha":318,"x_min":0,"x_max":0,"o":""},"!":{"ha":407,"x_min":142,"x_max":342,"o":"m 242 928 q 289 924 263 928 q 326 915 315 921 q 335 900 335 910 l 335 800 q 333 726 335 771 q 328 631 331 682 q 323 528 326 581 q 316 433 319 476 q 310 356 313 389 q 307 314 308 324 q 297 306 307 306 l 186 306 q 176 314 178 306 q 173 355 175 324 q 168 430 171 386 q 163 526 165 474 q 157 628 160 578 q 153 722 154 678 q 151 796 151 767 l 151 896 q 152 904 151 900 q 158 911 153 908 q 199 923 172 918 q 242 928 226 928 m 242 -11 q 169 14 197 -11 q 142 82 142 39 q 169 151 142 124 q 242 178 197 178 q 314 151 286 178 q 342 82 342 125 q 314 13 342 38 q 242 -11 286 -11 z "},"\"":{"ha":503,"x_min":53,"x_max":453,"o":"m 53 978 q 65 989 53 989 l 200 989 q 210 978 213 989 l 186 633 q 176 624 185 624 l 68 624 q 54 635 54 624 l 53 978 m 294 975 q 306 989 293 989 l 440 989 q 450 975 453 989 l 428 633 q 415 624 426 624 l 308 624 q 296 635 296 624 l 294 975 z "},"#":{"ha":726,"x_min":42,"x_max":692,"o":"m 115 56 q 107 64 106 56 l 157 278 l 50 278 q 42 288 42 278 l 42 388 q 50 396 42 396 l 182 396 l 214 535 l 117 535 q 110 540 110 535 l 110 646 q 117 651 110 651 l 240 651 l 283 843 q 294 851 285 851 l 382 851 q 389 842 390 851 l 346 651 l 472 651 l 515 844 q 522 851 517 851 l 613 851 q 619 843 621 851 l 575 651 l 681 651 q 692 643 692 651 l 692 542 q 683 535 692 535 l 550 535 l 519 396 l 613 396 q 621 388 621 396 l 621 285 q 613 278 621 278 l 496 278 l 447 65 q 444 58 444 60 q 438 56 443 56 l 350 56 q 342 65 338 56 l 389 278 l 263 278 l 213 63 q 204 56 210 56 l 115 56 m 288 396 l 414 396 l 446 535 l 318 535 l 288 396 z "},"$":{"ha":699,"x_min":58,"x_max":638,"o":"m 414 -108 q 407 -117 414 -117 l 289 -117 q 281 -107 281 -117 l 281 3 q 165 19 221 6 q 68 54 108 32 q 58 76 58 60 l 58 219 q 63 228 58 225 q 71 226 67 231 q 201 164 131 181 q 325 147 271 147 q 433 170 393 147 q 474 233 474 193 q 466 269 474 253 q 440 301 458 285 q 390 333 421 317 q 310 369 358 350 q 190 426 238 397 q 113 485 142 454 q 72 553 83 517 q 60 636 60 590 q 118 790 60 724 q 283 874 176 856 l 283 983 q 292 992 283 992 l 408 992 q 417 983 417 992 l 421 876 q 517 863 469 874 q 593 832 565 851 q 599 817 599 828 l 599 681 q 588 674 599 668 q 491 723 546 706 q 357 740 436 740 q 250 715 286 740 q 214 653 214 689 q 220 620 214 635 q 245 590 226 606 q 298 556 264 574 q 388 517 332 539 q 514 455 465 486 q 590 390 563 424 q 628 321 618 357 q 638 244 638 285 q 616 146 638 188 q 562 76 594 104 q 490 33 529 49 q 414 11 450 17 l 414 -108 z "},"%":{"ha":1174,"x_min":51,"x_max":1122,"o":"m 346 8 q 338 1 342 1 q 326 0 335 0 l 221 0 q 215 3 217 0 q 217 13 213 7 l 828 871 q 843 879 833 879 l 950 879 q 956 876 956 879 q 953 869 956 872 l 346 8 m 281 893 q 381 874 339 893 q 451 820 424 854 q 493 740 479 786 q 507 638 507 693 q 494 546 507 592 q 452 463 481 500 q 381 404 424 426 q 279 382 338 382 q 176 402 219 382 q 106 456 133 422 q 65 536 78 490 q 51 633 51 582 q 70 743 51 694 q 120 825 89 792 q 193 876 151 858 q 281 893 235 893 m 179 638 q 205 536 179 578 q 282 494 231 494 q 353 531 326 494 q 379 638 379 568 q 353 744 379 707 q 281 781 328 781 q 208 746 236 781 q 179 638 179 711 m 894 497 q 995 478 953 497 q 1066 424 1038 458 q 1108 343 1094 390 q 1122 242 1122 296 q 1109 150 1122 196 q 1067 68 1096 104 q 996 9 1039 32 q 894 -14 953 -14 q 792 6 836 -14 q 721 61 749 26 q 679 142 693 96 q 665 239 665 188 q 684 348 665 300 q 734 429 703 396 q 807 480 765 463 q 894 497 849 497 m 794 242 q 820 140 794 181 q 897 100 846 100 q 968 135 942 100 q 994 242 994 171 q 969 348 994 311 q 896 385 943 385 q 823 349 851 385 q 794 242 794 314 z "},"&":{"ha":965,"x_min":58,"x_max":918,"o":"m 563 421 q 597 383 578 406 q 638 336 617 361 q 678 285 658 311 q 713 239 697 260 q 788 163 753 185 q 872 140 824 140 q 892 141 882 140 q 908 143 901 142 q 918 133 918 143 l 918 14 q 916 2 918 6 q 907 -4 914 -1 q 878 -11 896 -8 q 835 -14 860 -14 q 767 -8 799 -14 q 706 17 736 -1 q 644 67 675 35 q 578 150 613 99 q 504 251 540 204 q 438 331 468 297 q 383 387 407 365 q 347 414 360 408 q 310 404 331 413 q 271 379 289 396 q 240 338 253 363 q 228 282 228 314 q 269 183 228 224 q 397 142 311 142 q 458 147 432 142 q 507 161 485 151 q 514 153 514 163 l 514 21 q 512 12 514 14 q 504 7 510 10 q 451 -8 482 -1 q 368 -14 421 -14 q 244 6 301 -14 q 146 61 188 25 q 81 149 104 97 q 58 265 58 200 q 76 362 58 319 q 120 436 93 404 q 182 490 147 468 q 253 525 217 513 q 201 599 225 557 q 178 700 178 640 q 198 795 178 753 q 255 867 218 838 q 342 912 292 896 q 456 928 393 928 q 544 922 504 928 q 613 900 585 915 q 621 883 621 896 l 621 757 q 610 750 621 742 q 548 773 585 764 q 463 782 511 782 q 372 759 400 782 q 343 696 343 736 q 368 634 343 665 q 438 567 393 603 l 878 567 q 888 557 889 567 l 867 432 q 854 421 865 421 l 563 421 z "},"’":{"ha":263,"x_min":26,"x_max":226,"o":"m 35 624 q 29 633 26 624 q 53 703 43 671 q 69 766 63 736 q 78 825 75 796 q 82 886 82 854 q 79 937 82 911 q 74 979 76 963 q 81 989 74 989 l 203 989 q 217 978 213 989 q 224 936 221 960 q 226 883 226 913 q 211 760 226 825 q 163 631 196 696 q 158 626 160 628 q 150 624 156 624 l 35 624 z "},"(":{"ha":493,"x_min":69,"x_max":451,"o":"m 69 410 q 90 619 69 522 q 141 794 110 715 q 211 936 172 874 q 286 1042 250 999 q 292 1047 289 1044 q 301 1049 294 1049 l 442 1049 q 449 1045 447 1049 q 447 1036 451 1042 q 278 743 336 894 q 221 411 221 592 q 278 76 221 228 q 447 -218 336 -76 q 449 -227 451 -224 q 442 -231 447 -231 l 301 -231 q 286 -222 292 -231 q 210 -117 249 -179 q 140 26 171 -54 q 89 201 108 106 q 69 410 69 297 z "},")":{"ha":489,"x_min":39,"x_max":426,"o":"m 426 408 q 406 199 426 296 q 355 24 386 103 q 285 -117 324 -56 q 210 -222 246 -179 q 203 -228 206 -226 q 194 -231 201 -231 l 54 -231 q 49 -218 39 -231 q 217 75 158 -76 q 275 408 275 226 q 217 742 275 590 q 49 1036 158 894 q 54 1049 39 1049 l 194 1049 q 203 1047 201 1049 q 210 1042 206 1044 q 286 935 247 997 q 356 794 325 874 q 407 617 388 714 q 426 408 426 521 z "},"*":{"ha":557,"x_min":19,"x_max":540,"o":"m 471 475 q 471 460 479 467 l 385 404 q 372 410 376 399 l 265 596 l 125 442 q 121 438 124 439 q 115 442 118 438 l 49 511 q 49 524 39 517 l 207 656 l 26 724 q 22 727 24 724 q 22 736 19 731 l 69 831 q 82 833 74 839 l 240 731 l 250 933 q 258 942 250 942 l 374 926 q 381 917 382 926 l 326 718 l 510 774 q 521 768 517 779 l 539 665 q 533 656 540 656 l 342 640 l 471 475 z "},"+":{"ha":776,"x_min":47,"x_max":729,"o":"m 443 713 q 451 701 451 713 l 451 422 l 721 422 q 729 411 729 422 l 729 313 q 719 301 729 301 l 451 301 l 451 18 q 442 10 451 10 l 335 10 q 326 18 326 10 l 326 301 l 58 301 q 47 313 47 301 l 47 414 q 57 422 47 422 l 326 422 l 326 704 q 335 713 326 713 l 443 713 z "},",":{"ha":289,"x_min":-4,"x_max":239,"o":"m 8 -186 q 1 -175 -4 -186 q 44 -76 28 -124 q 68 17 60 -29 q 78 108 76 63 q 78 200 81 153 q 86 207 78 207 l 222 207 q 232 197 232 207 q 217 -1 239 97 q 142 -178 196 -99 q 137 -183 140 -181 q 126 -186 133 -186 l 8 -186 z "},"-":{"ha":454,"x_min":54,"x_max":399,"o":"m 64 283 q 54 293 54 283 l 54 419 q 64 428 54 428 l 390 428 q 397 427 394 428 q 399 419 399 426 l 399 292 q 392 283 399 283 l 64 283 z "},".":{"ha":289,"x_min":43,"x_max":247,"o":"m 144 -14 q 72 14 100 -14 q 43 90 43 42 q 72 163 43 135 q 144 192 100 192 q 219 163 190 192 q 247 90 247 135 q 220 15 247 43 q 144 -14 193 -14 z "},"/":{"ha":504,"x_min":47,"x_max":456,"o":"m 182 -53 q 172 -60 181 -60 l 57 -60 q 50 -51 47 -60 l 324 967 q 332 972 325 972 l 449 972 q 454 965 456 972 l 182 -53 z "},":":{"ha":382,"x_min":89,"x_max":293,"o":"m 190 433 q 117 461 146 433 q 89 538 89 489 q 117 610 89 582 q 190 639 146 639 q 265 610 236 639 q 293 538 293 582 q 266 462 293 490 q 190 433 239 433 m 190 -14 q 117 14 146 -14 q 89 90 89 42 q 117 164 89 135 q 190 193 146 193 q 265 164 236 193 q 293 90 293 135 q 266 15 293 43 q 190 -14 239 -14 z "},";":{"ha":382,"x_min":31,"x_max":293,"o":"m 190 433 q 117 461 146 433 q 89 538 89 489 q 117 610 89 582 q 190 639 146 639 q 265 610 236 639 q 293 538 293 582 q 266 462 293 490 q 190 433 239 433 m 44 -186 q 36 -175 31 -186 q 103 17 89 -72 q 113 200 118 106 q 121 207 113 207 l 257 207 q 268 197 267 207 q 253 -1 275 97 q 178 -178 231 -99 q 172 -183 176 -181 q 161 -186 168 -186 l 44 -186 z "},"<":{"ha":757,"x_min":83,"x_max":674,"o":"m 83 408 q 85 417 83 415 q 90 422 86 419 l 663 711 q 674 707 674 718 l 674 596 q 664 585 674 588 l 219 364 l 219 361 l 665 139 q 672 135 669 136 q 674 126 674 133 l 674 21 q 664 11 674 10 l 90 303 q 83 315 83 308 l 83 408 z "},"=":{"ha":763,"x_min":42,"x_max":722,"o":"m 42 546 q 53 556 42 556 l 713 556 q 722 547 722 556 l 722 447 q 710 436 722 436 l 53 436 q 42 447 42 436 l 42 546 m 42 278 q 51 288 42 288 l 711 288 q 722 276 722 288 l 722 179 q 708 168 722 168 l 51 168 q 42 179 42 168 l 42 278 z "},">":{"ha":757,"x_min":83,"x_max":674,"o":"m 674 318 q 667 306 674 308 l 90 11 q 83 18 83 8 l 83 126 q 85 135 83 133 q 90 139 88 138 l 535 361 l 535 363 l 92 585 q 83 596 83 588 l 83 706 q 92 713 83 718 l 667 419 q 674 408 674 415 l 674 318 z "},"?":{"ha":596,"x_min":83,"x_max":558,"o":"m 300 926 q 410 910 363 926 q 492 863 458 893 q 542 794 525 833 q 558 708 558 754 q 534 598 558 642 q 469 517 510 554 q 397 444 429 478 q 364 378 364 410 q 386 301 364 340 q 388 295 389 299 q 381 292 386 292 l 260 292 q 251 292 254 292 q 242 297 247 293 q 215 346 222 319 q 208 393 208 372 q 237 479 208 442 q 315 567 265 517 q 369 627 350 601 q 388 685 388 653 q 360 746 388 722 q 269 769 333 769 q 172 756 214 769 q 94 724 129 743 q 83 729 83 718 l 83 864 q 89 878 83 875 q 167 909 114 892 q 300 926 219 926 m 313 -14 q 242 12 269 -14 q 215 83 215 38 q 243 153 215 128 q 313 179 271 179 q 383 152 357 179 q 410 83 410 125 q 385 13 410 39 q 313 -14 360 -14 z "},"@":{"ha":1189,"x_min":61,"x_max":1128,"o":"m 697 493 q 681 497 690 496 q 654 499 671 499 q 583 483 614 499 q 531 442 553 468 q 497 379 508 415 q 486 303 486 343 q 496 231 486 265 q 525 172 506 197 q 575 133 544 147 q 646 118 606 118 q 663 118 657 118 q 675 121 668 118 l 697 493 m 813 132 q 865 153 835 138 q 921 201 894 169 q 966 283 947 233 q 985 406 985 332 q 960 548 985 485 q 889 656 935 611 q 778 724 843 700 q 632 749 713 749 q 466 719 543 749 q 333 635 389 690 q 244 498 276 579 q 211 313 211 417 q 268 70 211 172 q 440 -92 325 -32 q 447 -106 447 -97 l 444 -239 q 435 -244 444 -250 q 278 -157 347 -211 q 160 -32 208 -103 q 87 124 113 39 q 61 304 61 208 q 103 531 61 426 q 220 713 144 636 q 402 833 296 789 q 639 876 508 876 q 834 844 744 876 q 989 751 924 811 q 1091 605 1054 690 q 1128 414 1128 519 q 1092 231 1128 311 q 993 97 1056 151 q 847 15 931 43 q 665 -12 763 -12 q 533 7 593 -12 q 431 65 474 26 q 366 160 389 104 q 343 290 343 217 q 369 426 343 365 q 439 529 394 486 q 544 596 483 572 q 675 619 606 619 q 758 614 715 619 q 831 596 801 608 q 839 585 839 594 l 813 132 z "},"A":{"ha":842,"x_min":4,"x_max":838,"o":"m 246 240 l 169 11 q 154 0 165 0 l 15 0 q 6 14 4 0 l 292 828 q 299 853 296 839 q 304 903 301 867 q 313 913 304 913 l 506 913 q 515 904 514 913 l 836 13 q 828 0 838 0 l 672 0 q 658 8 663 0 l 578 240 l 246 240 m 533 392 q 506 476 522 426 q 472 581 489 526 q 438 686 454 635 q 411 774 421 738 l 410 774 q 388 692 401 739 q 357 595 374 646 q 323 492 340 544 q 290 392 306 439 l 533 392 z "},"B":{"ha":810,"x_min":103,"x_max":761,"o":"m 103 899 q 111 911 103 910 q 161 912 129 911 q 230 913 193 913 q 306 915 267 914 q 381 915 346 915 q 555 890 489 915 q 656 828 621 865 q 703 749 692 790 q 715 674 715 707 q 706 607 715 636 q 684 556 697 578 q 656 518 671 533 q 628 493 640 503 q 670 467 647 483 q 713 424 693 450 q 747 361 733 397 q 761 278 761 325 q 734 160 761 213 q 657 72 707 108 q 537 17 607 36 q 381 -3 467 -3 q 221 -2 289 -3 q 113 0 153 -1 q 103 11 103 1 l 103 899 m 268 140 q 317 138 292 139 q 375 138 343 138 q 531 169 474 136 q 589 274 589 203 q 566 349 589 317 q 489 394 543 381 q 394 404 454 404 l 268 404 l 268 140 m 268 549 l 374 549 q 448 546 411 549 q 500 540 485 543 q 538 584 522 558 q 553 650 553 610 q 508 742 553 713 q 378 772 464 772 q 317 772 344 772 q 268 771 290 771 l 268 549 z "},"C":{"ha":774,"x_min":50,"x_max":736,"o":"m 728 29 q 718 11 728 15 q 634 -8 683 -1 q 526 -14 585 -14 q 344 15 431 -14 q 192 101 257 43 q 88 247 126 160 q 50 454 50 335 q 85 645 50 558 q 185 794 121 732 q 342 892 250 857 q 547 926 433 926 q 658 920 615 926 q 728 903 701 914 q 736 888 736 899 l 736 756 q 725 747 736 742 q 645 770 692 763 q 544 778 599 778 q 412 755 471 778 q 311 690 353 732 q 247 590 269 649 q 224 458 224 531 q 253 306 224 368 q 331 207 283 244 q 435 153 378 169 q 547 136 493 136 q 639 141 599 136 q 718 160 679 146 q 728 153 728 164 l 728 29 z "},"D":{"ha":917,"x_min":103,"x_max":865,"o":"m 103 900 q 113 911 103 910 q 211 914 143 913 q 375 915 279 915 q 589 883 497 915 q 742 791 681 850 q 835 651 804 732 q 865 472 865 569 q 822 255 865 344 q 707 108 778 165 q 548 24 636 50 q 372 -3 460 -3 q 301 -3 339 -3 q 226 -3 263 -3 q 160 -2 190 -3 q 113 0 129 -1 q 103 13 103 0 l 103 900 m 271 144 q 315 143 292 143 q 365 143 338 143 q 499 164 439 143 q 603 226 560 185 q 669 328 646 268 q 693 468 693 389 q 669 600 693 543 q 603 694 646 657 q 503 751 561 732 q 374 769 444 769 q 320 769 344 769 q 271 767 296 768 l 271 144 z "},"E":{"ha":736,"x_min":103,"x_max":704,"o":"m 681 11 q 668 0 679 0 l 115 0 q 103 11 103 0 l 103 901 q 114 913 103 913 l 650 913 q 663 903 661 913 l 678 774 q 668 761 681 761 l 271 761 l 271 540 l 632 540 q 642 531 642 540 l 642 399 q 632 390 642 390 l 271 390 l 271 151 l 692 151 q 701 140 704 151 l 681 11 z "},"F":{"ha":706,"x_min":103,"x_max":678,"o":"m 271 11 q 260 0 271 0 l 113 0 q 103 11 103 0 l 103 903 q 114 913 103 913 l 650 913 q 663 901 661 913 l 676 772 q 665 761 678 761 l 271 761 l 271 518 l 625 518 q 636 508 636 518 l 636 378 q 625 368 636 368 l 271 368 l 271 11 z "},"G":{"ha":897,"x_min":50,"x_max":821,"o":"m 496 365 q 485 378 485 367 l 485 501 q 494 510 485 510 l 808 510 q 819 499 819 510 l 819 46 q 811 33 821 35 q 668 -4 738 6 q 538 -14 599 -14 q 324 22 415 -14 q 172 122 233 58 q 81 269 111 185 q 50 450 50 354 q 87 647 50 558 q 191 797 124 735 q 353 892 258 858 q 563 926 447 926 q 692 919 633 926 q 788 893 750 911 q 796 876 796 889 l 796 743 q 785 736 796 731 q 684 768 738 760 q 568 776 631 776 q 312 692 400 778 q 224 456 224 607 q 244 329 224 388 q 306 227 265 271 q 406 158 346 183 q 546 133 467 133 q 606 136 582 133 q 651 146 631 139 l 651 361 l 496 365 z "},"H":{"ha":929,"x_min":104,"x_max":826,"o":"m 669 0 q 658 11 658 0 l 658 399 l 271 399 l 271 13 q 260 0 271 0 l 117 0 q 104 13 104 0 l 104 900 q 115 913 104 913 l 260 913 q 271 901 271 913 l 271 550 l 658 550 l 658 903 q 668 913 658 913 l 817 913 q 826 903 826 913 l 826 11 q 815 0 826 0 l 669 0 z "},"I":{"ha":375,"x_min":103,"x_max":271,"o":"m 271 13 q 260 0 271 0 l 114 0 q 103 13 103 0 l 103 901 q 114 913 103 913 l 260 913 q 271 901 271 913 l 271 13 z "},"J":{"ha":447,"x_min":-12,"x_max":350,"o":"m 182 903 q 193 913 182 913 l 340 913 q 350 903 350 913 l 350 264 q 348 196 350 229 q 339 135 346 163 q 241 -24 315 25 q 60 -74 167 -74 q 26 -72 42 -74 q -3 -68 10 -71 q -12 -53 -12 -65 l -12 75 q 0 83 -12 85 q 24 81 15 81 q 43 81 33 81 q 101 88 75 81 q 144 115 126 96 q 172 165 163 133 q 182 247 182 197 l 182 903 z "},"K":{"ha":811,"x_min":103,"x_max":844,"o":"m 840 15 q 842 5 844 10 q 833 0 840 0 l 657 0 q 644 2 649 0 q 633 11 640 4 l 271 424 l 271 13 q 260 0 271 0 l 115 0 q 103 13 103 0 l 103 903 q 114 913 103 913 l 260 913 q 271 901 271 913 l 271 493 l 628 904 q 644 913 633 913 l 804 913 q 815 908 814 913 q 813 899 817 903 l 440 482 q 440 469 436 476 l 840 15 z "},"L":{"ha":696,"x_min":103,"x_max":692,"o":"m 117 0 q 103 14 103 0 l 103 900 q 114 913 103 913 l 263 913 q 271 903 271 913 l 271 151 l 679 151 q 689 142 692 151 l 665 11 q 653 0 664 0 l 117 0 z "},"M":{"ha":1154,"x_min":86,"x_max":1068,"o":"m 140 904 q 144 912 142 911 q 151 913 146 913 l 374 913 q 388 903 383 913 q 414 813 397 868 q 449 692 431 757 q 488 558 468 628 q 526 424 508 488 q 557 306 543 360 q 578 221 571 253 l 579 221 q 601 302 586 250 q 637 418 617 354 q 679 552 657 482 q 722 688 701 622 q 760 810 743 754 q 789 903 778 867 q 793 910 792 907 q 801 913 794 913 l 1018 913 q 1029 904 1028 913 l 1067 11 q 1057 0 1068 0 l 903 0 q 892 10 892 0 q 887 244 889 121 q 884 479 885 368 q 883 675 883 590 q 883 793 883 760 l 882 793 q 858 701 874 760 q 821 572 842 643 q 776 421 800 500 q 728 266 751 342 q 685 124 706 190 q 651 11 665 57 q 639 0 650 0 l 500 0 q 486 10 488 0 q 452 129 471 63 q 414 269 433 196 q 374 418 394 343 q 335 563 353 493 q 301 692 317 632 q 276 794 286 751 l 274 794 q 271 653 274 742 q 265 459 268 565 q 257 236 261 353 q 247 10 253 119 q 236 0 247 0 l 97 0 q 88 11 86 0 l 140 904 l 140 904 z "},"N":{"ha":949,"x_min":103,"x_max":844,"o":"m 115 0 q 106 2 108 0 q 103 13 103 4 l 103 903 q 113 913 103 913 l 308 913 q 319 910 317 913 q 325 903 322 908 q 384 796 350 857 q 454 668 418 735 q 527 533 490 601 q 596 405 564 465 q 652 297 628 344 q 689 224 676 250 l 690 224 q 690 255 690 238 q 688 297 689 272 q 687 356 688 321 q 686 439 686 390 l 686 901 q 699 913 686 913 l 832 913 q 844 900 844 913 l 844 13 q 831 0 844 0 l 654 0 q 636 10 642 0 q 587 103 618 44 q 517 231 556 161 q 439 375 479 300 q 363 519 399 450 q 298 644 326 588 q 256 735 269 701 l 254 735 q 257 683 256 708 q 260 626 258 657 q 261 560 261 596 q 261 476 261 524 l 261 13 q 250 0 261 0 l 115 0 z "},"O":{"ha":961,"x_min":50,"x_max":910,"o":"m 481 926 q 662 890 582 926 q 797 790 742 853 q 881 642 851 726 q 910 461 910 557 q 878 265 910 353 q 790 116 847 178 q 654 20 733 54 q 481 -14 575 -14 q 299 22 379 -14 q 164 120 219 57 q 79 269 108 183 q 50 457 50 356 q 81 643 50 557 q 169 792 113 729 q 306 890 226 854 q 481 926 385 926 m 224 457 q 240 331 224 390 q 290 228 257 272 q 373 160 324 185 q 486 135 422 135 q 591 158 544 135 q 670 223 638 181 q 719 325 703 265 q 736 457 736 385 q 719 589 736 529 q 668 690 701 649 q 587 755 635 732 q 478 778 539 778 q 376 756 422 778 q 295 694 329 735 q 242 594 261 654 q 224 457 224 533 z "},"P":{"ha":788,"x_min":103,"x_max":739,"o":"m 103 900 q 113 911 103 911 q 223 914 153 913 q 369 915 293 915 q 541 890 471 915 q 655 822 611 864 q 719 724 699 779 q 739 613 739 669 q 709 469 739 529 q 627 372 679 410 q 506 315 575 333 q 358 296 438 296 l 271 296 l 271 11 q 260 0 271 0 l 114 0 q 103 10 103 0 l 103 900 m 271 444 q 306 443 289 443 q 358 443 324 443 q 441 451 401 443 q 510 478 481 460 q 556 529 539 497 q 574 608 574 561 q 522 727 574 685 q 374 769 469 769 q 310 769 338 769 q 271 767 282 768 l 271 444 z "},"Q":{"ha":961,"x_min":53,"x_max":951,"o":"m 225 457 q 242 331 225 390 q 292 228 258 272 q 374 160 325 185 q 488 135 424 135 q 593 158 546 135 q 672 223 640 181 q 722 325 704 265 q 739 457 739 385 q 721 589 739 529 q 669 690 703 649 q 588 755 636 732 q 481 778 540 778 q 378 756 425 778 q 297 694 331 735 q 244 594 263 654 q 225 457 225 533 m 731 -183 q 717 -181 724 -183 q 708 -175 711 -178 q 631 -106 678 -149 q 528 -11 583 -64 q 505 -13 517 -12 q 482 -14 493 -14 q 301 22 381 -14 q 166 120 221 57 q 82 269 111 183 q 53 457 53 356 q 84 643 53 557 q 172 792 115 729 q 307 890 228 854 q 482 926 386 926 q 663 890 583 926 q 798 790 743 853 q 882 642 853 726 q 911 461 911 557 q 858 212 913 318 q 708 47 804 106 q 765 -5 733 25 q 831 -65 797 -35 q 895 -124 864 -96 q 949 -172 926 -153 q 951 -179 951 -175 q 946 -183 950 -183 l 731 -183 z "},"R":{"ha":815,"x_min":103,"x_max":821,"o":"m 114 0 q 103 11 103 0 l 103 899 q 113 911 103 911 q 187 913 154 913 q 251 915 219 914 q 315 915 282 915 q 388 915 347 915 q 648 846 556 915 q 740 642 740 776 q 689 488 740 550 q 561 397 638 425 q 593 351 572 381 q 638 285 614 322 q 690 208 663 249 q 741 131 717 168 q 785 63 765 94 q 814 15 804 32 q 811 0 821 0 l 638 0 q 625 2 629 0 q 618 7 621 4 q 578 69 603 31 q 526 153 554 108 q 470 244 499 199 q 419 326 442 290 q 406 344 413 339 q 388 350 399 350 l 268 350 l 268 11 q 257 0 268 0 l 114 0 m 389 493 q 524 529 474 493 q 574 632 574 565 q 522 735 574 701 q 382 769 471 769 q 315 769 346 769 q 268 767 285 768 l 268 493 l 389 493 z "},"S":{"ha":689,"x_min":50,"x_max":640,"o":"m 303 -14 q 165 -1 226 -14 q 60 36 103 13 q 50 57 50 42 l 50 201 q 61 207 50 213 q 183 153 118 171 q 308 135 247 135 q 433 165 394 135 q 471 239 471 194 q 441 309 471 278 q 332 374 411 340 l 265 401 q 160 458 201 428 q 94 520 118 488 q 60 589 69 553 q 50 664 50 625 q 71 767 50 719 q 133 851 92 815 q 233 906 174 886 q 372 926 293 926 q 494 917 439 926 q 585 890 550 908 q 593 872 593 885 l 593 738 q 590 731 593 733 q 581 732 588 728 q 486 767 540 756 q 371 778 432 778 q 296 769 326 778 q 247 747 265 761 q 222 715 229 733 q 214 679 214 697 q 244 613 214 642 q 356 549 274 583 l 408 526 q 521 468 476 499 q 592 403 565 438 q 629 333 618 369 q 640 254 640 296 q 617 144 640 193 q 551 59 594 94 q 444 5 507 24 q 303 -14 382 -14 z "},"T":{"ha":750,"x_min":-1,"x_max":750,"o":"m 292 761 l 10 761 q 1 772 -1 761 l 19 901 q 32 913 21 913 l 722 913 q 736 900 735 913 l 749 774 q 739 761 750 761 l 458 761 l 458 13 q 447 0 458 0 l 304 0 q 292 13 292 -1 l 292 761 z "},"U":{"ha":906,"x_min":90,"x_max":815,"o":"m 258 354 q 307 194 258 254 q 456 135 356 135 q 532 146 497 135 q 592 183 567 157 q 633 251 618 208 q 647 357 647 293 l 647 900 q 658 913 647 913 l 804 913 q 815 901 815 913 l 815 349 q 787 183 815 251 q 710 70 758 114 q 594 6 661 26 q 450 -14 526 -14 q 301 8 368 -14 q 188 74 235 31 q 115 185 140 118 q 90 342 90 251 l 90 900 q 101 913 90 913 l 247 913 q 258 901 258 913 l 258 354 z "},"V":{"ha":839,"x_min":-3,"x_max":840,"o":"m 432 167 q 510 428 454 247 q 664 901 565 608 q 676 913 668 913 l 828 913 q 836 900 840 913 l 518 10 q 504 0 515 0 l 343 0 q 329 8 332 0 l 3 900 q 11 913 -3 913 l 171 913 q 182 904 179 913 q 273 649 232 767 q 346 438 314 532 q 399 274 378 343 q 429 167 419 206 l 432 167 z "},"W":{"ha":1188,"x_min":11,"x_max":1176,"o":"m 699 901 q 741 722 719 815 q 784 538 763 629 q 824 360 806 446 q 857 203 843 274 l 858 203 q 874 283 864 232 q 901 417 883 335 q 944 619 918 500 q 1006 901 969 738 q 1019 913 1008 913 l 1165 913 q 1175 900 1176 913 l 940 8 q 926 0 938 0 l 776 0 q 767 2 769 0 q 763 8 765 4 q 738 114 753 53 q 708 243 724 175 q 676 382 692 311 q 645 517 660 453 q 619 635 631 582 q 600 724 607 689 l 599 724 q 579 634 592 689 q 551 515 567 579 q 517 379 535 450 q 481 241 499 308 q 448 114 464 174 q 421 13 432 54 q 407 0 418 0 l 260 0 q 250 3 253 0 q 244 11 247 6 l 13 901 q 21 913 11 913 l 178 913 q 187 911 183 913 q 192 903 190 910 q 264 595 236 717 q 308 397 292 474 q 333 276 325 319 q 346 204 342 233 l 347 204 q 365 287 353 238 q 396 416 376 336 q 444 613 415 496 q 513 901 472 731 q 526 913 514 913 l 688 913 q 699 901 694 913 z "},"X":{"ha":756,"x_min":-15,"x_max":775,"o":"m 486 469 l 767 14 q 761 0 775 3 l 590 0 q 569 11 575 0 q 469 183 519 97 q 367 360 418 269 l 365 360 q 269 185 318 272 q 172 11 221 97 q 156 0 167 0 l -7 0 q -15 5 -14 0 q -12 14 -15 10 l 260 458 l -7 900 q 0 913 -14 913 l 169 913 q 186 903 181 913 q 282 731 232 815 q 379 558 332 646 l 381 558 q 474 731 426 646 q 571 901 522 815 q 588 913 575 913 l 743 913 q 749 899 756 913 l 486 469 z "},"Y":{"ha":747,"x_min":-24,"x_max":772,"o":"m -19 900 q -20 910 -24 907 q -12 913 -17 913 l 156 913 q 164 910 163 913 q 168 906 165 908 q 261 726 224 799 q 323 606 299 653 q 361 531 347 558 q 382 485 375 503 q 404 531 390 503 q 442 608 418 560 q 501 728 465 656 q 589 904 536 800 q 600 913 590 913 l 763 913 q 768 901 772 913 l 467 364 q 456 322 456 346 l 456 13 q 443 0 456 0 l 301 0 q 288 13 288 0 l 288 328 q 286 349 288 342 q 278 368 285 357 l -19 900 z "},"Z":{"ha":760,"x_min":21,"x_max":747,"o":"m 32 0 q 21 11 21 0 l 21 104 q 22 114 21 111 q 25 121 22 117 l 507 763 l 42 763 q 32 772 31 763 l 53 901 q 65 913 54 913 l 711 913 q 719 904 719 913 l 719 804 q 713 785 719 793 l 239 151 l 736 151 q 743 139 747 151 l 721 11 q 708 0 719 0 l 32 0 z "},"[":{"ha":442,"x_min":89,"x_max":400,"o":"m 217 -104 l 393 -110 q 400 -118 400 -110 l 400 -221 q 392 -228 399 -228 l 100 -228 q 89 -215 89 -228 l 89 1032 q 100 1044 89 1044 l 392 1044 q 399 1038 399 1044 l 399 935 q 392 928 399 928 l 217 925 l 217 -104 z "},"\\":{"ha":501,"x_min":47,"x_max":454,"o":"m 50 963 q 57 972 47 972 l 171 972 q 182 965 179 972 l 451 -47 q 452 -58 454 -56 q 443 -60 450 -60 l 328 -60 q 315 -50 317 -60 l 50 963 z "},"]":{"ha":450,"x_min":56,"x_max":367,"o":"m 238 921 l 61 926 q 56 933 56 926 l 56 1036 q 64 1044 57 1044 l 356 1044 q 367 1031 367 1044 l 367 -217 q 356 -228 367 -228 l 63 -228 q 57 -221 57 -228 l 57 -119 q 64 -111 57 -111 l 238 -107 l 238 921 z "},"^":{"ha":711,"x_min":46,"x_max":671,"o":"m 547 350 q 538 352 540 350 q 532 358 535 354 l 354 763 l 353 763 l 181 360 q 176 352 178 354 q 168 350 175 350 l 58 350 q 50 363 46 350 l 281 872 q 289 879 283 879 l 417 879 q 429 871 426 879 l 664 363 q 660 350 671 350 l 547 350 z "},"_":{"ha":715,"x_min":0,"x_max":715,"o":"m 715 -103 l 715 -171 l 0 -171 l 0 -103 l 715 -103 z "},"‘":{"ha":263,"x_min":36,"x_max":236,"o":"m 226 989 q 233 979 236 989 q 210 909 219 942 q 194 847 200 876 q 184 788 188 817 q 181 726 181 758 q 183 676 181 701 q 189 633 186 650 q 181 624 189 624 l 60 624 q 46 635 50 624 q 36 729 36 668 q 51 852 36 788 q 100 982 67 917 q 111 989 104 989 l 226 989 z "},"a":{"ha":689,"x_min":40,"x_max":604,"o":"m 439 306 q 363 310 407 310 q 242 284 279 310 q 204 214 204 258 q 235 147 204 175 q 340 118 265 118 q 392 122 368 118 q 439 135 415 125 l 439 306 m 601 142 q 601 97 601 118 q 604 54 601 76 q 601 49 604 50 q 522 19 558 31 q 450 -1 485 7 q 381 -11 415 -8 q 313 -14 347 -14 q 206 -1 256 -14 q 120 41 157 13 q 62 113 83 69 q 40 214 40 156 q 64 310 40 269 q 129 379 88 351 q 228 421 171 407 q 353 435 285 435 q 407 434 385 435 q 439 432 429 433 l 439 449 q 434 478 439 461 q 415 513 429 496 q 372 541 400 529 q 299 553 344 553 q 117 514 197 553 q 110 514 114 513 q 106 522 106 515 l 106 643 q 114 657 106 651 q 213 688 158 678 q 325 699 268 699 q 449 677 397 699 q 535 619 501 656 q 585 532 569 582 q 601 424 601 482 l 601 142 z "},"b":{"ha":757,"x_min":88,"x_max":711,"o":"m 243 989 q 256 978 256 989 l 257 679 q 383 699 315 699 q 519 674 458 699 q 622 605 579 649 q 688 501 665 561 q 711 371 711 440 q 676 203 711 275 q 585 83 642 131 q 456 10 529 35 q 306 -14 382 -14 q 97 17 194 -14 q 88 29 88 19 l 88 979 q 97 989 88 989 l 243 989 m 540 354 q 489 505 540 454 q 354 556 438 556 q 296 551 318 556 q 257 540 274 547 l 257 135 q 288 129 272 131 q 321 128 303 128 q 403 142 364 128 q 474 183 443 156 q 522 253 504 211 q 540 354 540 296 z "},"c":{"ha":599,"x_min":44,"x_max":564,"o":"m 564 19 q 557 8 564 10 q 483 -10 524 -6 q 403 -14 443 -14 q 251 13 318 -14 q 139 88 185 40 q 69 201 93 136 q 44 340 44 265 q 72 483 44 417 q 150 597 100 549 q 270 672 200 644 q 426 699 340 699 q 509 694 479 699 q 557 683 539 690 q 564 668 564 679 l 563 544 q 551 536 563 533 q 501 549 529 544 q 432 554 472 554 q 276 500 336 554 q 217 346 217 446 q 235 249 217 289 q 285 185 254 210 q 354 148 315 160 q 433 136 393 136 q 502 140 471 136 q 554 150 533 143 q 564 143 564 154 l 564 19 z "},"d":{"ha":754,"x_min":44,"x_max":671,"o":"m 400 -14 q 260 8 325 -14 q 147 73 194 29 q 72 183 99 117 q 44 336 44 249 q 72 478 44 411 q 150 593 99 544 q 274 670 201 642 q 439 699 347 699 q 467 698 454 699 q 499 694 481 697 l 499 979 q 507 989 499 989 l 658 989 q 665 981 665 989 l 665 142 q 667 97 665 121 q 671 53 668 72 q 663 40 671 43 q 528 -1 594 11 q 400 -14 463 -14 m 499 549 q 433 558 474 558 q 348 544 388 558 q 279 502 308 529 q 233 435 250 475 q 217 344 217 394 q 233 247 217 288 q 276 181 249 207 q 340 142 303 154 q 418 131 376 131 q 459 133 439 131 q 499 142 479 135 l 499 549 z "},"e":{"ha":697,"x_min":44,"x_max":656,"o":"m 214 304 q 228 236 215 268 q 267 181 242 204 q 332 143 293 157 q 424 129 371 129 q 596 163 517 129 q 604 157 604 168 l 604 42 q 596 26 604 31 q 507 -3 556 7 q 388 -14 458 -14 q 227 17 293 -14 q 121 97 161 47 q 63 208 81 146 q 44 335 44 271 q 66 473 44 407 q 129 589 88 539 q 231 669 171 639 q 371 699 292 699 q 501 672 447 699 q 590 601 556 644 q 640 507 625 558 q 656 406 656 456 q 654 353 656 376 q 650 319 653 331 q 639 310 649 311 q 585 306 624 307 q 496 304 547 304 l 214 304 m 421 424 q 477 424 461 424 q 497 425 493 424 l 497 436 q 491 474 497 451 q 470 516 485 496 q 429 551 456 536 q 364 565 403 565 q 301 553 328 565 q 257 520 275 540 q 228 474 239 500 q 214 424 218 449 l 421 424 z "},"f":{"ha":385,"x_min":8,"x_max":414,"o":"m 17 544 q 8 554 8 544 l 8 676 q 17 685 8 685 l 101 685 l 101 717 q 109 808 101 769 q 132 879 117 847 q 209 969 160 936 q 338 1001 258 1001 q 376 1000 358 1001 q 406 993 394 999 q 413 988 413 990 q 414 979 414 985 l 414 860 q 404 853 414 849 q 361 857 383 857 q 294 830 318 857 q 269 731 269 803 l 269 685 l 392 685 q 403 676 403 685 l 403 554 q 392 544 403 546 l 269 544 l 269 11 q 267 3 269 6 q 257 0 265 0 l 113 0 q 101 11 101 0 l 101 544 l 17 544 z "},"g":{"ha":714,"x_min":32,"x_max":713,"o":"m 253 11 q 204 -38 222 -10 q 186 -82 186 -67 q 199 -119 186 -100 q 234 -152 211 -137 q 291 -176 257 -167 q 368 -185 325 -185 q 513 -151 467 -185 q 558 -78 558 -118 q 546 -40 558 -56 q 513 -15 533 -25 q 464 -1 492 -6 q 404 4 436 3 l 253 11 m 338 578 q 255 547 285 578 q 225 464 225 517 q 253 384 225 415 q 338 353 282 353 q 419 381 390 353 q 449 461 449 410 q 422 544 449 510 q 338 578 396 578 m 440 146 q 648 86 583 139 q 713 -53 713 33 q 688 -152 713 -106 q 616 -233 663 -199 q 503 -288 569 -268 q 357 -308 438 -308 q 212 -289 274 -308 q 110 -239 150 -269 q 51 -170 71 -208 q 32 -94 32 -132 q 62 -17 32 -61 q 161 86 92 26 q 132 190 129 132 q 157 281 132 239 q 88 353 114 308 q 61 461 61 397 q 80 554 61 511 q 134 630 99 597 q 221 681 169 663 q 338 699 272 699 q 406 696 374 699 q 460 689 438 693 q 492 685 478 685 l 685 685 q 693 676 693 685 l 693 563 q 685 554 693 554 q 633 556 665 554 q 578 561 601 558 q 599 519 589 544 q 608 456 608 493 q 588 358 608 400 q 531 288 567 317 q 445 246 494 260 q 340 232 396 232 q 285 236 311 232 q 280 215 282 225 q 281 194 278 206 q 299 151 283 171 l 440 146 z "},"h":{"ha":767,"x_min":88,"x_max":678,"o":"m 256 10 q 246 0 256 0 l 99 0 q 88 11 88 0 l 88 979 q 99 989 88 989 l 246 989 q 256 979 256 989 l 256 635 q 341 681 296 664 q 446 699 386 699 q 526 687 485 699 q 601 644 568 675 q 656 560 635 614 q 678 424 678 507 l 678 13 q 667 0 678 0 l 522 0 q 510 13 510 0 l 510 407 q 480 515 510 478 q 389 553 450 553 q 256 504 311 553 l 256 10 z "},"i":{"ha":344,"x_min":78,"x_max":268,"o":"m 88 675 q 99 685 88 685 l 246 685 q 257 675 257 685 l 257 11 q 244 0 257 0 l 101 0 q 88 13 88 0 l 88 675 m 172 778 q 103 804 129 778 q 78 874 78 831 q 105 943 78 917 q 174 969 132 969 q 243 942 218 969 q 268 874 268 915 q 242 804 268 831 q 172 778 217 778 z "},"j":{"ha":344,"x_min":-40,"x_max":269,"o":"m 246 685 q 257 675 257 685 l 257 36 q 252 -62 257 -21 q 239 -133 247 -103 q 217 -186 231 -164 q 188 -229 204 -208 q 99 -285 153 -269 q 3 -301 46 -301 q -12 -301 -4 -301 q -29 -300 -21 -301 q -40 -287 -40 -299 l -40 -165 q -31 -154 -40 -154 q 18 -148 -4 -154 q 56 -126 40 -142 q 81 -81 72 -110 q 89 -8 89 -53 l 89 675 q 100 685 89 685 l 246 685 m 174 778 q 103 804 129 778 q 78 874 78 831 q 105 943 78 917 q 174 969 132 969 q 244 942 218 969 q 269 874 269 915 q 243 804 269 831 q 174 778 217 778 z "},"k":{"ha":693,"x_min":86,"x_max":729,"o":"m 681 685 q 688 672 697 685 q 635 614 672 654 q 554 528 597 574 q 472 440 511 482 q 413 378 432 399 q 413 372 413 378 q 485 290 444 336 q 567 194 525 243 q 651 99 610 146 q 726 13 692 51 q 728 4 729 8 q 719 0 726 0 l 529 0 q 519 2 522 0 q 511 10 515 4 q 459 71 492 32 q 390 154 426 110 q 317 242 353 199 q 256 317 281 286 l 256 13 q 244 0 256 0 l 99 0 q 86 13 86 0 l 86 978 q 99 989 86 989 l 244 989 q 256 978 256 989 l 256 390 q 322 465 283 421 q 397 551 360 508 q 465 628 435 593 q 507 676 494 663 q 524 685 514 685 l 681 685 z "},"l":{"ha":368,"x_min":88,"x_max":336,"o":"m 88 978 q 100 989 88 989 l 243 989 q 256 978 256 989 l 256 181 q 267 136 256 149 q 304 124 279 124 q 317 124 313 124 q 331 125 321 124 q 336 117 336 126 l 336 13 q 335 3 336 6 q 328 -3 333 0 q 297 -11 317 -8 q 249 -14 278 -14 q 186 -6 215 -14 q 135 21 157 1 q 100 76 113 40 q 88 165 88 111 l 88 978 z "},"m":{"ha":1175,"x_min":81,"x_max":1088,"o":"m 99 0 q 88 13 88 0 l 88 538 q 86 617 88 578 q 82 675 85 656 q 93 685 81 685 l 221 685 q 235 676 229 685 q 240 653 238 668 q 243 621 242 638 q 341 681 292 663 q 446 699 390 699 q 625 607 568 699 q 726 672 669 646 q 853 699 782 699 q 938 686 896 699 q 1014 642 981 674 q 1067 559 1047 611 q 1088 428 1088 507 l 1088 11 q 1075 0 1088 0 l 932 0 q 919 13 919 0 l 919 413 q 893 513 919 472 q 803 554 867 554 q 728 538 763 554 q 667 497 693 522 q 670 462 669 486 q 671 415 671 438 l 671 11 q 661 0 671 0 l 517 0 q 504 13 504 0 l 504 417 q 474 519 504 486 q 388 553 444 553 q 319 540 350 553 q 256 501 288 528 l 256 11 q 244 0 256 0 l 99 0 z "},"n":{"ha":765,"x_min":82,"x_max":678,"o":"m 88 525 q 87 565 88 543 q 85 607 86 586 q 84 646 85 628 q 82 675 83 664 q 92 685 82 685 l 218 685 q 235 675 231 685 q 240 652 238 665 q 244 622 242 639 q 446 699 336 699 q 526 687 485 699 q 601 644 567 675 q 656 560 635 614 q 678 424 678 507 l 678 13 q 667 0 678 0 l 522 0 q 510 13 510 0 l 510 408 q 481 515 510 478 q 390 553 451 553 q 256 496 308 553 l 256 11 q 244 0 256 0 l 99 0 q 88 11 88 0 l 88 525 z "},"o":{"ha":756,"x_min":44,"x_max":713,"o":"m 382 699 q 524 670 463 699 q 628 594 586 642 q 691 481 669 546 q 713 346 713 417 q 688 199 713 265 q 619 85 664 132 q 514 12 575 38 q 379 -14 453 -14 q 228 17 292 -14 q 124 97 165 47 q 64 211 83 147 q 44 342 44 275 q 68 481 44 415 q 135 594 92 546 q 242 671 179 643 q 382 699 304 699 m 374 558 q 258 501 303 558 q 214 344 214 444 q 258 188 214 249 q 382 128 303 128 q 443 141 414 128 q 494 181 472 154 q 528 248 515 208 q 542 342 542 288 q 532 424 542 385 q 502 494 522 464 q 450 541 482 524 q 374 558 418 558 z "},"p":{"ha":757,"x_min":83,"x_max":713,"o":"m 369 699 q 520 672 456 699 q 627 599 585 644 q 691 492 669 553 q 713 365 713 432 q 677 199 713 269 q 583 81 642 128 q 451 10 525 33 q 297 -14 376 -14 q 276 -13 286 -14 q 256 -11 265 -12 l 256 -261 q 246 -272 256 -271 q 203 -277 228 -275 q 156 -281 179 -279 q 117 -285 133 -283 q 97 -286 100 -286 q 88 -278 88 -286 l 88 554 q 87 594 88 567 q 83 636 86 621 q 89 643 83 642 q 207 678 136 658 q 369 699 278 699 m 354 556 q 256 542 299 556 l 256 132 q 282 128 267 129 q 311 128 297 128 q 392 140 351 128 q 466 180 433 153 q 519 250 499 207 q 540 354 540 293 q 492 503 540 450 q 354 556 443 556 z "},"q":{"ha":757,"x_min":44,"x_max":674,"o":"m 388 -14 q 254 9 317 -14 q 145 76 192 32 q 72 185 99 121 q 44 333 44 250 q 71 475 44 408 q 148 591 97 542 q 272 669 199 640 q 440 699 346 699 q 572 687 513 699 q 671 660 631 675 q 674 650 674 658 q 669 603 671 631 q 668 563 668 575 l 668 -262 q 660 -274 668 -272 q 615 -278 640 -276 q 567 -283 590 -281 q 528 -286 544 -285 q 510 -287 511 -287 q 501 -276 501 -287 l 501 1 q 442 -10 469 -7 q 388 -14 415 -14 m 501 550 q 426 558 468 558 q 276 502 335 558 q 217 344 217 446 q 233 250 217 290 q 278 184 250 210 q 341 145 306 158 q 415 132 376 132 q 463 135 443 132 q 501 143 482 138 l 501 550 z "},"r":{"ha":483,"x_min":81,"x_max":482,"o":"m 219 685 q 235 674 231 685 q 244 637 240 660 q 249 590 247 614 q 342 667 285 635 q 471 699 399 699 q 482 689 482 699 l 482 542 q 469 532 482 532 q 338 513 394 535 q 257 458 281 490 l 257 11 q 244 0 257 0 l 100 0 q 88 11 88 0 l 88 490 q 88 538 88 513 q 86 589 88 564 q 83 637 85 614 q 81 676 82 660 q 89 685 81 685 l 219 685 z "},"s":{"ha":556,"x_min":39,"x_max":519,"o":"m 469 524 q 390 553 438 542 q 296 564 342 564 q 219 545 240 564 q 197 504 197 526 q 219 463 197 481 q 307 418 240 444 q 472 323 425 374 q 519 199 519 272 q 447 43 519 100 q 246 -14 375 -14 q 133 -3 183 -14 q 50 25 82 7 q 40 40 40 31 l 40 172 q 51 179 40 185 q 149 137 96 150 q 250 124 203 124 q 331 140 304 124 q 357 185 357 157 q 333 231 357 211 q 244 276 310 250 q 85 369 131 318 q 39 494 39 419 q 55 571 39 533 q 103 636 71 608 q 185 681 136 664 q 299 699 233 699 q 404 691 360 699 q 474 671 449 683 q 482 654 482 665 l 482 532 q 469 524 482 519 z "},"t":{"ha":438,"x_min":6,"x_max":417,"o":"m 411 22 q 403 6 411 8 q 285 -14 350 -14 q 151 31 199 -14 q 103 179 103 75 l 103 544 l 15 544 q 6 557 6 546 l 6 674 q 17 685 6 685 l 104 685 q 106 727 104 703 q 109 776 107 751 q 113 822 111 800 q 118 856 115 843 q 129 868 121 867 l 269 888 q 279 881 279 889 q 274 791 276 846 q 272 685 272 736 l 407 685 q 417 675 417 685 l 417 554 q 407 544 417 544 l 271 544 l 271 215 q 288 147 271 169 q 350 125 306 125 q 403 131 376 125 q 411 122 411 133 l 411 22 z "},"u":{"ha":757,"x_min":88,"x_max":678,"o":"m 668 153 q 671 65 668 99 q 676 10 674 32 q 665 0 678 0 l 538 0 q 524 8 525 0 q 518 33 521 19 q 514 57 515 46 q 419 1 469 15 q 321 -14 368 -14 q 228 0 271 -14 q 155 46 186 14 q 106 128 124 78 q 88 251 88 178 l 88 675 q 99 685 88 685 l 244 685 q 254 675 254 685 l 254 271 q 283 169 254 206 q 375 132 313 132 q 445 145 415 132 q 501 182 475 158 l 501 675 q 513 685 501 685 l 658 685 q 668 675 668 685 l 668 153 z "},"v":{"ha":667,"x_min":4,"x_max":663,"o":"m 250 0 q 241 3 243 0 q 236 8 239 6 q 207 94 225 42 q 167 210 189 147 q 123 340 146 272 q 78 470 100 407 q 38 587 56 533 q 7 675 19 640 q 15 685 4 685 l 174 685 q 186 676 183 685 q 250 467 224 554 q 294 318 276 379 q 321 218 311 257 q 336 157 331 179 l 339 157 q 356 217 344 179 q 386 317 367 256 q 433 466 406 378 q 501 676 461 554 q 513 685 503 685 l 653 685 q 659 683 656 685 q 660 674 663 681 q 627 583 646 638 q 586 465 608 528 q 540 335 564 403 q 495 207 517 268 q 455 94 474 146 q 425 10 436 42 q 410 0 421 0 l 250 0 z "},"w":{"ha":1026,"x_min":10,"x_max":1015,"o":"m 646 0 q 631 13 635 0 q 580 213 600 129 q 547 354 560 296 q 526 451 533 413 q 513 514 518 489 l 511 514 q 486 409 499 461 q 458 297 474 357 q 423 167 442 238 q 379 11 404 97 q 364 0 375 0 l 213 0 q 199 2 201 0 q 194 11 197 4 l 14 674 q 24 685 10 685 l 176 685 q 188 676 186 685 q 239 466 218 554 q 272 317 260 378 q 291 220 285 257 q 301 163 297 183 l 304 163 q 316 215 308 181 q 338 310 324 250 q 374 458 351 369 q 431 674 396 547 q 443 685 432 685 l 603 685 q 614 676 611 685 q 667 460 646 549 q 700 311 688 371 q 719 215 713 251 q 731 158 726 179 l 733 158 q 747 233 739 189 q 769 338 756 276 q 801 482 782 399 q 851 676 821 565 q 864 685 853 685 l 1004 685 q 1012 683 1008 685 q 1013 675 1015 681 l 814 11 q 808 2 811 4 q 799 0 806 0 l 646 0 z "},"x":{"ha":635,"x_min":-12,"x_max":651,"o":"m -4 672 q -6 681 -7 676 q 3 685 -4 685 l 169 685 q 186 675 181 685 l 318 435 l 321 435 l 460 678 q 465 684 463 683 q 472 685 467 685 l 619 685 q 626 674 633 685 q 581 601 608 644 q 524 510 553 557 q 466 421 494 464 q 417 349 438 378 q 470 267 439 314 q 533 172 501 219 q 593 81 564 124 q 640 11 622 38 q 633 0 651 0 l 463 0 q 444 11 451 0 l 306 253 l 304 253 l 161 8 q 146 0 157 0 l -3 0 q -10 4 -8 0 q -10 13 -12 8 q 40 89 13 46 q 97 176 68 132 q 154 264 126 221 q 204 340 182 307 l -4 672 z "},"y":{"ha":664,"x_min":-4,"x_max":667,"o":"m 172 685 q 185 676 182 685 q 290 365 253 481 q 340 199 326 250 q 413 417 375 304 q 497 676 450 531 q 513 685 501 685 l 656 685 q 664 674 667 685 q 581 433 626 558 q 487 185 535 308 q 390 -53 439 63 q 300 -265 342 -169 q 294 -272 297 -269 q 282 -275 290 -275 l 131 -286 q 124 -275 119 -286 q 188 -140 156 -212 q 254 13 221 -67 q 258 24 257 19 q 256 35 258 28 q 212 143 242 69 q 146 308 182 217 q 71 496 110 399 q 1 675 32 593 q 10 685 -4 685 l 172 685 z "},"z":{"ha":585,"x_min":15,"x_max":582,"o":"m 24 0 q 15 10 15 0 l 15 93 q 19 107 15 100 q 72 180 42 139 q 138 265 103 221 q 207 353 172 308 q 272 435 242 397 q 324 503 301 474 q 358 546 347 532 q 305 544 339 544 q 226 544 271 544 l 32 544 q 22 557 18 544 l 42 675 q 54 685 43 685 l 546 685 q 556 676 554 685 l 556 590 q 549 571 556 579 q 456 441 507 510 q 356 311 404 372 q 272 203 308 250 q 221 140 235 157 q 288 141 249 142 q 381 140 328 140 l 571 140 q 579 129 582 140 l 557 10 q 546 0 556 0 l 24 0 z "},"{":{"ha":533,"x_min":36,"x_max":493,"o":"m 43 338 q 36 346 36 338 l 36 461 q 43 469 36 469 q 122 476 90 469 q 172 497 153 482 q 199 534 190 511 q 208 590 207 557 q 205 689 210 635 q 200 788 200 743 q 213 874 200 831 q 257 952 225 917 q 343 1013 289 988 q 481 1043 397 1038 q 490 1036 490 1046 l 490 935 q 483 925 490 926 q 406 902 435 917 q 363 867 378 888 q 343 824 347 847 q 339 776 339 801 q 342 680 339 729 q 346 586 346 631 q 314 469 346 513 q 213 407 282 425 l 213 403 q 279 375 253 393 q 321 333 306 357 q 342 279 336 308 q 349 218 349 250 q 344 114 350 168 q 339 11 339 60 q 369 -80 339 -44 q 486 -131 399 -115 q 493 -140 493 -132 l 493 -244 q 485 -253 493 -253 q 272 -179 344 -242 q 200 -1 200 -117 q 206 99 200 50 q 213 203 213 147 q 205 261 213 236 q 178 303 197 286 q 126 328 158 319 q 43 338 93 338 z "},"|":{"ha":324,"x_min":92,"x_max":233,"o":"m 92 -272 l 92 1089 l 233 1089 l 233 -272 l 92 -272 z "},"}":{"ha":533,"x_min":38,"x_max":494,"o":"m 489 468 q 494 458 494 468 l 494 343 q 488 336 494 336 q 409 330 440 336 q 359 309 378 324 q 332 272 340 294 q 324 215 324 249 q 324 166 324 193 q 326 110 325 139 q 329 55 328 82 q 331 6 331 28 q 319 -76 331 -35 q 276 -154 307 -118 q 190 -217 244 -190 q 50 -251 135 -243 q 42 -243 42 -251 l 40 -140 q 47 -131 40 -132 q 128 -106 99 -122 q 172 -70 157 -90 q 190 -28 186 -50 q 193 17 193 -6 q 189 118 193 63 q 185 219 185 174 q 319 399 185 363 l 319 403 q 252 431 279 413 q 210 473 225 449 q 188 526 194 497 q 181 588 181 556 q 187 684 181 638 q 193 779 193 731 q 187 828 193 806 q 165 870 181 851 q 120 901 149 889 q 46 921 92 914 q 38 924 39 922 q 38 931 38 925 l 38 1036 q 44 1043 38 1043 q 331 792 331 1028 q 328 740 331 763 q 324 695 326 717 q 321 651 322 674 q 319 603 319 629 q 327 544 319 569 q 354 503 335 519 q 406 477 374 486 q 489 468 439 468 z "},"~":{"ha":768,"x_min":46,"x_max":725,"o":"m 56 249 q 47 258 47 249 q 59 372 46 325 q 96 449 72 419 q 153 491 119 478 q 224 504 186 504 q 313 485 274 504 q 408 426 353 467 q 486 374 458 390 q 542 358 514 358 q 592 385 575 358 q 606 486 608 413 q 617 494 606 494 l 713 494 q 721 486 721 494 q 712 366 725 414 q 674 290 699 318 q 617 251 649 263 q 551 239 585 239 q 461 256 501 239 q 364 314 421 272 q 289 369 315 350 q 233 388 263 388 q 207 383 219 388 q 184 363 194 378 q 168 323 174 349 q 164 257 163 297 q 154 249 164 249 l 56 249 z "},"¡":{"ha":353,"x_min":58,"x_max":258,"o":"m 158 -250 q 111 -247 138 -250 q 74 -239 85 -244 q 65 -224 65 -232 l 65 -124 q 67 -50 65 -94 q 72 45 69 -6 q 77 148 74 96 q 84 244 81 200 q 90 321 88 289 q 93 363 92 353 q 103 371 93 371 l 214 371 q 224 363 221 371 q 226 322 224 353 q 232 247 229 290 q 238 151 235 203 q 244 49 242 99 q 248 -45 246 -1 q 250 -118 250 -89 l 250 -219 q 242 -235 250 -229 q 201 -246 228 -242 q 158 -250 174 -250 m 160 688 q 231 663 204 688 q 258 594 258 638 q 231 526 258 553 q 160 499 203 499 q 87 526 115 499 q 58 594 58 553 q 87 663 58 639 q 160 688 115 688 z "},"¢":{"ha":671,"x_min":76,"x_max":600,"o":"m 488 -15 q 479 -24 488 -24 l 364 -24 q 356 -14 356 -24 l 356 108 q 242 145 293 118 q 153 214 190 172 q 97 310 117 256 q 76 432 76 365 q 99 556 76 500 q 160 654 122 613 q 249 722 199 696 q 357 760 300 749 l 357 882 q 365 889 357 889 l 479 889 q 488 881 488 889 l 488 767 q 542 762 513 767 q 592 749 571 757 q 599 735 599 744 l 599 607 q 586 599 599 593 q 526 616 558 611 q 453 621 493 621 q 301 572 357 621 q 246 439 246 524 q 265 351 246 386 q 316 294 285 315 q 385 263 347 272 q 460 253 424 253 q 525 258 492 253 q 590 274 558 263 q 600 265 600 278 l 600 143 q 590 129 600 132 q 539 114 567 118 q 488 107 511 110 l 488 -15 z "},"£":{"ha":679,"x_min":31,"x_max":679,"o":"m 39 0 q 31 7 31 0 l 31 118 q 38 126 31 124 q 149 210 118 154 q 179 357 179 265 q 180 369 179 364 q 179 386 181 375 l 65 386 q 57 396 57 386 l 57 493 q 65 501 57 501 l 175 501 l 175 553 q 255 802 175 711 q 478 893 335 893 q 606 874 568 893 q 617 856 617 868 l 617 729 q 607 721 617 717 q 554 738 582 732 q 493 744 526 744 q 378 699 414 744 q 342 557 342 654 l 342 501 l 531 501 q 539 493 539 501 l 539 396 q 531 386 539 386 l 340 386 q 319 247 339 303 q 251 151 300 190 l 665 151 q 675 142 679 151 l 654 10 q 643 0 653 0 l 39 0 z "},"⁄":{"ha":144,"x_min":-239,"x_max":382,"o":"m -228 -14 q -233 -6 -239 -14 l 261 885 q 271 890 265 890 l 371 890 q 375 883 382 890 l -117 -7 q -129 -14 -121 -14 l -228 -14 z "},"¥":{"ha":713,"x_min":4,"x_max":708,"o":"m 283 0 q 272 11 272 1 l 272 206 l 92 206 q 83 215 83 206 l 83 300 q 93 310 83 310 l 272 310 l 272 392 l 93 392 q 86 393 89 392 q 83 401 83 394 l 83 483 q 94 493 83 493 l 247 493 l 7 871 q 14 879 4 879 l 179 879 q 190 874 189 879 q 268 731 238 786 q 317 639 299 675 q 346 582 336 603 q 361 544 356 561 l 364 544 q 379 580 369 560 q 407 635 389 600 q 453 727 425 671 q 526 871 482 783 q 539 879 531 879 l 699 879 q 704 871 708 879 l 469 493 l 621 493 q 628 485 628 493 l 628 400 q 619 392 628 392 l 435 392 l 435 310 l 619 310 q 628 301 628 310 l 628 215 q 618 206 628 206 l 435 206 l 435 11 q 425 0 433 0 l 283 0 z "},"ƒ":{"ha":654,"x_min":-29,"x_max":638,"o":"m 104 551 q 114 560 104 560 l 240 560 l 253 646 q 278 752 261 697 q 328 852 296 807 q 410 926 361 897 q 532 956 460 956 q 590 952 568 956 q 631 940 611 949 q 636 936 635 938 q 638 928 638 935 l 638 808 q 628 801 638 796 q 594 812 611 808 q 550 815 578 815 q 462 772 492 815 q 419 640 432 728 l 408 560 l 554 560 q 562 559 560 560 q 564 551 564 558 l 564 458 q 556 449 564 449 l 393 449 l 349 115 q 323 -6 340 49 q 275 -98 306 -60 q 201 -156 244 -136 q 94 -176 157 -176 q 28 -171 54 -176 q -22 -153 1 -165 q -29 -135 -29 -150 l -29 -11 q -19 -3 -29 1 q 74 -28 32 -28 q 150 3 126 -28 q 183 117 174 35 l 228 449 l 114 449 q 104 458 104 449 l 104 551 z "},"§":{"ha":710,"x_min":39,"x_max":650,"o":"m 469 10 q 522 156 522 71 q 517 209 522 179 q 494 275 511 239 q 447 355 478 311 q 368 450 417 399 q 280 548 313 508 q 230 616 247 588 q 208 666 213 644 q 201 710 203 688 q 163 575 161 650 q 170 519 163 547 q 196 458 178 492 q 244 385 214 425 q 322 290 275 344 q 393 205 364 243 q 440 133 422 167 q 465 69 458 100 q 469 10 472 39 m 78 4 q 88 8 78 13 q 194 -40 143 -29 q 282 -51 246 -51 q 351 -12 351 -51 q 347 15 351 1 q 328 51 343 29 q 286 106 314 72 q 211 192 258 139 q 131 291 164 246 q 78 379 99 336 q 48 464 57 422 q 39 553 39 506 q 68 703 39 635 q 147 822 97 772 q 264 899 197 871 q 407 926 331 926 q 508 917 469 926 q 567 894 547 908 q 573 889 572 892 q 574 882 574 886 l 574 756 q 569 748 574 749 q 561 750 564 747 q 476 784 518 774 q 397 794 435 794 q 335 782 354 794 q 317 749 317 769 q 322 726 317 738 q 341 695 326 714 q 383 647 356 676 q 456 572 411 618 q 534 485 499 528 q 595 396 569 442 q 635 299 621 350 q 650 188 650 249 q 620 36 650 106 q 540 -84 590 -33 q 424 -163 490 -135 q 282 -192 357 -192 q 160 -176 213 -192 q 86 -144 107 -161 q 78 -129 78 -140 l 78 4 z "},"¤":{"ha":753,"x_min":44,"x_max":706,"o":"m 238 439 q 250 364 238 394 q 283 315 263 333 q 328 288 303 296 q 376 279 353 279 q 426 287 401 279 q 472 313 451 294 q 503 361 492 331 q 515 438 515 392 q 507 499 515 469 q 481 550 499 528 q 436 585 463 572 q 375 599 410 599 q 275 554 313 599 q 238 439 238 510 m 110 438 q 123 524 110 488 q 153 585 136 560 l 51 683 q 51 696 44 689 l 118 764 q 131 763 124 772 l 231 664 q 294 696 258 683 q 375 708 329 708 q 458 697 422 708 q 522 664 493 685 l 624 760 q 638 761 629 767 l 701 694 q 700 683 706 689 l 600 585 q 631 522 618 560 q 644 436 644 485 q 633 351 644 383 q 601 290 621 318 l 699 193 q 702 188 701 190 q 699 181 703 185 l 635 118 q 619 118 626 110 l 528 214 q 465 181 504 194 q 376 168 425 168 q 287 181 324 168 q 225 213 250 194 l 136 118 q 121 117 129 111 l 57 178 q 56 193 50 185 l 153 289 q 122 350 133 315 q 110 438 110 385 z "},"'":{"ha":261,"x_min":53,"x_max":210,"o":"m 53 978 q 63 989 53 989 l 201 989 q 210 981 210 989 l 185 633 q 174 624 183 624 l 64 624 q 54 633 54 624 l 53 978 z "},"“":{"ha":488,"x_min":38,"x_max":461,"o":"m 451 989 q 458 979 461 989 q 434 909 444 942 q 417 847 424 876 q 408 788 411 817 q 404 726 404 758 q 408 676 404 701 q 414 633 411 650 q 406 624 414 624 l 294 624 q 281 635 282 624 q 269 729 269 672 q 285 852 269 788 q 333 982 300 917 q 338 987 336 985 q 346 989 340 989 l 451 989 m 218 989 q 225 979 228 989 q 201 909 211 942 q 185 847 192 876 q 176 788 179 817 q 172 726 172 758 q 175 676 172 701 q 181 633 178 650 q 172 624 181 624 l 61 624 q 47 635 51 624 q 38 729 38 668 q 52 852 38 788 q 101 982 67 917 q 113 989 106 989 l 218 989 z "},"«":{"ha":793,"x_min":75,"x_max":713,"o":"m 75 386 q 82 397 75 393 l 372 642 q 385 633 385 649 l 385 506 q 375 489 385 496 l 208 342 l 378 194 q 385 179 385 190 l 385 46 q 371 39 385 32 l 81 288 q 75 301 75 293 l 75 386 m 403 386 q 410 394 403 390 l 700 642 q 713 633 713 649 l 713 506 q 704 489 713 496 l 536 342 l 703 196 q 710 189 708 192 q 711 179 711 186 l 711 46 q 699 39 711 32 l 410 288 q 403 301 403 293 l 403 386 z "},"‹":{"ha":465,"x_min":75,"x_max":385,"o":"m 75 386 q 82 397 75 393 l 372 642 q 385 633 385 649 l 385 506 q 375 489 385 496 l 208 342 l 378 194 q 385 179 385 190 l 385 46 q 371 39 385 32 l 81 288 q 75 301 75 293 l 75 386 z "},"›":{"ha":465,"x_min":81,"x_max":392,"o":"m 392 294 q 383 283 392 288 l 94 39 q 81 46 81 32 l 81 175 q 90 192 81 185 l 257 339 l 88 485 q 81 501 81 492 l 81 633 q 94 642 81 649 l 385 392 q 392 379 392 388 l 392 294 z "},"–":{"ha":792,"x_min":108,"x_max":686,"o":"m 108 407 q 117 417 108 417 l 676 417 q 686 408 686 417 l 686 304 q 676 294 686 294 l 118 294 q 108 304 108 294 l 108 407 l 108 407 z "},"†":{"ha":586,"x_min":24,"x_max":542,"o":"m 236 -110 q 226 -99 226 -110 l 226 463 l 32 463 q 24 469 24 463 l 24 557 q 32 565 24 565 l 226 565 l 226 813 q 236 824 226 824 l 333 824 q 343 814 343 824 l 343 565 l 532 565 q 542 557 542 565 l 542 475 q 540 465 542 468 q 531 463 539 463 l 343 463 l 343 -100 q 333 -110 343 -110 l 236 -110 z "},"‡":{"ha":586,"x_min":24,"x_max":542,"o":"m 236 -110 q 226 -97 226 -110 l 226 193 l 35 193 q 24 201 24 193 l 24 288 q 33 294 24 294 l 226 294 l 226 479 l 35 479 q 24 489 24 479 l 24 574 q 33 582 24 582 l 226 582 l 226 813 q 236 824 226 824 l 333 824 q 343 814 343 824 l 343 582 l 531 582 q 542 572 542 582 l 542 492 q 540 483 542 485 q 531 481 539 481 l 343 481 l 343 294 l 532 294 q 542 285 542 294 l 542 204 q 531 193 542 193 l 343 193 l 343 -99 q 332 -110 343 -110 l 236 -110 z "},"·":{"ha":361,"x_min":79,"x_max":283,"o":"m 181 254 q 108 281 136 254 q 79 357 79 308 q 108 431 79 403 q 181 460 136 460 q 255 431 226 460 q 283 357 283 401 q 256 283 283 311 q 181 254 229 254 z "},"¶":{"ha":835,"x_min":42,"x_max":715,"o":"m 706 913 q 713 904 714 913 q 709 859 710 889 q 708 803 708 829 l 706 161 q 706 60 706 101 q 706 -10 706 19 q 708 -59 707 -39 q 713 -96 710 -79 q 706 -106 715 -106 l 628 -106 q 618 -97 621 -106 q 613 -66 615 -85 q 610 -13 611 -47 q 608 74 608 21 q 607 211 607 128 l 607 799 l 510 799 l 510 210 q 509 81 510 133 q 507 -6 508 29 q 503 -64 506 -42 q 499 -100 501 -86 q 489 -107 496 -107 l 413 -107 q 404 -97 404 -107 q 410 1 408 -64 q 411 161 411 65 l 411 428 q 278 437 344 425 q 159 476 211 449 q 74 552 107 504 q 42 671 42 600 q 144 855 42 797 q 440 913 246 913 l 706 913 z "},"•":{"ha":508,"x_min":100,"x_max":408,"o":"m 100 356 q 141 463 100 419 q 254 507 182 507 q 367 463 326 507 q 408 356 408 418 q 368 247 408 290 q 254 204 328 204 q 141 248 182 204 q 100 356 100 292 z "},"‚":{"ha":281,"x_min":28,"x_max":228,"o":"m 38 -167 q 32 -158 28 -167 q 72 -26 60 -82 q 85 94 85 31 q 82 146 85 121 q 76 189 79 171 q 83 197 76 197 l 204 197 q 218 188 217 197 q 228 93 228 153 q 213 -30 228 35 q 164 -161 199 -94 q 153 -167 160 -167 l 38 -167 z "},"„":{"ha":501,"x_min":25,"x_max":449,"o":"m 35 -167 q 29 -158 25 -167 q 69 -26 57 -82 q 82 94 82 31 q 79 146 82 121 q 74 189 76 171 q 81 197 74 197 l 192 197 q 207 188 203 197 q 214 144 211 168 q 217 93 217 121 q 201 -30 217 35 q 153 -161 186 -94 q 140 -167 147 -167 l 35 -167 m 268 -167 q 261 -158 258 -167 q 302 -26 289 -82 q 315 94 315 31 q 312 146 315 121 q 306 189 308 171 q 314 197 306 197 l 425 197 q 439 188 438 197 q 449 93 449 153 q 434 -30 449 35 q 386 -161 419 -94 q 374 -167 381 -167 l 268 -167 z "},"”":{"ha":488,"x_min":26,"x_max":450,"o":"m 35 624 q 29 633 26 624 q 53 703 43 671 q 69 766 63 736 q 78 825 75 796 q 82 886 82 854 q 79 937 82 911 q 74 979 76 963 q 81 989 74 989 l 193 989 q 207 978 203 989 q 217 883 217 944 q 201 760 217 825 q 153 631 186 696 q 142 624 149 624 l 35 624 m 268 624 q 263 633 260 624 q 286 703 276 671 q 302 766 296 736 q 312 825 308 796 q 315 886 315 854 q 313 937 315 911 q 307 979 310 963 q 314 989 307 989 l 426 989 q 440 978 436 989 q 447 936 444 960 q 450 883 450 913 q 435 760 450 825 q 386 631 419 696 q 375 624 382 624 l 268 624 z "},"»":{"ha":793,"x_min":81,"x_max":718,"o":"m 718 294 q 711 283 718 286 l 421 39 q 407 46 407 32 l 407 175 q 409 185 407 182 q 417 192 411 188 l 585 339 l 415 485 q 408 501 408 490 l 408 633 q 421 642 408 649 l 711 392 q 718 379 718 388 l 718 294 m 390 294 q 382 286 390 288 l 92 39 q 81 46 81 32 l 81 175 q 89 192 81 185 l 256 339 l 89 485 q 82 492 83 489 q 81 501 81 494 l 81 633 q 93 642 81 647 l 383 392 q 390 379 390 388 l 390 294 z "},"…":{"ha":1204,"x_min":72,"x_max":1089,"o":"m 986 -14 q 913 14 942 -14 q 885 90 885 42 q 913 163 885 135 q 986 192 942 192 q 1060 163 1032 192 q 1089 90 1089 135 q 1062 15 1089 43 q 986 -14 1035 -14 m 175 -14 q 101 14 131 -14 q 72 90 72 42 q 101 163 72 135 q 175 192 131 192 q 249 163 221 192 q 278 90 278 135 q 251 15 278 43 q 175 -14 224 -14 m 582 -14 q 508 14 538 -14 q 479 90 479 42 q 508 163 479 135 q 582 192 538 192 q 656 163 628 192 q 683 90 683 135 q 657 15 683 43 q 582 -14 631 -14 z "},"‰":{"ha":1679,"x_min":51,"x_max":1628,"o":"m 1400 497 q 1501 478 1458 497 q 1572 424 1543 458 q 1614 343 1600 390 q 1628 242 1628 296 q 1615 150 1628 196 q 1573 68 1601 104 q 1501 9 1544 32 q 1400 -14 1458 -14 q 1298 6 1342 -14 q 1226 61 1254 26 q 1185 142 1199 96 q 1171 239 1171 188 q 1190 348 1171 300 q 1240 429 1208 396 q 1313 480 1271 463 q 1400 497 1354 497 m 1300 242 q 1326 140 1300 181 q 1403 100 1351 100 q 1474 135 1447 100 q 1500 242 1500 171 q 1474 348 1500 311 q 1401 385 1449 385 q 1328 349 1357 385 q 1300 242 1300 314 m 346 8 q 338 1 342 1 q 326 0 335 0 l 221 0 q 215 3 217 0 q 217 13 213 7 l 828 871 q 843 879 833 879 l 950 879 q 956 876 956 879 q 953 869 956 872 l 346 8 m 281 893 q 381 874 339 893 q 451 820 424 854 q 493 740 479 786 q 507 638 507 693 q 494 546 507 592 q 452 463 481 500 q 381 404 424 426 q 279 382 338 382 q 176 402 219 382 q 106 456 133 422 q 65 536 78 490 q 51 633 51 582 q 70 743 51 694 q 120 825 89 792 q 193 876 151 858 q 281 893 235 893 m 179 638 q 205 536 179 578 q 282 494 231 494 q 353 531 326 494 q 379 638 379 568 q 353 744 379 707 q 281 781 328 781 q 208 746 236 781 q 179 638 179 711 m 894 497 q 995 478 953 497 q 1066 424 1038 458 q 1108 343 1094 390 q 1122 242 1122 296 q 1109 150 1122 196 q 1067 68 1096 104 q 996 9 1039 32 q 894 -14 953 -14 q 792 6 836 -14 q 721 61 749 26 q 679 142 693 96 q 665 239 665 188 q 684 348 665 300 q 734 429 703 396 q 807 480 765 463 q 894 497 849 497 m 794 242 q 820 140 794 181 q 897 100 846 100 q 968 135 942 100 q 994 242 994 171 q 969 348 994 311 q 896 385 943 385 q 823 349 851 385 q 794 242 794 314 z "},"¿":{"ha":526,"x_min":26,"x_max":501,"o":"m 285 -253 q 174 -235 222 -253 q 93 -189 126 -218 q 43 -119 60 -160 q 26 -33 26 -79 q 51 77 26 33 q 115 158 76 121 q 189 231 157 197 q 221 297 221 265 q 199 372 221 333 q 206 383 193 383 l 326 383 q 334 383 331 383 q 343 378 338 382 q 370 329 363 356 q 378 281 378 303 q 370 236 378 257 q 349 195 363 215 q 315 154 335 175 q 269 108 294 133 q 216 48 235 74 q 197 -10 197 22 q 224 -72 197 -47 q 315 -96 251 -96 q 413 -82 371 -96 q 492 -49 456 -68 q 501 -54 501 -44 l 501 -189 q 501 -197 501 -193 q 496 -204 501 -201 q 418 -235 471 -218 q 285 -253 365 -253 m 272 688 q 342 663 315 688 q 369 592 369 638 q 342 522 369 547 q 272 496 315 496 q 201 523 228 496 q 175 592 175 550 q 201 662 175 636 q 272 688 226 688 z "},"`":{"ha":540,"x_min":43,"x_max":382,"o":"m 376 782 q 369 771 382 771 l 238 771 q 224 779 229 771 l 50 975 q 54 988 43 988 l 219 988 q 235 981 229 988 l 376 782 z "},"´":{"ha":540,"x_min":185,"x_max":514,"o":"m 325 976 q 340 989 331 989 l 500 989 q 508 976 514 989 l 339 779 q 321 771 331 771 l 192 771 q 186 774 188 771 q 188 781 185 778 l 325 976 z "},"ˆ":{"ha":540,"x_min":46,"x_max":490,"o":"m 264 901 l 176 775 q 165 771 174 771 l 60 771 q 54 782 46 771 l 194 976 q 206 983 197 983 l 329 983 q 342 976 338 983 l 486 781 q 481 771 490 771 l 365 771 q 351 776 356 771 l 264 901 z "},"˜":{"ha":540,"x_min":28,"x_max":514,"o":"m 39 775 q 31 778 32 775 q 28 786 29 781 q 71 924 29 879 q 171 968 113 968 q 232 957 204 968 q 283 933 260 946 q 326 908 307 919 q 363 897 346 897 q 393 914 385 897 q 404 957 401 931 q 413 965 404 965 l 504 965 q 514 958 514 965 q 474 814 513 856 q 378 772 435 772 q 322 783 347 772 q 273 807 296 794 q 228 831 250 819 q 186 842 207 842 q 153 828 167 842 q 138 783 140 815 q 136 778 138 781 q 131 775 135 775 l 39 775 z "},"¯":{"ha":540,"x_min":68,"x_max":474,"o":"m 465 931 q 474 921 474 931 l 474 821 q 465 813 474 813 l 76 813 q 68 822 68 813 l 68 921 q 78 931 68 931 l 465 931 z "},"˘":{"ha":540,"x_min":39,"x_max":501,"o":"m 160 964 q 168 958 168 964 q 205 906 181 925 q 269 888 229 888 q 333 904 306 888 q 372 957 361 921 q 379 964 374 964 l 493 964 q 499 956 501 964 q 423 817 482 868 q 268 767 364 767 q 118 813 179 767 q 40 956 57 860 q 49 964 39 964 l 160 964 z "},"˙":{"ha":540,"x_min":175,"x_max":367,"o":"m 271 778 q 201 804 226 778 q 175 874 175 831 q 202 943 175 917 q 271 969 229 969 q 341 942 315 969 q 367 874 367 915 q 340 804 367 831 q 271 778 314 778 z "},"¨":{"ha":540,"x_min":50,"x_max":488,"o":"m 133 789 q 74 812 97 789 q 50 874 50 835 q 74 938 50 914 q 136 961 99 961 q 195 937 172 961 q 218 874 218 913 q 194 811 218 833 q 133 789 169 789 m 403 789 q 344 812 367 789 q 321 874 321 835 q 345 938 321 914 q 406 961 369 961 q 465 937 443 961 q 488 874 488 913 q 464 812 488 835 q 403 789 440 789 z "},"˚":{"ha":540,"x_min":119,"x_max":419,"o":"m 119 889 q 160 985 119 947 q 269 1022 201 1022 q 378 985 336 1022 q 419 889 419 947 q 378 790 419 826 q 269 753 336 753 q 160 789 201 753 q 119 889 119 825 m 207 889 q 225 845 207 861 q 269 829 243 829 q 313 845 294 829 q 331 889 331 861 q 313 933 331 917 q 269 949 294 949 q 225 933 243 949 q 207 889 207 917 z "},"¸":{"ha":540,"x_min":133,"x_max":408,"o":"m 338 8 l 290 -56 q 379 -105 350 -74 q 408 -189 408 -136 q 363 -283 408 -246 q 243 -321 317 -321 q 185 -316 214 -321 q 142 -303 157 -311 q 133 -286 133 -297 l 133 -221 q 143 -212 133 -211 q 188 -227 163 -222 q 232 -232 213 -232 q 275 -222 258 -232 q 292 -190 292 -212 q 161 -125 292 -142 q 158 -107 158 -121 q 160 -89 157 -93 l 236 8 l 338 8 z "},"˝":{"ha":540,"x_min":76,"x_max":583,"o":"m 178 976 q 199 988 183 988 l 319 988 q 328 983 326 988 q 325 974 329 978 l 206 781 q 199 772 201 775 q 185 769 196 769 l 88 769 q 78 776 79 769 q 79 788 76 782 l 178 976 m 432 978 q 449 989 438 989 l 572 989 q 581 983 579 989 q 581 974 583 978 l 458 782 q 451 774 456 776 q 435 771 446 771 l 342 771 q 331 776 332 771 q 332 789 329 782 l 432 978 z "},"˛":{"ha":540,"x_min":104,"x_max":414,"o":"m 104 -165 q 153 -54 104 -107 q 285 42 203 -1 l 411 42 q 288 -44 322 -6 q 254 -119 254 -83 q 275 -166 254 -149 q 335 -183 296 -183 q 404 -174 379 -183 q 414 -183 414 -172 l 414 -269 q 406 -289 414 -283 q 355 -305 386 -299 q 288 -311 324 -311 q 223 -303 256 -311 q 164 -279 190 -296 q 121 -235 138 -262 q 104 -165 104 -207 z "},"ˇ":{"ha":540,"x_min":51,"x_max":493,"o":"m 276 853 l 363 979 q 374 983 367 983 l 481 983 q 485 972 493 983 l 346 778 q 333 771 340 771 l 211 771 q 197 778 201 771 l 54 974 q 53 981 51 978 q 60 983 56 983 l 175 983 q 189 978 183 983 l 276 853 z "},"—":{"ha":1382,"x_min":108,"x_max":1274,"o":"m 108 401 q 117 411 108 411 l 1264 411 q 1274 401 1274 411 l 1274 299 q 1264 289 1274 289 l 121 289 q 108 299 108 289 l 108 401 l 108 401 z "},"Æ":{"ha":1149,"x_min":-22,"x_max":1133,"o":"m -10 0 q -15 13 -22 0 l 392 832 q 401 855 394 839 q 417 906 407 871 q 428 913 421 913 l 1067 913 q 1076 903 1076 913 l 1086 769 q 1076 761 1088 761 l 696 761 l 714 540 l 1058 540 q 1065 532 1067 540 l 1060 396 q 1050 389 1060 389 l 726 389 l 747 151 l 1125 151 q 1132 142 1133 151 l 1107 8 q 1102 1 1104 1 q 1096 0 1100 0 l 599 0 q 593 6 593 0 l 569 275 l 289 275 l 161 10 q 147 0 156 0 l -10 0 m 560 426 l 540 651 q 535 724 538 688 q 529 796 532 761 l 526 796 q 490 708 511 757 q 454 626 468 660 l 354 426 l 560 426 z "},"ª":{"ha":493,"x_min":29,"x_max":433,"o":"m 233 815 q 382 765 331 815 q 432 636 433 715 l 432 406 q 430 397 432 399 q 425 393 428 396 q 328 370 379 379 q 233 361 278 361 q 156 369 193 361 q 90 394 118 376 q 46 439 63 411 q 29 506 29 467 q 54 581 29 551 q 120 626 79 610 q 211 648 161 643 q 311 649 261 653 l 311 656 q 308 674 311 664 q 294 693 304 685 q 265 707 283 701 q 217 713 246 713 q 149 707 183 713 q 83 688 115 701 q 75 694 75 685 l 75 778 q 79 785 75 782 q 156 808 115 800 q 233 815 197 815 m 150 510 q 242 457 150 457 q 283 460 264 457 q 311 465 301 463 l 311 565 q 247 566 276 567 q 197 559 218 565 q 163 541 175 553 q 150 510 150 529 z "},"Ł":{"ha":696,"x_min":-1,"x_max":692,"o":"m 679 151 q 689 142 692 151 l 665 11 q 653 0 664 0 l 117 0 q 103 14 103 0 l 103 350 l 6 307 q -1 311 -1 303 l -1 414 q 4 424 -1 418 l 103 468 l 103 900 q 114 913 103 913 l 263 913 q 271 903 271 913 l 271 543 l 469 632 q 479 625 479 636 l 479 531 q 471 515 479 517 l 271 426 l 271 151 l 679 151 z "},"Ø":{"ha":961,"x_min":50,"x_max":910,"o":"m 342 171 q 407 141 371 151 q 486 131 443 131 q 596 154 547 131 q 678 220 644 178 q 729 323 711 263 q 747 457 747 383 q 692 671 747 588 l 342 171 m 622 742 q 478 782 561 782 q 372 760 421 782 q 288 697 324 739 q 233 595 253 656 q 214 457 214 535 q 228 340 214 394 q 272 242 243 285 l 622 742 m 785 804 q 877 651 846 739 q 910 461 908 564 q 878 265 910 353 q 790 116 847 178 q 654 20 733 54 q 481 -14 575 -14 q 253 46 351 -14 l 225 6 q 214 0 221 0 l 115 0 q 108 3 110 0 q 110 10 107 7 l 178 106 q 83 259 115 169 q 50 457 50 349 q 81 643 50 557 q 169 792 113 729 q 306 890 226 854 q 481 926 385 926 q 604 910 547 926 q 708 865 661 894 l 738 907 q 749 913 743 913 l 847 913 q 854 903 858 913 l 785 804 z "},"Œ":{"ha":1265,"x_min":50,"x_max":1231,"o":"m 632 764 q 594 767 614 768 q 540 767 575 767 q 413 747 471 767 q 312 688 354 728 q 246 590 269 649 q 222 454 222 532 q 310 216 222 293 q 544 139 397 139 q 594 140 576 139 q 632 143 613 140 l 632 764 m 1178 911 q 1192 901 1190 911 l 1206 772 q 1196 760 1208 760 l 800 760 l 800 540 l 1161 540 q 1171 529 1171 540 l 1171 399 q 1160 389 1171 389 l 800 389 l 800 150 l 1221 150 q 1229 139 1231 150 l 1210 10 q 1192 -1 1208 -1 l 699 -1 q 621 -5 658 -4 q 529 -6 583 -6 q 329 26 418 -6 q 178 118 240 58 q 83 263 117 178 q 50 453 50 347 q 88 647 50 561 q 192 792 125 733 q 349 883 258 851 q 547 914 440 914 q 632 914 600 914 q 696 911 664 914 l 1178 911 z "},"º":{"ha":536,"x_min":33,"x_max":501,"o":"m 271 815 q 369 798 326 815 q 442 749 413 781 q 486 676 471 718 q 501 588 501 635 q 484 492 501 535 q 436 421 467 450 q 363 376 406 392 q 269 361 319 361 q 164 381 208 361 q 90 432 119 400 q 47 505 61 464 q 33 589 33 546 q 50 681 33 639 q 98 752 67 722 q 173 799 129 782 q 271 815 217 815 m 269 715 q 195 681 221 715 q 169 592 169 647 q 176 544 169 567 q 194 503 182 521 q 226 475 207 486 q 272 464 246 464 q 344 495 317 464 q 371 588 371 526 q 365 633 371 610 q 348 674 360 656 q 317 703 336 692 q 269 715 297 715 z "},"æ":{"ha":1089,"x_min":40,"x_max":1047,"o":"m 206 213 q 238 144 206 168 q 328 119 269 119 q 403 131 367 119 q 474 172 440 142 q 458 227 464 196 q 450 306 451 258 l 360 306 q 245 283 285 306 q 206 213 206 261 m 40 201 q 64 298 40 257 q 130 367 88 339 q 231 408 172 394 q 361 422 290 422 l 451 422 l 451 442 q 447 476 451 457 q 426 513 442 496 q 381 542 410 531 q 306 554 353 554 q 117 508 208 554 q 106 517 106 503 l 106 639 q 107 647 106 646 q 111 651 108 649 q 219 687 163 675 q 333 699 276 699 q 468 671 417 699 q 542 599 519 643 q 633 671 578 643 q 767 699 688 699 q 894 672 842 699 q 981 603 947 644 q 1031 510 1015 561 q 1047 410 1047 458 q 1044 343 1047 371 q 1035 313 1040 315 q 974 306 1013 307 q 888 304 936 304 l 606 304 q 659 178 611 226 q 813 129 707 131 q 903 137 861 129 q 988 164 944 144 q 996 158 996 168 l 996 40 q 989 25 996 28 q 894 -6 944 3 q 788 -14 844 -14 q 647 8 704 -14 q 546 72 589 31 q 421 6 483 26 q 290 -14 358 -14 q 201 -2 246 -14 q 121 35 157 10 q 63 102 85 61 q 40 201 40 143 m 756 565 q 650 525 690 565 q 607 421 610 485 l 842 421 q 876 422 865 421 q 889 425 886 422 q 890 440 890 428 q 883 479 890 457 q 861 520 876 501 q 820 552 846 539 q 756 565 794 565 z "},"ı":{"ha":344,"x_min":88,"x_max":257,"o":"m 88 675 q 99 685 88 685 l 246 685 q 257 675 257 685 l 257 11 q 244 0 257 0 l 101 0 q 88 13 88 0 l 88 675 z "},"ł":{"ha":382,"x_min":21,"x_max":372,"o":"m 363 707 q 372 701 372 711 l 372 626 q 372 611 372 621 q 365 599 371 601 l 269 550 l 269 181 q 281 136 269 149 q 318 124 293 124 q 331 124 326 124 q 344 125 335 124 q 350 117 350 126 l 350 13 q 349 3 350 6 q 342 -3 347 0 q 311 -11 331 -8 q 263 -14 292 -14 q 200 -6 229 -14 q 149 21 171 1 q 114 76 126 40 q 101 165 101 111 l 101 465 l 31 429 q 21 433 21 426 l 21 526 q 28 538 21 533 l 101 575 l 101 978 q 114 989 101 989 l 257 989 q 269 978 269 989 l 269 660 l 363 707 z "},"ø":{"ha":756,"x_min":44,"x_max":713,"o":"m 290 150 q 382 122 329 122 q 446 136 415 122 q 499 177 476 150 q 534 246 521 204 q 547 342 547 288 q 525 463 547 410 l 290 150 m 472 532 q 374 564 433 564 q 253 504 300 564 q 207 344 207 444 q 235 217 207 272 l 472 532 m 625 596 q 690 483 668 547 q 713 346 713 418 q 688 199 713 265 q 619 85 664 132 q 514 12 575 38 q 379 -14 453 -14 q 201 32 275 -14 l 176 -1 q 169 -8 172 -7 q 161 -8 165 -8 l 76 -8 q 70 -5 71 -8 q 74 3 69 -1 l 136 86 q 67 204 89 138 q 44 342 44 271 q 68 481 44 417 q 135 594 92 546 q 242 671 179 643 q 382 699 304 699 q 480 686 435 699 q 561 650 525 674 l 583 679 q 594 686 588 686 l 681 686 q 686 683 685 686 q 685 675 688 679 l 625 596 z "},"œ":{"ha":1196,"x_min":44,"x_max":1154,"o":"m 44 335 q 69 479 44 414 q 139 591 94 544 q 244 663 183 638 q 376 689 304 689 q 526 656 464 689 q 625 558 589 622 q 736 661 671 633 q 872 689 801 689 q 1002 663 949 689 q 1090 594 1056 636 q 1139 500 1124 553 q 1154 394 1154 447 q 1150 332 1154 350 q 1140 311 1146 314 q 1099 304 1129 306 q 993 303 1068 303 l 713 303 q 725 235 714 267 q 761 181 736 204 q 825 143 786 157 q 919 129 864 129 q 1006 136 963 129 q 1092 163 1049 143 q 1103 154 1103 167 l 1103 46 q 1094 25 1103 32 q 1002 -5 1053 4 q 889 -14 951 -14 q 741 13 813 -14 q 625 115 669 40 q 571 53 600 78 q 510 13 542 28 q 444 -8 478 -1 q 376 -14 410 -14 q 229 15 292 -14 q 126 93 167 44 q 65 205 85 142 q 44 335 44 268 m 378 549 q 258 494 303 549 q 214 342 214 439 q 257 188 214 247 q 382 128 300 128 q 443 140 414 128 q 494 177 472 151 q 528 242 515 203 q 542 336 542 282 q 533 417 542 379 q 504 485 524 456 q 453 531 485 514 q 378 549 422 549 m 956 419 q 988 422 981 419 q 996 429 996 425 l 996 442 q 989 478 996 458 q 967 515 982 497 q 925 544 951 532 q 861 556 899 556 q 758 517 794 556 q 713 419 721 478 l 956 419 z "},"ß":{"ha":801,"x_min":8,"x_max":765,"o":"m 113 0 q 101 11 101 0 l 101 544 l 15 544 q 8 556 8 544 l 8 675 q 17 685 8 685 l 101 685 l 101 694 q 117 797 101 743 q 170 897 133 851 q 267 973 207 943 q 418 1003 328 1003 q 558 974 500 1003 q 650 899 615 946 q 697 793 685 853 q 701 671 710 733 q 576 615 610 647 q 542 557 542 583 q 558 519 542 538 q 617 469 574 501 q 690 406 661 436 q 735 347 718 376 q 758 288 751 318 q 765 225 765 258 q 747 131 765 175 q 691 56 728 88 q 601 5 654 24 q 476 -14 547 -14 q 399 -7 432 -14 q 343 11 365 0 q 333 31 333 14 l 333 154 q 343 161 333 165 q 479 129 406 129 q 565 149 528 129 q 601 210 601 169 q 577 272 601 242 q 494 344 553 303 q 399 436 425 394 q 372 533 372 478 q 422 652 372 600 q 542 738 471 704 q 533 782 542 760 q 510 822 525 804 q 471 851 494 840 q 415 863 447 863 q 310 819 351 863 q 269 665 269 775 l 269 11 q 258 0 269 0 l 113 0 z "},"¬":{"ha":765,"x_min":42,"x_max":722,"o":"m 714 557 q 722 547 722 557 l 722 163 q 715 153 722 153 l 606 153 q 599 163 599 153 l 599 436 l 49 436 q 42 446 42 436 l 42 547 q 49 557 42 557 l 714 557 z "},"µ":{"ha":782,"x_min":88,"x_max":750,"o":"m 667 -14 q 621 -10 643 -14 q 580 7 599 -6 q 547 41 561 19 q 526 96 532 63 q 526 105 526 99 q 525 114 525 111 q 449 15 497 44 q 346 -14 400 -14 q 290 -5 318 -14 q 244 26 263 4 q 249 -92 247 -14 q 249 -262 250 -171 q 239 -275 249 -274 q 200 -280 222 -278 q 156 -283 178 -282 q 118 -286 135 -285 q 99 -287 101 -287 q 88 -276 88 -287 l 88 675 q 100 685 88 685 l 246 685 q 256 676 256 685 l 256 247 q 280 162 256 193 q 353 131 304 131 q 410 144 383 131 q 458 185 438 157 q 490 260 478 214 q 501 371 501 306 l 501 676 q 510 685 501 685 l 661 685 q 669 676 669 685 l 669 193 q 681 138 669 153 q 718 124 693 124 q 731 124 726 124 q 744 125 735 124 q 750 117 750 126 l 750 13 q 742 -3 750 0 q 667 -14 717 -14 z "},"™":{"ha":465,"x_min":-31,"x_max":481,"o":"m 49 678 q 44 682 44 678 l 44 861 l -26 861 q -31 867 -31 861 l -25 910 q -21 913 -24 913 l 175 913 q 178 911 178 913 l 183 867 q 178 861 183 861 l 106 861 l 106 683 q 103 678 106 679 l 49 678 m 311 683 q 304 688 308 683 q 278 803 289 750 q 264 869 267 856 l 263 869 q 261 803 263 851 q 257 682 260 756 q 253 678 257 678 l 203 678 q 197 682 197 678 l 214 908 q 219 913 214 913 l 297 913 q 304 908 303 913 q 328 813 318 856 q 340 753 338 771 l 343 753 q 347 774 343 758 q 357 812 351 790 q 370 859 363 833 q 386 911 378 885 q 392 913 388 913 l 465 913 q 472 908 472 913 l 481 683 q 475 678 481 678 l 422 678 q 417 683 417 678 q 417 759 417 735 q 417 797 417 783 q 417 823 417 810 q 418 867 417 836 l 417 867 q 410 842 415 860 q 399 800 406 825 q 385 747 393 775 q 368 689 376 718 q 364 683 365 683 l 311 683 z "},"Ð":{"ha":933,"x_min":15,"x_max":875,"o":"m 281 144 q 324 143 300 143 q 374 143 347 143 q 508 164 447 143 q 612 226 568 185 q 679 328 656 268 q 703 468 703 389 q 679 600 703 543 q 613 694 656 657 q 512 751 571 732 q 382 769 453 769 q 329 769 353 769 q 281 767 306 768 l 281 531 l 497 531 q 504 522 504 531 l 504 419 q 496 411 504 411 l 281 411 l 281 144 m 113 900 q 122 911 113 910 q 220 914 153 913 q 383 915 288 915 q 598 883 506 915 q 751 791 690 850 q 844 651 813 732 q 875 472 875 569 q 831 255 875 344 q 717 108 788 165 q 558 24 646 50 q 382 -3 469 -3 q 310 -3 349 -3 q 235 -3 272 -3 q 168 -2 199 -3 q 121 0 138 -1 q 113 13 113 0 l 113 411 l 24 411 q 15 421 15 411 l 15 522 q 22 531 15 531 l 113 531 l 113 900 z "},"½":{"ha":1051,"x_min":53,"x_max":1011,"o":"m 168 -14 q 163 -6 157 -14 l 656 885 q 665 890 660 890 l 767 890 q 771 883 774 890 l 279 -7 q 274 -12 276 -10 q 267 -14 272 -14 l 168 -14 m 154 371 q 147 372 147 371 q 146 379 146 374 l 146 761 q 100 745 121 750 q 60 735 79 740 q 53 742 53 733 l 53 826 q 58 835 53 832 q 120 853 88 842 q 176 876 153 865 q 182 879 179 879 q 188 879 185 879 l 269 879 q 275 872 275 879 l 275 379 q 268 371 275 371 l 154 371 m 617 0 q 611 7 611 0 l 611 76 q 613 82 611 81 q 615 85 614 83 q 693 137 650 108 q 772 197 736 165 q 833 261 808 228 q 858 328 858 294 q 838 383 858 360 q 763 406 817 406 q 694 397 725 406 q 631 369 663 388 q 621 375 621 364 l 621 465 q 628 478 621 474 q 698 507 660 497 q 789 518 736 517 q 874 504 838 518 q 933 467 910 490 q 969 412 957 443 q 981 346 981 381 q 934 219 981 272 q 811 111 888 165 l 1004 111 q 1011 104 1011 111 l 993 7 q 983 0 989 0 l 617 0 z "},"±":{"ha":776,"x_min":47,"x_max":729,"o":"m 443 861 q 451 851 451 861 l 451 588 l 721 588 q 729 576 729 588 l 729 478 q 719 468 729 468 l 451 468 l 451 201 q 442 193 451 193 l 335 193 q 326 201 326 193 l 326 468 l 58 468 q 47 479 47 468 l 47 579 q 57 588 47 588 l 326 588 l 326 853 q 335 861 326 861 l 443 861 m 721 121 q 729 108 729 121 l 729 10 q 719 0 729 0 l 58 0 q 47 11 47 0 l 47 111 q 57 121 47 121 l 721 121 z "},"Þ":{"ha":769,"x_min":101,"x_max":721,"o":"m 101 918 q 102 925 101 924 q 110 926 103 926 l 258 926 q 268 918 268 926 l 268 751 l 397 751 q 528 733 468 751 q 631 681 588 715 q 697 594 674 646 q 721 474 721 542 q 694 343 721 399 q 621 251 668 288 q 510 197 574 215 q 371 179 446 179 l 268 179 l 268 11 q 260 0 268 0 l 110 0 q 101 10 101 0 l 101 918 m 268 324 l 372 324 q 510 360 465 324 q 556 465 556 396 q 512 568 556 531 q 379 606 468 606 l 268 606 l 268 324 z "},"¼":{"ha":1007,"x_min":51,"x_max":969,"o":"m 182 -14 q 176 -6 171 -14 l 671 885 q 681 890 675 890 l 781 890 q 785 883 792 890 l 293 -7 q 281 -14 289 -14 l 182 -14 m 153 371 q 144 379 144 371 l 144 761 q 99 745 119 750 q 60 735 79 740 q 51 742 51 733 l 51 826 q 57 835 51 832 q 119 853 86 842 q 175 876 151 865 q 188 879 179 879 l 268 879 q 274 872 274 879 l 274 379 q 267 371 274 371 l 153 371 m 779 0 q 771 8 771 0 l 771 119 l 542 119 q 535 125 535 119 l 535 186 q 539 199 535 192 q 585 262 556 221 q 648 348 615 303 q 711 435 681 393 q 758 501 742 478 q 772 510 764 510 l 874 510 q 882 500 882 510 l 882 207 l 963 207 q 968 200 969 207 l 958 125 q 950 119 957 119 l 882 119 l 882 8 q 874 0 882 0 l 779 0 m 771 207 q 772 285 771 254 q 773 338 772 317 q 774 372 774 358 q 775 396 775 385 l 772 396 q 745 355 764 382 q 707 299 726 328 q 670 245 688 271 q 644 207 653 219 l 771 207 z "},"÷":{"ha":765,"x_min":42,"x_max":724,"o":"m 381 522 q 324 545 346 522 q 304 604 303 568 q 326 663 304 640 q 383 685 347 685 q 440 663 419 685 q 461 604 461 640 q 440 545 461 568 q 381 522 419 522 m 381 38 q 324 60 346 38 q 304 118 303 82 q 326 177 304 154 q 383 200 347 200 q 440 177 419 200 q 461 118 461 154 q 440 60 461 82 q 381 38 419 38 m 42 411 q 51 422 42 422 l 714 422 q 724 413 724 422 l 724 313 q 714 301 724 301 l 51 301 q 42 314 42 301 l 42 411 z "},"¦":{"ha":324,"x_min":92,"x_max":233,"o":"m 92 -272 l 92 272 l 233 272 l 233 -272 l 92 -272 m 232 544 l 92 544 l 92 1089 l 232 1089 l 232 544 z "},"°":{"ha":399,"x_min":24,"x_max":375,"o":"m 201 893 q 271 880 239 893 q 326 842 303 867 q 362 785 349 818 q 375 715 375 753 q 363 644 375 678 q 327 587 350 611 q 272 549 304 563 q 201 535 240 535 q 128 549 161 535 q 73 587 96 563 q 37 644 50 611 q 24 715 24 678 q 37 785 24 753 q 74 841 50 817 q 130 879 97 865 q 201 893 163 893 m 201 811 q 138 783 164 811 q 113 715 113 756 q 138 647 113 674 q 201 619 164 619 q 264 647 239 619 q 289 715 289 674 q 263 783 289 756 q 201 811 238 811 z "},"þ":{"ha":771,"x_min":89,"x_max":724,"o":"m 257 675 q 318 692 283 685 q 400 699 353 699 q 540 672 479 699 q 642 598 601 644 q 703 490 682 551 q 724 358 724 428 q 691 197 724 267 q 605 81 658 128 q 483 10 551 33 q 343 -14 414 -14 q 292 -10 315 -14 q 257 -4 269 -7 l 257 -283 q 247 -294 257 -293 q 205 -299 229 -297 q 158 -303 181 -301 q 118 -308 135 -306 q 99 -310 101 -310 q 89 -300 89 -310 l 89 992 q 100 1003 89 1003 l 246 1003 q 257 993 257 1003 l 257 675 m 369 556 q 305 550 329 556 q 257 538 281 544 l 257 142 q 303 130 281 133 q 353 126 326 126 q 428 139 392 126 q 492 178 464 151 q 535 247 519 206 q 551 349 551 289 q 502 503 551 450 q 369 556 453 556 z "},"¾":{"ha":1056,"x_min":44,"x_max":1025,"o":"m 254 -14 q 249 -6 243 -14 l 742 885 q 751 890 746 890 l 851 890 q 856 883 863 890 l 365 -7 q 360 -12 363 -10 q 353 -14 358 -14 l 254 -14 m 835 0 q 828 8 828 0 l 828 119 l 599 119 q 590 125 590 119 l 590 186 q 596 199 590 193 q 641 262 611 221 q 703 348 671 303 q 767 435 736 393 q 814 501 797 478 q 828 510 819 510 l 929 510 q 938 500 938 510 l 938 207 l 1019 207 q 1025 200 1025 207 l 1014 125 q 1007 119 1013 119 l 938 119 l 938 8 q 929 0 938 0 l 835 0 m 828 207 q 828 285 828 254 q 828 338 828 317 q 830 372 829 358 q 831 396 831 385 l 828 396 q 801 355 819 382 q 764 299 783 328 q 726 245 744 271 q 700 207 708 219 l 828 207 m 143 669 q 150 676 143 676 l 200 676 q 264 691 246 676 q 282 728 282 706 q 189 782 282 782 q 61 749 125 782 q 53 753 53 743 l 53 843 q 57 853 53 849 q 132 880 92 872 q 217 888 172 888 q 352 849 307 888 q 397 756 397 811 q 378 686 397 714 q 328 643 360 658 l 328 642 q 392 601 363 631 q 421 519 421 572 q 403 450 421 479 q 357 401 386 421 q 289 373 328 382 q 206 364 250 364 q 51 397 111 364 q 44 410 44 400 l 44 503 q 53 507 44 510 q 201 468 125 468 q 277 483 254 468 q 300 524 300 499 q 274 569 300 556 q 197 582 247 582 l 150 582 q 143 588 143 582 l 143 669 z "},"®":{"ha":336,"x_min":-6,"x_max":367,"o":"m 182 553 q 106 567 140 553 q 47 607 71 582 q 8 666 22 632 q -6 740 -6 700 q 8 813 -6 779 q 47 872 22 847 q 106 912 72 897 q 182 926 140 926 q 255 912 221 926 q 314 872 289 897 q 353 813 339 847 q 367 740 367 779 q 353 665 367 700 q 314 606 339 631 q 255 567 289 581 q 182 553 221 553 m 182 596 q 283 635 246 596 q 321 740 321 675 q 281 844 321 803 q 179 885 242 885 q 78 844 117 885 q 40 739 40 804 q 79 637 40 678 q 182 596 118 596 m 154 661 q 151 656 154 656 l 114 656 q 110 661 110 656 l 110 832 q 114 836 110 836 l 179 836 q 257 781 257 836 q 218 731 257 746 q 228 717 221 726 q 243 698 235 708 q 259 678 251 688 q 271 661 267 668 q 268 656 274 656 l 225 656 q 217 660 221 656 q 199 684 210 669 q 178 715 189 699 q 169 719 175 719 l 154 719 l 154 661 m 154 756 l 178 756 q 203 761 197 756 q 210 778 210 767 q 179 797 210 797 l 154 797 l 154 756 z "},"−":{"ha":765,"x_min":42,"x_max":724,"o":"m 42 411 q 51 422 42 422 l 714 422 q 724 413 724 422 l 724 313 q 714 301 724 301 l 51 301 q 42 314 42 301 l 42 411 l 42 411 z "},"ð":{"ha":763,"x_min":46,"x_max":710,"o":"m 382 126 q 494 179 449 126 q 540 344 540 232 q 537 394 540 376 q 528 425 533 411 q 522 438 525 432 q 515 447 518 443 q 463 485 494 471 q 388 500 432 500 q 265 453 313 500 q 217 314 217 406 q 228 241 217 275 q 262 181 240 207 q 314 141 283 156 q 382 126 344 126 m 528 829 q 663 632 615 746 q 710 379 710 518 q 685 210 710 283 q 615 86 660 136 q 507 11 569 36 q 368 -14 444 -14 q 224 15 285 -14 q 123 90 163 43 q 65 195 83 136 q 46 314 46 254 q 69 445 46 386 q 137 547 93 504 q 241 612 181 589 q 376 635 301 635 q 445 627 414 635 q 497 604 476 619 q 452 685 482 649 q 383 750 422 721 l 183 642 q 174 647 174 639 l 174 715 q 182 726 174 724 l 308 796 q 119 857 221 840 q 110 869 110 857 l 110 992 q 119 1003 110 1003 q 139 1003 126 1003 q 160 1000 151 1003 q 465 881 340 972 l 632 972 q 640 969 640 975 l 640 897 q 633 886 640 889 l 528 829 z "},"×":{"ha":771,"x_min":47,"x_max":724,"o":"m 119 696 q 136 696 126 703 l 386 435 l 638 696 q 645 700 642 699 q 654 696 649 701 l 717 629 q 717 614 724 619 l 464 357 l 718 99 q 722 93 721 97 q 718 85 724 89 l 653 19 q 644 15 647 14 q 636 19 640 17 l 385 278 l 135 19 q 130 14 132 17 q 122 18 128 11 l 53 86 q 56 101 47 93 l 307 357 l 54 615 q 51 622 53 618 q 56 631 50 625 l 119 696 z "},"©":{"ha":1056,"x_min":65,"x_max":989,"o":"m 65 458 q 101 641 65 557 q 199 787 136 725 q 345 884 261 849 q 528 919 429 919 q 710 884 625 919 q 856 787 794 849 q 953 640 918 725 q 989 457 989 556 q 953 270 989 356 q 856 124 918 185 q 710 28 794 63 q 528 -7 626 -7 q 344 28 429 -7 q 198 124 260 63 q 101 272 136 186 q 65 458 65 357 m 154 458 q 183 303 154 374 q 263 183 213 233 q 381 104 313 132 q 528 76 449 76 q 683 105 614 76 q 801 184 753 133 q 876 304 850 235 q 901 457 901 374 q 872 610 901 540 q 792 731 843 681 q 674 810 742 782 q 528 839 606 839 q 375 810 444 839 q 257 729 306 781 q 181 608 208 678 q 154 458 154 539 m 704 242 q 697 231 704 233 q 633 211 669 217 q 560 206 596 206 q 448 225 497 206 q 364 278 399 244 q 311 358 329 313 q 293 456 293 404 q 313 558 293 511 q 370 640 333 606 q 458 693 407 674 q 569 713 508 713 q 644 707 617 713 q 692 693 672 701 q 699 687 699 690 q 699 679 699 683 l 699 590 q 689 582 699 579 q 582 604 644 604 q 465 566 508 604 q 422 461 422 528 q 435 394 422 422 q 471 349 449 367 q 522 322 493 331 q 582 314 551 314 q 696 336 647 314 q 704 333 704 339 l 704 242 z "},"Á":{"ha":842,"x_min":4,"x_max":838,"o":"m 246 240 l 169 11 q 154 0 165 0 l 15 0 q 6 14 4 0 l 292 828 q 299 853 296 839 q 304 903 301 867 q 313 913 304 913 l 506 913 q 515 904 514 913 l 836 13 q 828 0 838 0 l 672 0 q 658 8 663 0 l 578 240 l 246 240 m 533 392 q 506 476 522 426 q 472 581 489 526 q 438 686 454 635 q 411 774 421 738 l 410 774 q 388 692 401 739 q 357 595 374 646 q 323 492 340 544 q 290 392 306 439 l 533 392 m 481 1156 q 496 1163 488 1163 l 672 1163 q 677 1158 676 1163 q 675 1150 678 1154 l 485 999 q 465 990 478 990 l 319 990 q 313 994 314 990 q 314 1000 311 997 l 481 1156 z "},"Â":{"ha":842,"x_min":4,"x_max":838,"o":"m 246 240 l 169 11 q 154 0 165 0 l 15 0 q 6 14 4 0 l 292 828 q 299 853 296 839 q 304 903 301 867 q 313 913 304 913 l 506 913 q 515 904 514 913 l 836 13 q 828 0 838 0 l 672 0 q 658 8 663 0 l 578 240 l 246 240 m 533 392 q 506 476 522 426 q 472 581 489 526 q 438 686 454 635 q 411 774 421 738 l 410 774 q 388 692 401 739 q 357 595 374 646 q 323 492 340 544 q 290 392 306 439 l 533 392 m 410 1081 l 322 990 q 308 982 315 982 l 183 982 q 178 987 179 982 q 179 994 176 992 l 336 1156 q 342 1160 339 1158 q 349 1161 344 1161 l 476 1161 q 492 1154 488 1161 l 654 992 q 649 982 661 982 l 514 982 q 497 990 503 982 l 410 1081 z "},"Ä":{"ha":842,"x_min":4,"x_max":838,"o":"m 246 240 l 169 11 q 154 0 165 0 l 15 0 q 6 14 4 0 l 292 828 q 299 853 296 839 q 304 903 301 867 q 313 913 304 913 l 506 913 q 515 904 514 913 l 836 13 q 828 0 838 0 l 672 0 q 658 8 663 0 l 578 240 l 246 240 m 533 392 q 506 476 522 426 q 472 581 489 526 q 438 686 454 635 q 411 774 421 738 l 410 774 q 388 692 401 739 q 357 595 374 646 q 323 492 340 544 q 290 392 306 439 l 533 392 m 265 990 q 201 1013 225 990 q 178 1072 178 1035 q 203 1132 178 1108 q 269 1156 229 1156 q 333 1132 310 1156 q 357 1072 357 1108 q 332 1013 357 1035 q 265 990 307 990 m 554 990 q 491 1013 515 990 q 467 1072 467 1035 q 492 1132 467 1108 q 558 1156 518 1156 q 622 1132 597 1156 q 646 1072 646 1108 q 621 1012 646 1033 q 554 990 596 990 z "},"À":{"ha":842,"x_min":4,"x_max":838,"o":"m 246 240 l 169 11 q 154 0 165 0 l 15 0 q 6 14 4 0 l 292 828 q 299 853 296 839 q 304 903 301 867 q 313 913 304 913 l 506 913 q 515 904 514 913 l 836 13 q 828 0 838 0 l 672 0 q 658 8 663 0 l 578 240 l 246 240 m 533 392 q 506 476 522 426 q 472 581 489 526 q 438 686 454 635 q 411 774 421 738 l 410 774 q 388 692 401 739 q 357 595 374 646 q 323 492 340 544 q 290 392 306 439 l 533 392 m 490 1007 q 483 996 499 996 l 346 996 q 335 997 339 996 q 325 1001 331 997 l 135 1154 q 139 1167 125 1167 l 313 1167 q 331 1160 324 1167 l 490 1007 z "},"Å":{"ha":842,"x_min":4,"x_max":838,"o":"m 246 240 l 169 11 q 154 0 165 0 l 15 0 q 6 14 4 0 l 292 828 q 299 853 296 839 q 304 903 301 867 q 313 913 304 913 l 506 913 q 515 904 514 913 l 836 13 q 828 0 838 0 l 672 0 q 658 8 663 0 l 578 240 l 246 240 m 533 392 q 506 476 522 426 q 472 581 489 526 q 438 686 454 635 q 411 774 421 738 l 410 774 q 388 692 401 739 q 357 595 374 646 q 323 492 340 544 q 290 392 306 439 l 533 392 m 260 1081 q 303 1174 260 1140 q 411 1207 346 1207 q 520 1173 478 1207 q 563 1081 563 1139 q 519 986 563 1019 q 411 953 476 953 q 302 986 344 953 q 260 1081 260 1019 m 349 1081 q 366 1040 349 1056 q 411 1025 383 1025 q 456 1040 439 1025 q 474 1081 474 1054 q 456 1121 474 1106 q 411 1136 439 1136 q 366 1121 383 1136 q 349 1081 349 1106 z "},"Ã":{"ha":842,"x_min":4,"x_max":838,"o":"m 246 240 l 169 11 q 154 0 165 0 l 15 0 q 6 14 4 0 l 292 828 q 299 853 296 839 q 304 903 301 867 q 313 913 304 913 l 506 913 q 515 904 514 913 l 836 13 q 828 0 838 0 l 672 0 q 658 8 663 0 l 578 240 l 246 240 m 533 392 q 506 476 522 426 q 472 581 489 526 q 438 686 454 635 q 411 774 421 738 l 410 774 q 388 692 401 739 q 357 595 374 646 q 323 492 340 544 q 290 392 306 439 l 533 392 m 190 986 q 179 996 179 986 q 222 1128 181 1086 q 321 1171 264 1171 q 380 1160 354 1171 q 426 1136 406 1149 q 465 1113 447 1124 q 501 1101 483 1101 q 530 1117 521 1101 q 542 1158 539 1133 q 550 1167 542 1167 l 642 1167 q 651 1158 651 1167 q 639 1075 650 1108 q 609 1022 628 1042 q 567 993 590 1001 q 517 985 543 985 q 460 995 485 985 q 414 1019 435 1006 q 374 1042 393 1032 q 336 1053 356 1053 q 308 1039 321 1053 q 292 994 294 1025 q 283 986 292 986 l 190 986 z "},"Ç":{"ha":774,"x_min":50,"x_max":736,"o":"m 728 29 q 718 11 728 15 q 634 -8 683 -1 q 526 -14 585 -14 q 344 15 431 -14 q 192 101 257 43 q 88 247 126 160 q 50 454 50 335 q 85 645 50 558 q 185 794 121 732 q 342 892 250 857 q 547 926 433 926 q 658 920 615 926 q 728 903 701 914 q 736 888 736 899 l 736 756 q 725 747 736 742 q 645 770 692 763 q 544 778 599 778 q 412 755 471 778 q 311 690 353 732 q 247 590 269 649 q 224 458 224 531 q 253 306 224 368 q 331 207 283 244 q 435 153 378 169 q 547 136 493 136 q 639 141 599 136 q 718 160 679 146 q 728 153 728 164 l 728 29 m 553 8 l 506 -56 q 594 -105 564 -74 q 624 -189 624 -136 q 578 -284 624 -247 q 458 -321 532 -321 q 401 -316 429 -321 q 356 -303 372 -311 q 349 -292 349 -300 l 349 -219 q 357 -212 349 -211 q 402 -227 376 -222 q 447 -232 428 -232 q 490 -222 474 -232 q 507 -190 507 -212 q 376 -125 507 -142 q 373 -107 374 -121 q 375 -89 372 -93 l 451 8 l 553 8 z "},"É":{"ha":736,"x_min":103,"x_max":704,"o":"m 681 11 q 668 0 679 0 l 115 0 q 103 11 103 0 l 103 901 q 114 913 103 913 l 650 913 q 663 903 661 913 l 678 774 q 668 761 681 761 l 271 761 l 271 540 l 632 540 q 642 531 642 540 l 642 399 q 632 390 642 390 l 271 390 l 271 151 l 692 151 q 701 140 704 151 l 681 11 m 443 1160 q 458 1167 450 1167 l 635 1167 q 640 1163 639 1167 q 638 1154 640 1158 l 447 1003 q 428 994 440 994 l 282 994 q 275 998 276 994 q 276 1004 274 1001 l 443 1160 z "},"Ê":{"ha":736,"x_min":103,"x_max":704,"o":"m 681 11 q 668 0 679 0 l 115 0 q 103 11 103 0 l 103 901 q 114 913 103 913 l 650 913 q 663 903 661 913 l 678 774 q 668 761 681 761 l 271 761 l 271 540 l 632 540 q 642 531 642 540 l 642 399 q 632 390 642 390 l 271 390 l 271 151 l 692 151 q 701 140 704 151 l 681 11 m 375 1088 l 288 997 q 274 989 281 989 l 149 989 q 143 994 144 989 q 144 1001 142 999 l 301 1163 q 307 1167 304 1165 q 314 1168 310 1168 l 442 1168 q 457 1161 453 1168 l 619 999 q 614 989 626 989 l 479 989 q 463 997 468 989 l 375 1088 z "},"Ë":{"ha":736,"x_min":103,"x_max":704,"o":"m 681 11 q 668 0 679 0 l 115 0 q 103 11 103 0 l 103 901 q 114 913 103 913 l 650 913 q 663 903 661 913 l 678 774 q 668 761 681 761 l 271 761 l 271 540 l 632 540 q 642 531 642 540 l 642 399 q 632 390 642 390 l 271 390 l 271 151 l 692 151 q 701 140 704 151 l 681 11 m 232 997 q 168 1019 192 997 q 144 1079 144 1042 q 170 1139 144 1115 q 236 1163 196 1163 q 300 1139 276 1163 q 324 1079 324 1115 q 299 1019 324 1042 q 232 997 274 997 m 521 997 q 458 1019 482 997 q 433 1079 433 1042 q 459 1139 433 1115 q 525 1163 485 1163 q 588 1139 564 1163 q 613 1079 613 1115 q 588 1019 613 1040 q 521 997 563 997 z "},"È":{"ha":736,"x_min":103,"x_max":704,"o":"m 681 11 q 668 0 679 0 l 115 0 q 103 11 103 0 l 103 901 q 114 913 103 913 l 650 913 q 663 903 661 913 l 678 774 q 668 761 681 761 l 271 761 l 271 540 l 632 540 q 642 531 642 540 l 642 399 q 632 390 642 390 l 271 390 l 271 151 l 692 151 q 701 140 704 151 l 681 11 m 478 1004 q 471 993 486 993 l 333 993 q 322 994 326 993 q 313 999 318 994 l 122 1151 q 126 1164 113 1164 l 300 1164 q 318 1157 311 1164 l 478 1004 z "},"Í":{"ha":375,"x_min":99,"x_max":465,"o":"m 271 13 q 260 0 271 0 l 114 0 q 103 13 103 0 l 103 901 q 114 913 103 913 l 260 913 q 271 901 271 913 l 271 13 m 268 1158 q 283 1165 275 1165 l 460 1165 q 465 1161 464 1165 q 463 1153 465 1157 l 272 1001 q 253 993 265 993 l 107 993 q 100 997 101 993 q 101 1003 99 1000 l 268 1158 z "},"Î":{"ha":375,"x_min":-51,"x_max":433,"o":"m 271 13 q 260 0 271 0 l 114 0 q 103 13 103 0 l 103 901 q 114 913 103 913 l 260 913 q 271 901 271 913 l 271 13 m 182 1078 l 94 988 q 81 979 88 979 l -44 979 q -50 984 -49 979 q -49 992 -51 989 l 108 1153 q 114 1157 111 1156 q 121 1158 117 1158 l 249 1158 q 264 1151 260 1158 l 426 989 q 421 979 433 979 l 286 979 q 269 988 275 979 l 182 1078 z "},"Ï":{"ha":375,"x_min":-46,"x_max":422,"o":"m 271 13 q 260 0 271 0 l 114 0 q 103 13 103 0 l 103 901 q 114 913 103 913 l 260 913 q 271 901 271 913 l 271 13 m 42 993 q -22 1015 1 993 q -46 1075 -46 1038 q -20 1135 -46 1111 q 46 1158 6 1158 q 110 1135 86 1158 q 133 1075 133 1111 q 108 1015 133 1038 q 42 993 83 993 m 331 993 q 267 1015 292 993 q 243 1075 243 1038 q 269 1135 243 1111 q 335 1158 294 1158 q 398 1135 374 1158 q 422 1075 422 1111 q 397 1015 422 1036 q 331 993 372 993 z "},"Ì":{"ha":375,"x_min":-97,"x_max":276,"o":"m 271 13 q 260 0 271 0 l 114 0 q 103 13 103 0 l 103 901 q 114 913 103 913 l 260 913 q 271 901 271 913 l 271 13 m 268 1008 q 261 997 276 997 l 124 997 q 113 998 117 997 q 103 1003 108 999 l -87 1156 q -83 1168 -97 1168 l 90 1168 q 108 1161 101 1168 l 268 1008 z "},"Ñ":{"ha":949,"x_min":103,"x_max":844,"o":"m 115 0 q 106 2 108 0 q 103 13 103 4 l 103 903 q 113 913 103 913 l 308 913 q 319 910 317 913 q 325 903 322 908 q 384 796 350 857 q 454 668 418 735 q 527 533 490 601 q 596 405 564 465 q 652 297 628 344 q 689 224 676 250 l 690 224 q 690 255 690 238 q 688 297 689 272 q 687 356 688 321 q 686 439 686 390 l 686 901 q 699 913 686 913 l 832 913 q 844 900 844 913 l 844 13 q 831 0 844 0 l 654 0 q 636 10 642 0 q 587 103 618 44 q 517 231 556 161 q 439 375 479 300 q 363 519 399 450 q 298 644 326 588 q 256 735 269 701 l 254 735 q 257 683 256 708 q 260 626 258 657 q 261 560 261 596 q 261 476 261 524 l 261 13 q 250 0 261 0 l 115 0 m 258 997 q 247 1007 247 997 q 290 1140 249 1097 q 389 1182 332 1182 q 448 1171 422 1182 q 494 1147 474 1160 q 533 1124 515 1135 q 569 1113 551 1113 q 598 1128 589 1113 q 610 1169 607 1144 q 618 1178 610 1178 l 710 1178 q 719 1169 719 1178 q 707 1086 718 1119 q 677 1033 696 1053 q 635 1004 658 1013 q 585 996 611 996 q 528 1006 553 996 q 482 1030 503 1017 q 442 1053 461 1043 q 404 1064 424 1064 q 376 1050 389 1064 q 360 1006 363 1036 q 351 997 360 997 l 258 997 z "},"Ó":{"ha":961,"x_min":50,"x_max":910,"o":"m 481 926 q 662 890 582 926 q 797 790 742 853 q 881 642 851 726 q 910 461 910 557 q 878 265 910 353 q 790 116 847 178 q 654 20 733 54 q 481 -14 575 -14 q 299 22 379 -14 q 164 120 219 57 q 79 269 108 183 q 50 457 50 356 q 81 643 50 557 q 169 792 113 729 q 306 890 226 854 q 481 926 385 926 m 224 457 q 240 331 224 390 q 290 228 257 272 q 373 160 324 185 q 486 135 422 135 q 591 158 544 135 q 670 223 638 181 q 719 325 703 265 q 736 457 736 385 q 719 589 736 529 q 668 690 701 649 q 587 755 635 732 q 478 778 539 778 q 376 756 422 778 q 295 694 329 735 q 242 594 261 654 q 224 457 224 533 m 536 1167 q 551 1174 543 1174 l 728 1174 q 733 1169 732 1174 q 731 1161 733 1165 l 540 1010 q 521 1001 533 1001 l 375 1001 q 368 1005 369 1001 q 369 1011 367 1008 l 536 1167 z "},"Ô":{"ha":961,"x_min":50,"x_max":910,"o":"m 481 926 q 662 890 582 926 q 797 790 742 853 q 881 642 851 726 q 910 461 910 557 q 878 265 910 353 q 790 116 847 178 q 654 20 733 54 q 481 -14 575 -14 q 299 22 379 -14 q 164 120 219 57 q 79 269 108 183 q 50 457 50 356 q 81 643 50 557 q 169 792 113 729 q 306 890 226 854 q 481 926 385 926 m 224 457 q 240 331 224 390 q 290 228 257 272 q 373 160 324 185 q 486 135 422 135 q 591 158 544 135 q 670 223 638 181 q 719 325 703 265 q 736 457 736 385 q 719 589 736 529 q 668 690 701 649 q 587 755 635 732 q 478 778 539 778 q 376 756 422 778 q 295 694 329 735 q 242 594 261 654 q 224 457 224 533 m 474 1092 l 386 1001 q 372 993 379 993 l 247 993 q 242 998 243 993 q 243 1006 240 1003 l 400 1167 q 406 1171 403 1169 q 413 1172 408 1172 l 540 1172 q 556 1165 551 1172 l 718 1003 q 713 993 725 993 l 578 993 q 561 1001 567 993 l 474 1092 z "},"Ö":{"ha":961,"x_min":50,"x_max":910,"o":"m 481 926 q 662 890 582 926 q 797 790 742 853 q 881 642 851 726 q 910 461 910 557 q 878 265 910 353 q 790 116 847 178 q 654 20 733 54 q 481 -14 575 -14 q 299 22 379 -14 q 164 120 219 57 q 79 269 108 183 q 50 457 50 356 q 81 643 50 557 q 169 792 113 729 q 306 890 226 854 q 481 926 385 926 m 224 457 q 240 331 224 390 q 290 228 257 272 q 373 160 324 185 q 486 135 422 135 q 591 158 544 135 q 670 223 638 181 q 719 325 703 265 q 736 457 736 385 q 719 589 736 529 q 668 690 701 649 q 587 755 635 732 q 478 778 539 778 q 376 756 422 778 q 295 694 329 735 q 242 594 261 654 q 224 457 224 533 m 333 1001 q 269 1024 293 1001 q 246 1083 246 1046 q 272 1143 246 1119 q 338 1167 297 1167 q 401 1143 378 1167 q 425 1083 425 1119 q 400 1024 425 1046 q 333 1001 375 1001 m 622 1001 q 559 1024 583 1001 q 535 1083 535 1046 q 560 1143 535 1119 q 626 1167 586 1167 q 690 1143 665 1167 q 714 1083 714 1119 q 689 1023 714 1044 q 622 1001 664 1001 z "},"Ò":{"ha":961,"x_min":50,"x_max":910,"o":"m 481 926 q 662 890 582 926 q 797 790 742 853 q 881 642 851 726 q 910 461 910 557 q 878 265 910 353 q 790 116 847 178 q 654 20 733 54 q 481 -14 575 -14 q 299 22 379 -14 q 164 120 219 57 q 79 269 108 183 q 50 457 50 356 q 81 643 50 557 q 169 792 113 729 q 306 890 226 854 q 481 926 385 926 m 224 457 q 240 331 224 390 q 290 228 257 272 q 373 160 324 185 q 486 135 422 135 q 591 158 544 135 q 670 223 638 181 q 719 325 703 265 q 736 457 736 385 q 719 589 736 529 q 668 690 701 649 q 587 755 635 732 q 478 778 539 778 q 376 756 422 778 q 295 694 329 735 q 242 594 261 654 q 224 457 224 533 m 578 1018 q 571 1007 586 1007 l 433 1007 q 422 1008 426 1007 q 413 1013 418 1008 l 222 1165 q 226 1178 213 1178 l 400 1178 q 418 1171 411 1178 l 578 1018 z "},"Õ":{"ha":961,"x_min":50,"x_max":910,"o":"m 481 926 q 662 890 582 926 q 797 790 742 853 q 881 642 851 726 q 910 461 910 557 q 878 265 910 353 q 790 116 847 178 q 654 20 733 54 q 481 -14 575 -14 q 299 22 379 -14 q 164 120 219 57 q 79 269 108 183 q 50 457 50 356 q 81 643 50 557 q 169 792 113 729 q 306 890 226 854 q 481 926 385 926 m 224 457 q 240 331 224 390 q 290 228 257 272 q 373 160 324 185 q 486 135 422 135 q 591 158 544 135 q 670 223 638 181 q 719 325 703 265 q 736 457 736 385 q 719 589 736 529 q 668 690 701 649 q 587 755 635 732 q 478 778 539 778 q 376 756 422 778 q 295 694 329 735 q 242 594 261 654 q 224 457 224 533 m 256 999 q 244 1008 244 999 q 288 1141 246 1099 q 386 1183 329 1183 q 445 1172 419 1183 q 492 1149 471 1161 q 531 1125 513 1136 q 567 1114 549 1114 q 595 1130 586 1114 q 607 1171 604 1146 q 615 1179 607 1179 l 707 1179 q 717 1171 717 1179 q 704 1088 715 1121 q 674 1034 693 1054 q 632 1006 656 1014 q 582 997 608 997 q 525 1008 550 997 q 479 1031 500 1018 q 440 1055 458 1044 q 401 1065 421 1065 q 373 1051 386 1065 q 357 1007 360 1038 q 349 999 357 999 l 256 999 z "},"Š":{"ha":689,"x_min":50,"x_max":640,"o":"m 303 -14 q 165 -1 226 -14 q 60 36 103 13 q 50 57 50 42 l 50 201 q 61 207 50 213 q 183 153 118 171 q 308 135 247 135 q 433 165 394 135 q 471 239 471 194 q 441 309 471 278 q 332 374 411 340 l 265 401 q 160 458 201 428 q 94 520 118 488 q 60 589 69 553 q 50 664 50 625 q 71 767 50 719 q 133 851 92 815 q 233 906 174 886 q 372 926 293 926 q 494 917 439 926 q 585 890 550 908 q 593 872 593 885 l 593 738 q 590 731 593 733 q 581 732 588 728 q 486 767 540 756 q 371 778 432 778 q 296 769 326 778 q 247 747 265 761 q 222 715 229 733 q 214 679 214 697 q 244 613 214 642 q 356 549 274 583 l 408 526 q 521 468 476 499 q 592 403 565 438 q 629 333 618 369 q 640 254 640 296 q 617 144 640 193 q 551 59 594 94 q 444 5 507 24 q 303 -14 382 -14 m 349 1082 l 435 1171 q 449 1179 440 1179 l 575 1179 q 580 1175 579 1179 q 578 1168 581 1171 l 422 1006 q 408 1001 417 1001 l 282 1001 q 265 1007 269 1001 l 103 1171 q 108 1179 97 1179 l 243 1179 q 253 1177 250 1179 q 261 1172 257 1175 l 349 1082 z "},"Ú":{"ha":906,"x_min":90,"x_max":815,"o":"m 258 354 q 307 194 258 254 q 456 135 356 135 q 532 146 497 135 q 592 183 567 157 q 633 251 618 208 q 647 357 647 293 l 647 900 q 658 913 647 913 l 804 913 q 815 901 815 913 l 815 349 q 787 183 815 251 q 710 70 758 114 q 594 6 661 26 q 450 -14 526 -14 q 301 8 368 -14 q 188 74 235 31 q 115 185 140 118 q 90 342 90 251 l 90 900 q 101 913 90 913 l 247 913 q 258 901 258 913 l 258 354 m 510 1156 q 525 1163 517 1163 l 701 1163 q 706 1158 706 1163 q 704 1150 707 1154 l 514 999 q 494 990 507 990 l 349 990 q 342 994 343 990 q 343 1000 340 997 l 510 1156 z "},"Û":{"ha":906,"x_min":90,"x_max":815,"o":"m 258 354 q 307 194 258 254 q 456 135 356 135 q 532 146 497 135 q 592 183 567 157 q 633 251 618 208 q 647 357 647 293 l 647 900 q 658 913 647 913 l 804 913 q 815 901 815 913 l 815 349 q 787 183 815 251 q 710 70 758 114 q 594 6 661 26 q 450 -14 526 -14 q 301 8 368 -14 q 188 74 235 31 q 115 185 140 118 q 90 342 90 251 l 90 900 q 101 913 90 913 l 247 913 q 258 901 258 913 l 258 354 m 450 1090 l 363 1000 q 349 992 356 992 l 224 992 q 218 997 219 992 q 219 1004 217 1001 l 376 1165 q 382 1169 379 1168 q 389 1171 385 1171 l 517 1171 q 532 1164 528 1171 l 694 1001 q 689 992 701 992 l 554 992 q 538 1000 543 992 l 450 1090 z "},"Ü":{"ha":906,"x_min":90,"x_max":815,"o":"m 258 354 q 307 194 258 254 q 456 135 356 135 q 532 146 497 135 q 592 183 567 157 q 633 251 618 208 q 647 357 647 293 l 647 900 q 658 913 647 913 l 804 913 q 815 901 815 913 l 815 349 q 787 183 815 251 q 710 70 758 114 q 594 6 661 26 q 450 -14 526 -14 q 301 8 368 -14 q 188 74 235 31 q 115 185 140 118 q 90 342 90 251 l 90 900 q 101 913 90 913 l 247 913 q 258 901 258 913 l 258 354 m 307 997 q 243 1019 267 997 q 219 1079 219 1042 q 245 1139 219 1115 q 311 1163 271 1163 q 375 1139 351 1163 q 399 1079 399 1115 q 374 1019 399 1042 q 307 997 349 997 m 596 997 q 533 1019 557 997 q 508 1079 508 1042 q 534 1139 508 1115 q 600 1163 560 1163 q 663 1139 639 1163 q 688 1079 688 1115 q 663 1019 688 1040 q 596 997 638 997 z "},"Ù":{"ha":906,"x_min":90,"x_max":815,"o":"m 258 354 q 307 194 258 254 q 456 135 356 135 q 532 146 497 135 q 592 183 567 157 q 633 251 618 208 q 647 357 647 293 l 647 900 q 658 913 647 913 l 804 913 q 815 901 815 913 l 815 349 q 787 183 815 251 q 710 70 758 114 q 594 6 661 26 q 450 -14 526 -14 q 301 8 368 -14 q 188 74 235 31 q 115 185 140 118 q 90 342 90 251 l 90 900 q 101 913 90 913 l 247 913 q 258 901 258 913 l 258 354 m 554 1007 q 547 996 563 996 l 410 996 q 399 997 403 996 q 389 1001 394 997 l 199 1154 q 203 1167 189 1167 l 376 1167 q 394 1160 388 1167 l 554 1007 z "},"Ý":{"ha":747,"x_min":-24,"x_max":772,"o":"m -19 900 q -20 910 -24 907 q -12 913 -17 913 l 156 913 q 164 910 163 913 q 168 906 165 908 q 261 726 224 799 q 323 606 299 653 q 361 531 347 558 q 382 485 375 503 q 404 531 390 503 q 442 608 418 560 q 501 728 465 656 q 589 904 536 800 q 600 913 590 913 l 763 913 q 768 901 772 913 l 467 364 q 456 322 456 346 l 456 13 q 443 0 456 0 l 301 0 q 288 13 288 0 l 288 328 q 286 349 288 342 q 278 368 285 357 l -19 900 m 438 1157 q 453 1164 444 1164 l 629 1164 q 634 1160 633 1164 q 632 1151 635 1156 l 442 1000 q 422 992 435 992 l 276 992 q 269 995 271 992 q 271 1001 268 999 l 438 1157 z "},"Ÿ":{"ha":747,"x_min":-24,"x_max":772,"o":"m -19 900 q -20 910 -24 907 q -12 913 -17 913 l 156 913 q 164 910 163 913 q 168 906 165 908 q 261 726 224 799 q 323 606 299 653 q 361 531 347 558 q 382 485 375 503 q 404 531 390 503 q 442 608 418 560 q 501 728 465 656 q 589 904 536 800 q 600 913 590 913 l 763 913 q 768 901 772 913 l 467 364 q 456 322 456 346 l 456 13 q 443 0 456 0 l 301 0 q 288 13 288 0 l 288 328 q 286 349 288 342 q 278 368 285 357 l -19 900 m 233 988 q 169 1010 193 988 q 146 1069 146 1032 q 172 1129 146 1106 q 238 1153 197 1153 q 301 1129 278 1153 q 325 1069 325 1106 q 300 1010 325 1032 q 233 988 275 988 m 522 988 q 459 1010 483 988 q 435 1069 435 1032 q 460 1129 435 1106 q 526 1153 486 1153 q 590 1129 565 1153 q 614 1069 614 1106 q 589 1009 614 1031 q 522 988 564 988 z "},"Ž":{"ha":760,"x_min":21,"x_max":747,"o":"m 32 0 q 21 11 21 0 l 21 104 q 22 114 21 111 q 25 121 22 117 l 507 763 l 42 763 q 32 772 31 763 l 53 901 q 65 913 54 913 l 711 913 q 719 904 719 913 l 719 804 q 713 785 719 793 l 239 151 l 736 151 q 743 139 747 151 l 721 11 q 708 0 719 0 l 32 0 m 378 1076 l 464 1165 q 478 1174 469 1174 l 604 1174 q 609 1169 608 1174 q 607 1163 610 1165 l 451 1000 q 438 996 446 996 l 311 996 q 294 1001 299 996 l 132 1165 q 138 1174 126 1174 l 272 1174 q 283 1172 279 1174 q 290 1167 286 1169 l 378 1076 z "},"á":{"ha":689,"x_min":40,"x_max":604,"o":"m 439 306 q 363 310 407 310 q 242 284 279 310 q 204 214 204 258 q 235 147 204 175 q 340 118 265 118 q 392 122 368 118 q 439 135 415 125 l 439 306 m 601 142 q 601 97 601 118 q 604 54 601 76 q 601 49 604 50 q 522 19 558 31 q 450 -1 485 7 q 381 -11 415 -8 q 313 -14 347 -14 q 206 -1 256 -14 q 120 41 157 13 q 62 113 83 69 q 40 214 40 156 q 64 310 40 269 q 129 379 88 351 q 228 421 171 407 q 353 435 285 435 q 407 434 385 435 q 439 432 429 433 l 439 449 q 434 478 439 461 q 415 513 429 496 q 372 541 400 529 q 299 553 344 553 q 117 514 197 553 q 110 514 114 513 q 106 522 106 515 l 106 643 q 114 657 106 651 q 213 688 158 678 q 325 699 268 699 q 449 677 397 699 q 535 619 501 656 q 585 532 569 582 q 601 424 601 482 l 601 142 m 379 976 q 394 989 385 989 l 554 989 q 563 976 568 989 l 393 779 q 375 771 385 771 l 246 771 q 240 774 242 771 q 242 781 239 778 l 379 976 z "},"â":{"ha":689,"x_min":40,"x_max":604,"o":"m 439 306 q 363 310 407 310 q 242 284 279 310 q 204 214 204 258 q 235 147 204 175 q 340 118 265 118 q 392 122 368 118 q 439 135 415 125 l 439 306 m 601 142 q 601 97 601 118 q 604 54 601 76 q 601 49 604 50 q 522 19 558 31 q 450 -1 485 7 q 381 -11 415 -8 q 313 -14 347 -14 q 206 -1 256 -14 q 120 41 157 13 q 62 113 83 69 q 40 214 40 156 q 64 310 40 269 q 129 379 88 351 q 228 421 171 407 q 353 435 285 435 q 407 434 385 435 q 439 432 429 433 l 439 449 q 434 478 439 461 q 415 513 429 496 q 372 541 400 529 q 299 553 344 553 q 117 514 197 553 q 110 514 114 513 q 106 522 106 515 l 106 643 q 114 657 106 651 q 213 688 158 678 q 325 699 268 699 q 449 677 397 699 q 535 619 501 656 q 585 532 569 582 q 601 424 601 482 l 601 142 m 332 901 l 244 775 q 233 771 242 771 l 128 771 q 122 782 114 771 l 263 976 q 274 983 265 983 l 397 983 q 410 976 406 983 l 554 781 q 549 771 558 771 l 433 771 q 419 776 424 771 l 332 901 z "},"ä":{"ha":689,"x_min":40,"x_max":604,"o":"m 439 306 q 363 310 407 310 q 242 284 279 310 q 204 214 204 258 q 235 147 204 175 q 340 118 265 118 q 392 122 368 118 q 439 135 415 125 l 439 306 m 601 142 q 601 97 601 118 q 604 54 601 76 q 601 49 604 50 q 522 19 558 31 q 450 -1 485 7 q 381 -11 415 -8 q 313 -14 347 -14 q 206 -1 256 -14 q 120 41 157 13 q 62 113 83 69 q 40 214 40 156 q 64 310 40 269 q 129 379 88 351 q 228 421 171 407 q 353 435 285 435 q 407 434 385 435 q 439 432 429 433 l 439 449 q 434 478 439 461 q 415 513 429 496 q 372 541 400 529 q 299 553 344 553 q 117 514 197 553 q 110 514 114 513 q 106 522 106 515 l 106 643 q 114 657 106 651 q 213 688 158 678 q 325 699 268 699 q 449 677 397 699 q 535 619 501 656 q 585 532 569 582 q 601 424 601 482 l 601 142 m 210 792 q 150 815 174 792 q 126 876 126 838 q 151 940 126 917 q 213 964 175 964 q 272 940 249 964 q 294 876 294 915 q 270 814 294 836 q 210 792 246 792 m 479 792 q 420 815 443 792 q 397 876 397 838 q 422 940 397 917 q 482 964 446 964 q 542 940 519 964 q 564 876 564 915 q 540 815 564 838 q 479 792 517 792 z "},"à":{"ha":689,"x_min":40,"x_max":604,"o":"m 439 306 q 363 310 407 310 q 242 284 279 310 q 204 214 204 258 q 235 147 204 175 q 340 118 265 118 q 392 122 368 118 q 439 135 415 125 l 439 306 m 601 142 q 601 97 601 118 q 604 54 601 76 q 601 49 604 50 q 522 19 558 31 q 450 -1 485 7 q 381 -11 415 -8 q 313 -14 347 -14 q 206 -1 256 -14 q 120 41 157 13 q 62 113 83 69 q 40 214 40 156 q 64 310 40 269 q 129 379 88 351 q 228 421 171 407 q 353 435 285 435 q 407 434 385 435 q 439 432 429 433 l 439 449 q 434 478 439 461 q 415 513 429 496 q 372 541 400 529 q 299 553 344 553 q 117 514 197 553 q 110 514 114 513 q 106 522 106 515 l 106 643 q 114 657 106 651 q 213 688 158 678 q 325 699 268 699 q 449 677 397 699 q 535 619 501 656 q 585 532 569 582 q 601 424 601 482 l 601 142 m 442 782 q 435 771 447 771 l 303 771 q 289 779 294 771 l 115 975 q 119 988 108 988 l 285 988 q 300 981 294 988 l 442 782 z "},"å":{"ha":689,"x_min":40,"x_max":604,"o":"m 439 306 q 363 310 407 310 q 242 284 279 310 q 204 214 204 258 q 235 147 204 175 q 340 118 265 118 q 392 122 368 118 q 439 135 415 125 l 439 306 m 601 142 q 601 97 601 118 q 604 54 601 76 q 601 49 604 50 q 522 19 558 31 q 450 -1 485 7 q 381 -11 415 -8 q 313 -14 347 -14 q 206 -1 256 -14 q 120 41 157 13 q 62 113 83 69 q 40 214 40 156 q 64 310 40 269 q 129 379 88 351 q 228 421 171 407 q 353 435 285 435 q 407 434 385 435 q 439 432 429 433 l 439 449 q 434 478 439 461 q 415 513 429 496 q 372 541 400 529 q 299 553 344 553 q 117 514 197 553 q 110 514 114 513 q 106 522 106 515 l 106 643 q 114 657 106 651 q 213 688 158 678 q 325 699 268 699 q 449 677 397 699 q 535 619 501 656 q 585 532 569 582 q 601 424 601 482 l 601 142 m 194 886 q 235 982 194 944 q 344 1019 276 1019 q 453 982 411 1019 q 494 886 494 944 q 453 787 494 824 q 344 750 411 750 q 235 786 276 750 q 194 886 194 822 m 282 886 q 300 842 282 858 q 344 826 318 826 q 388 842 369 826 q 406 886 406 858 q 388 930 406 914 q 344 946 369 946 q 300 930 318 946 q 282 886 282 914 z "},"ã":{"ha":689,"x_min":40,"x_max":604,"o":"m 439 306 q 363 310 407 310 q 242 284 279 310 q 204 214 204 258 q 235 147 204 175 q 340 118 265 118 q 392 122 368 118 q 439 135 415 125 l 439 306 m 601 142 q 601 97 601 118 q 604 54 601 76 q 601 49 604 50 q 522 19 558 31 q 450 -1 485 7 q 381 -11 415 -8 q 313 -14 347 -14 q 206 -1 256 -14 q 120 41 157 13 q 62 113 83 69 q 40 214 40 156 q 64 310 40 269 q 129 379 88 351 q 228 421 171 407 q 353 435 285 435 q 407 434 385 435 q 439 432 429 433 l 439 449 q 434 478 439 461 q 415 513 429 496 q 372 541 400 529 q 299 553 344 553 q 117 514 197 553 q 110 514 114 513 q 106 522 106 515 l 106 643 q 114 657 106 651 q 213 688 158 678 q 325 699 268 699 q 449 677 397 699 q 535 619 501 656 q 585 532 569 582 q 601 424 601 482 l 601 142 m 111 775 q 103 778 104 775 q 100 786 101 781 q 143 924 101 879 q 243 968 185 968 q 304 957 276 968 q 356 933 332 946 q 399 908 379 919 q 435 897 418 897 q 465 914 457 897 q 476 957 474 931 q 485 965 476 965 l 576 965 q 586 958 586 965 q 546 814 585 856 q 450 772 507 772 q 394 783 419 772 q 345 807 368 794 q 301 831 322 819 q 258 842 279 842 q 226 828 239 842 q 210 783 213 815 q 208 778 210 781 q 203 775 207 775 l 111 775 z "},"ç":{"ha":599,"x_min":44,"x_max":564,"o":"m 564 19 q 557 8 564 10 q 483 -10 524 -6 q 403 -14 443 -14 q 251 13 318 -14 q 139 88 185 40 q 69 201 93 136 q 44 340 44 265 q 72 483 44 417 q 150 597 100 549 q 270 672 200 644 q 426 699 340 699 q 509 694 479 699 q 557 683 539 690 q 564 668 564 679 l 563 544 q 551 536 563 533 q 501 549 529 544 q 432 554 472 554 q 276 500 336 554 q 217 346 217 446 q 235 249 217 289 q 285 185 254 210 q 354 148 315 160 q 433 136 393 136 q 502 140 471 136 q 554 150 533 143 q 564 143 564 154 l 564 19 m 438 8 l 390 -56 q 479 -105 450 -74 q 508 -189 508 -136 q 463 -283 508 -246 q 343 -321 417 -321 q 285 -316 314 -321 q 242 -303 257 -311 q 233 -286 233 -297 l 233 -221 q 243 -212 233 -211 q 288 -227 263 -222 q 332 -232 313 -232 q 375 -222 358 -232 q 392 -190 392 -212 q 261 -125 392 -142 q 258 -107 258 -121 q 260 -89 257 -93 l 336 8 l 438 8 z "},"é":{"ha":697,"x_min":44,"x_max":656,"o":"m 214 304 q 228 236 215 268 q 267 181 242 204 q 332 143 293 157 q 424 129 371 129 q 596 163 517 129 q 604 157 604 168 l 604 42 q 596 26 604 31 q 507 -3 556 7 q 388 -14 458 -14 q 227 17 293 -14 q 121 97 161 47 q 63 208 81 146 q 44 335 44 271 q 66 473 44 407 q 129 589 88 539 q 231 669 171 639 q 371 699 292 699 q 501 672 447 699 q 590 601 556 644 q 640 507 625 558 q 656 406 656 456 q 654 353 656 376 q 650 319 653 331 q 639 310 649 311 q 585 306 624 307 q 496 304 547 304 l 214 304 m 421 424 q 477 424 461 424 q 497 425 493 424 l 497 436 q 491 474 497 451 q 470 516 485 496 q 429 551 456 536 q 364 565 403 565 q 301 553 328 565 q 257 520 275 540 q 228 474 239 500 q 214 424 218 449 l 421 424 m 403 976 q 418 989 408 989 l 578 989 q 586 976 592 989 l 417 779 q 399 771 408 771 l 269 771 q 264 774 265 771 q 265 781 263 778 l 403 976 z "},"ê":{"ha":697,"x_min":44,"x_max":656,"o":"m 214 304 q 228 236 215 268 q 267 181 242 204 q 332 143 293 157 q 424 129 371 129 q 596 163 517 129 q 604 157 604 168 l 604 42 q 596 26 604 31 q 507 -3 556 7 q 388 -14 458 -14 q 227 17 293 -14 q 121 97 161 47 q 63 208 81 146 q 44 335 44 271 q 66 473 44 407 q 129 589 88 539 q 231 669 171 639 q 371 699 292 699 q 501 672 447 699 q 590 601 556 644 q 640 507 625 558 q 656 406 656 456 q 654 353 656 376 q 650 319 653 331 q 639 310 649 311 q 585 306 624 307 q 496 304 547 304 l 214 304 m 421 424 q 477 424 461 424 q 497 425 493 424 l 497 436 q 491 474 497 451 q 470 516 485 496 q 429 551 456 536 q 364 565 403 565 q 301 553 328 565 q 257 520 275 540 q 228 474 239 500 q 214 424 218 449 l 421 424 m 356 901 l 268 775 q 257 771 265 771 l 151 771 q 146 782 138 771 l 286 976 q 297 983 289 983 l 421 983 q 433 976 429 983 l 578 781 q 572 771 582 771 l 457 771 q 443 776 447 771 l 356 901 z "},"ë":{"ha":697,"x_min":44,"x_max":656,"o":"m 214 304 q 228 236 215 268 q 267 181 242 204 q 332 143 293 157 q 424 129 371 129 q 596 163 517 129 q 604 157 604 168 l 604 42 q 596 26 604 31 q 507 -3 556 7 q 388 -14 458 -14 q 227 17 293 -14 q 121 97 161 47 q 63 208 81 146 q 44 335 44 271 q 66 473 44 407 q 129 589 88 539 q 231 669 171 639 q 371 699 292 699 q 501 672 447 699 q 590 601 556 644 q 640 507 625 558 q 656 406 656 456 q 654 353 656 376 q 650 319 653 331 q 639 310 649 311 q 585 306 624 307 q 496 304 547 304 l 214 304 m 421 424 q 477 424 461 424 q 497 425 493 424 l 497 436 q 491 474 497 451 q 470 516 485 496 q 429 551 456 536 q 364 565 403 565 q 301 553 328 565 q 257 520 275 540 q 228 474 239 500 q 214 424 218 449 l 421 424 m 219 789 q 160 812 183 789 q 136 874 136 835 q 160 938 136 914 q 222 961 185 961 q 281 937 258 961 q 304 874 304 913 q 280 811 304 833 q 219 789 256 789 m 489 789 q 430 812 453 789 q 407 874 407 835 q 431 938 407 914 q 492 961 456 961 q 551 937 529 961 q 574 874 574 913 q 550 812 574 835 q 489 789 526 789 z "},"è":{"ha":697,"x_min":44,"x_max":656,"o":"m 214 304 q 228 236 215 268 q 267 181 242 204 q 332 143 293 157 q 424 129 371 129 q 596 163 517 129 q 604 157 604 168 l 604 42 q 596 26 604 31 q 507 -3 556 7 q 388 -14 458 -14 q 227 17 293 -14 q 121 97 161 47 q 63 208 81 146 q 44 335 44 271 q 66 473 44 407 q 129 589 88 539 q 231 669 171 639 q 371 699 292 699 q 501 672 447 699 q 590 601 556 644 q 640 507 625 558 q 656 406 656 456 q 654 353 656 376 q 650 319 653 331 q 639 310 649 311 q 585 306 624 307 q 496 304 547 304 l 214 304 m 421 424 q 477 424 461 424 q 497 425 493 424 l 497 436 q 491 474 497 451 q 470 516 485 496 q 429 551 456 536 q 364 565 403 565 q 301 553 328 565 q 257 520 275 540 q 228 474 239 500 q 214 424 218 449 l 421 424 m 464 782 q 457 771 469 771 l 325 771 q 311 779 317 771 l 138 975 q 142 988 131 988 l 307 988 q 322 981 317 988 l 464 782 z "},"í":{"ha":344,"x_min":88,"x_max":424,"o":"m 88 675 q 99 685 88 685 l 246 685 q 257 675 257 685 l 257 11 q 244 0 257 0 l 101 0 q 88 13 88 0 l 88 675 m 235 976 q 250 989 240 989 l 410 989 q 418 976 424 989 l 249 779 q 231 771 240 771 l 101 771 q 96 774 97 771 q 97 781 94 778 l 235 976 z "},"î":{"ha":344,"x_min":-49,"x_max":396,"o":"m 88 675 q 99 685 88 685 l 246 685 q 257 675 257 685 l 257 11 q 244 0 257 0 l 101 0 q 88 13 88 0 l 88 675 m 169 901 l 82 775 q 71 771 79 771 l -35 771 q -40 782 -49 771 l 100 976 q 111 983 103 983 l 235 983 q 247 976 243 983 l 392 781 q 386 771 396 771 l 271 771 q 257 776 261 771 l 169 901 z "},"ï":{"ha":344,"x_min":-44,"x_max":393,"o":"m 88 675 q 99 685 88 685 l 246 685 q 257 675 257 685 l 257 11 q 244 0 257 0 l 101 0 q 88 13 88 0 l 88 675 m 39 789 q -21 812 3 789 q -44 874 -44 835 q -20 938 -44 914 q 42 961 4 961 q 101 937 78 961 q 124 874 124 913 q 99 811 124 833 q 39 789 75 789 m 308 789 q 249 812 272 789 q 226 874 226 835 q 251 938 226 914 q 311 961 275 961 q 371 937 349 961 q 393 874 393 913 q 369 812 393 835 q 308 789 346 789 z "},"ì":{"ha":344,"x_min":-76,"x_max":263,"o":"m 88 675 q 99 685 88 685 l 246 685 q 257 675 257 685 l 257 11 q 244 0 257 0 l 101 0 q 88 13 88 0 l 88 675 m 257 782 q 250 771 263 771 l 118 771 q 104 779 110 771 l -69 975 q -65 988 -76 988 l 100 988 q 115 981 110 988 l 257 782 z "},"ñ":{"ha":765,"x_min":82,"x_max":678,"o":"m 88 525 q 87 565 88 543 q 85 607 86 586 q 84 646 85 628 q 82 675 83 664 q 92 685 82 685 l 218 685 q 235 675 231 685 q 240 652 238 665 q 244 622 242 639 q 446 699 336 699 q 526 687 485 699 q 601 644 567 675 q 656 560 635 614 q 678 424 678 507 l 678 13 q 667 0 678 0 l 522 0 q 510 13 510 0 l 510 408 q 481 515 510 478 q 390 553 451 553 q 256 496 308 553 l 256 11 q 244 0 256 0 l 99 0 q 88 11 88 0 l 88 525 m 146 776 q 138 779 139 776 q 135 788 136 782 q 178 925 136 881 q 278 969 219 969 q 339 958 311 969 q 390 934 367 947 q 433 910 414 921 q 469 899 453 899 q 500 915 492 899 q 511 958 508 932 q 519 967 511 967 l 611 967 q 621 960 621 967 q 581 815 619 857 q 485 774 542 774 q 428 785 454 774 q 380 808 403 796 q 335 832 357 821 q 293 843 314 843 q 260 830 274 843 q 244 785 247 817 q 243 779 244 782 q 238 776 242 776 l 146 776 z "},"ó":{"ha":756,"x_min":44,"x_max":713,"o":"m 382 699 q 524 670 463 699 q 628 594 586 642 q 691 481 669 546 q 713 346 713 417 q 688 199 713 265 q 619 85 664 132 q 514 12 575 38 q 379 -14 453 -14 q 228 17 292 -14 q 124 97 165 47 q 64 211 83 147 q 44 342 44 275 q 68 481 44 415 q 135 594 92 546 q 242 671 179 643 q 382 699 304 699 m 374 558 q 258 501 303 558 q 214 344 214 444 q 258 188 214 249 q 382 128 303 128 q 443 141 414 128 q 494 181 472 154 q 528 248 515 208 q 542 342 542 288 q 532 424 542 385 q 502 494 522 464 q 450 541 482 524 q 374 558 418 558 m 418 976 q 433 989 424 989 l 593 989 q 601 976 607 989 l 432 779 q 414 771 424 771 l 285 771 q 279 774 281 771 q 281 781 278 778 l 418 976 z "},"ô":{"ha":756,"x_min":44,"x_max":713,"o":"m 382 699 q 524 670 463 699 q 628 594 586 642 q 691 481 669 546 q 713 346 713 417 q 688 199 713 265 q 619 85 664 132 q 514 12 575 38 q 379 -14 453 -14 q 228 17 292 -14 q 124 97 165 47 q 64 211 83 147 q 44 342 44 275 q 68 481 44 415 q 135 594 92 546 q 242 671 179 643 q 382 699 304 699 m 374 558 q 258 501 303 558 q 214 344 214 444 q 258 188 214 249 q 382 128 303 128 q 443 141 414 128 q 494 181 472 154 q 528 248 515 208 q 542 342 542 288 q 532 424 542 385 q 502 494 522 464 q 450 541 482 524 q 374 558 418 558 m 371 901 l 283 775 q 272 771 281 771 l 167 771 q 161 782 153 771 l 301 976 q 313 983 304 983 l 436 983 q 449 976 444 983 l 593 781 q 588 771 597 771 l 472 771 q 458 776 463 771 l 371 901 z "},"ö":{"ha":756,"x_min":44,"x_max":713,"o":"m 382 699 q 524 670 463 699 q 628 594 586 642 q 691 481 669 546 q 713 346 713 417 q 688 199 713 265 q 619 85 664 132 q 514 12 575 38 q 379 -14 453 -14 q 228 17 292 -14 q 124 97 165 47 q 64 211 83 147 q 44 342 44 275 q 68 481 44 415 q 135 594 92 546 q 242 671 179 643 q 382 699 304 699 m 374 558 q 258 501 303 558 q 214 344 214 444 q 258 188 214 249 q 382 128 303 128 q 443 141 414 128 q 494 181 472 154 q 528 248 515 208 q 542 342 542 288 q 532 424 542 385 q 502 494 522 464 q 450 541 482 524 q 374 558 418 558 m 240 789 q 181 812 204 789 q 157 874 157 835 q 181 938 157 914 q 243 961 206 961 q 302 937 279 961 q 325 874 325 913 q 301 811 325 833 q 240 789 276 789 m 510 789 q 451 812 474 789 q 428 874 428 835 q 452 938 428 914 q 513 961 476 961 q 572 937 550 961 q 594 874 594 913 q 571 812 594 835 q 510 789 547 789 z "},"ò":{"ha":756,"x_min":44,"x_max":713,"o":"m 382 699 q 524 670 463 699 q 628 594 586 642 q 691 481 669 546 q 713 346 713 417 q 688 199 713 265 q 619 85 664 132 q 514 12 575 38 q 379 -14 453 -14 q 228 17 292 -14 q 124 97 165 47 q 64 211 83 147 q 44 342 44 275 q 68 481 44 415 q 135 594 92 546 q 242 671 179 643 q 382 699 304 699 m 374 558 q 258 501 303 558 q 214 344 214 444 q 258 188 214 249 q 382 128 303 128 q 443 141 414 128 q 494 181 472 154 q 528 248 515 208 q 542 342 542 288 q 532 424 542 385 q 502 494 522 464 q 450 541 482 524 q 374 558 418 558 m 475 782 q 468 771 481 771 l 336 771 q 322 779 328 771 l 149 975 q 153 988 142 988 l 318 988 q 333 981 328 988 l 475 782 z "},"õ":{"ha":756,"x_min":44,"x_max":713,"o":"m 382 699 q 524 670 463 699 q 628 594 586 642 q 691 481 669 546 q 713 346 713 417 q 688 199 713 265 q 619 85 664 132 q 514 12 575 38 q 379 -14 453 -14 q 228 17 292 -14 q 124 97 165 47 q 64 211 83 147 q 44 342 44 275 q 68 481 44 415 q 135 594 92 546 q 242 671 179 643 q 382 699 304 699 m 374 558 q 258 501 303 558 q 214 344 214 444 q 258 188 214 249 q 382 128 303 128 q 443 141 414 128 q 494 181 472 154 q 528 248 515 208 q 542 342 542 288 q 532 424 542 385 q 502 494 522 464 q 450 541 482 524 q 374 558 418 558 m 146 775 q 138 778 139 775 q 135 786 136 781 q 178 924 136 879 q 278 968 219 968 q 339 957 311 968 q 390 933 367 946 q 433 908 414 919 q 469 897 453 897 q 500 914 492 897 q 511 957 508 931 q 519 965 511 965 l 611 965 q 621 958 621 965 q 581 814 619 856 q 485 772 542 772 q 428 783 454 772 q 380 807 403 794 q 335 831 357 819 q 293 842 314 842 q 260 828 274 842 q 244 783 247 815 q 243 778 244 781 q 238 775 242 775 l 146 775 z "},"š":{"ha":556,"x_min":39,"x_max":519,"o":"m 469 524 q 390 553 438 542 q 296 564 342 564 q 219 545 240 564 q 197 504 197 526 q 219 463 197 481 q 307 418 240 444 q 472 323 425 374 q 519 199 519 272 q 447 43 519 100 q 246 -14 375 -14 q 133 -3 183 -14 q 50 25 82 7 q 40 40 40 31 l 40 172 q 51 179 40 185 q 149 137 96 150 q 250 124 203 124 q 331 140 304 124 q 357 185 357 157 q 333 231 357 211 q 244 276 310 250 q 85 369 131 318 q 39 494 39 419 q 55 571 39 533 q 103 636 71 608 q 185 681 136 664 q 299 699 233 699 q 404 691 360 699 q 474 671 449 683 q 482 654 482 665 l 482 532 q 469 524 482 519 m 278 853 l 364 979 q 375 983 368 983 l 482 983 q 486 972 494 983 l 347 778 q 335 771 342 771 l 213 771 q 199 778 203 771 l 56 974 q 55 981 53 978 q 61 983 57 983 l 176 983 q 190 978 185 983 l 278 853 z "},"ú":{"ha":757,"x_min":88,"x_max":678,"o":"m 668 153 q 671 65 668 99 q 676 10 674 32 q 665 0 678 0 l 538 0 q 524 8 525 0 q 518 33 521 19 q 514 57 515 46 q 419 1 469 15 q 321 -14 368 -14 q 228 0 271 -14 q 155 46 186 14 q 106 128 124 78 q 88 251 88 178 l 88 675 q 99 685 88 685 l 244 685 q 254 675 254 685 l 254 271 q 283 169 254 206 q 375 132 313 132 q 445 145 415 132 q 501 182 475 158 l 501 675 q 513 685 501 685 l 658 685 q 668 675 668 685 l 668 153 m 429 976 q 444 989 435 989 l 604 989 q 613 976 618 989 l 443 779 q 425 771 435 771 l 296 771 q 290 774 292 771 q 292 781 289 778 l 429 976 z "},"û":{"ha":757,"x_min":88,"x_max":678,"o":"m 668 153 q 671 65 668 99 q 676 10 674 32 q 665 0 678 0 l 538 0 q 524 8 525 0 q 518 33 521 19 q 514 57 515 46 q 419 1 469 15 q 321 -14 368 -14 q 228 0 271 -14 q 155 46 186 14 q 106 128 124 78 q 88 251 88 178 l 88 675 q 99 685 88 685 l 244 685 q 254 675 254 685 l 254 271 q 283 169 254 206 q 375 132 313 132 q 445 145 415 132 q 501 182 475 158 l 501 675 q 513 685 501 685 l 658 685 q 668 675 668 685 l 668 153 m 374 904 l 286 778 q 275 774 283 774 l 169 774 q 164 785 156 774 l 304 979 q 315 986 307 986 l 439 986 q 451 979 447 986 l 596 783 q 590 774 600 774 l 475 774 q 461 779 465 774 l 374 904 z "},"ü":{"ha":757,"x_min":88,"x_max":678,"o":"m 668 153 q 671 65 668 99 q 676 10 674 32 q 665 0 678 0 l 538 0 q 524 8 525 0 q 518 33 521 19 q 514 57 515 46 q 419 1 469 15 q 321 -14 368 -14 q 228 0 271 -14 q 155 46 186 14 q 106 128 124 78 q 88 251 88 178 l 88 675 q 99 685 88 685 l 244 685 q 254 675 254 685 l 254 271 q 283 169 254 206 q 375 132 313 132 q 445 145 415 132 q 501 182 475 158 l 501 675 q 513 685 501 685 l 658 685 q 668 675 668 685 l 668 153 m 249 789 q 189 812 213 789 q 165 874 165 835 q 190 938 165 914 q 251 961 214 961 q 310 937 288 961 q 333 874 333 913 q 309 811 333 833 q 249 789 285 789 m 518 789 q 459 812 482 789 q 436 874 436 835 q 460 938 436 914 q 521 961 485 961 q 581 937 558 961 q 603 874 603 913 q 579 812 603 835 q 518 789 556 789 z "},"ù":{"ha":757,"x_min":88,"x_max":678,"o":"m 668 153 q 671 65 668 99 q 676 10 674 32 q 665 0 678 0 l 538 0 q 524 8 525 0 q 518 33 521 19 q 514 57 515 46 q 419 1 469 15 q 321 -14 368 -14 q 228 0 271 -14 q 155 46 186 14 q 106 128 124 78 q 88 251 88 178 l 88 675 q 99 685 88 685 l 244 685 q 254 675 254 685 l 254 271 q 283 169 254 206 q 375 132 313 132 q 445 145 415 132 q 501 182 475 158 l 501 675 q 513 685 501 685 l 658 685 q 668 675 668 685 l 668 153 m 482 782 q 475 771 488 771 l 343 771 q 329 779 335 771 l 156 975 q 160 988 149 988 l 325 988 q 340 981 335 988 l 482 782 z "},"ý":{"ha":664,"x_min":-4,"x_max":667,"o":"m 172 685 q 185 676 182 685 q 290 365 253 481 q 340 199 326 250 q 413 417 375 304 q 497 676 450 531 q 513 685 501 685 l 656 685 q 664 674 667 685 q 581 433 626 558 q 487 185 535 308 q 390 -53 439 63 q 300 -265 342 -169 q 294 -272 297 -269 q 282 -275 290 -275 l 131 -286 q 124 -275 119 -286 q 188 -140 156 -212 q 254 13 221 -67 q 258 24 257 19 q 256 35 258 28 q 212 143 242 69 q 146 308 182 217 q 71 496 110 399 q 1 675 32 593 q 10 685 -4 685 l 172 685 m 382 976 q 397 989 388 989 l 557 989 q 565 976 571 989 l 396 779 q 378 771 388 771 l 249 771 q 243 774 244 771 q 244 781 242 778 l 382 976 z "},"ÿ":{"ha":664,"x_min":-4,"x_max":667,"o":"m 172 685 q 185 676 182 685 q 290 365 253 481 q 340 199 326 250 q 413 417 375 304 q 497 676 450 531 q 513 685 501 685 l 656 685 q 664 674 667 685 q 581 433 626 558 q 487 185 535 308 q 390 -53 439 63 q 300 -265 342 -169 q 294 -272 297 -269 q 282 -275 290 -275 l 131 -286 q 124 -275 119 -286 q 188 -140 156 -212 q 254 13 221 -67 q 258 24 257 19 q 256 35 258 28 q 212 143 242 69 q 146 308 182 217 q 71 496 110 399 q 1 675 32 593 q 10 685 -4 685 l 172 685 m 201 792 q 142 815 165 792 q 118 876 118 838 q 142 940 118 917 q 204 964 167 964 q 263 940 240 964 q 286 876 286 915 q 262 814 286 836 q 201 792 238 792 m 471 792 q 412 815 435 792 q 389 876 389 838 q 413 940 389 917 q 474 964 438 964 q 533 940 511 964 q 556 876 556 915 q 532 815 556 838 q 471 792 508 792 z "},"ž":{"ha":585,"x_min":15,"x_max":582,"o":"m 24 0 q 15 10 15 0 l 15 93 q 19 107 15 100 q 72 180 42 139 q 138 265 103 221 q 207 353 172 308 q 272 435 242 397 q 324 503 301 474 q 358 546 347 532 q 305 544 339 544 q 226 544 271 544 l 32 544 q 22 557 18 544 l 42 675 q 54 685 43 685 l 546 685 q 556 676 554 685 l 556 590 q 549 571 556 579 q 456 441 507 510 q 356 311 404 372 q 272 203 308 250 q 221 140 235 157 q 288 141 249 142 q 381 140 328 140 l 571 140 q 579 129 582 140 l 557 10 q 546 0 556 0 l 24 0 m 300 853 l 386 979 q 397 983 390 983 l 504 983 q 508 972 517 983 l 369 778 q 357 771 364 771 l 235 771 q 221 778 225 771 l 78 974 q 77 981 75 978 q 83 983 79 983 l 199 983 q 213 978 207 983 l 300 853 z "},"ℓ":{"ha":557,"x_min":25,"x_max":506,"o":"m 501 58 q 501 45 501 51 q 493 35 500 39 q 418 1 461 11 q 321 -8 375 -8 q 219 11 260 -8 q 153 61 178 31 q 117 131 128 92 q 107 210 107 169 l 107 218 q 74 194 93 207 q 38 169 56 181 q 25 176 25 163 l 25 283 q 27 293 25 290 q 33 299 29 296 q 106 353 64 318 l 106 617 q 123 768 106 706 q 169 870 140 831 q 238 928 199 910 q 322 946 278 946 q 402 929 368 946 q 459 883 436 913 q 494 815 482 854 q 506 728 506 775 q 491 622 506 672 q 446 520 476 571 q 366 418 415 469 q 249 310 317 367 l 249 285 q 364 132 247 132 q 435 144 404 132 q 489 174 465 156 q 501 168 501 183 l 501 58 m 249 465 q 351 602 321 539 q 381 728 381 665 q 322 826 381 826 q 294 818 307 826 q 270 790 281 810 q 254 735 260 769 q 249 647 249 700 l 249 465 z "},"№":{"ha":1365,"x_min":90,"x_max":1318,"o":"m 100 0 q 90 11 90 0 l 90 869 q 99 879 90 879 l 272 879 q 286 869 281 879 q 369 706 325 790 q 455 538 413 622 q 537 374 497 454 q 608 221 576 293 l 610 221 q 606 298 608 244 q 604 431 604 351 l 604 871 q 613 879 604 879 l 742 879 q 749 871 749 879 l 749 11 q 739 0 749 0 l 567 0 q 553 10 557 0 q 469 181 513 94 q 382 354 425 268 q 299 525 339 440 q 225 689 258 610 l 224 689 q 231 586 229 649 q 233 440 233 524 l 233 8 q 231 1 233 1 q 224 0 229 0 l 100 0 m 1072 842 q 1176 820 1131 842 q 1253 762 1222 799 q 1301 674 1285 725 q 1318 565 1318 624 q 1300 447 1318 500 q 1249 358 1282 394 q 1169 303 1215 322 q 1069 283 1124 283 q 952 308 1000 283 q 874 371 904 332 q 829 460 843 410 q 815 561 815 510 q 834 675 815 624 q 887 763 853 726 q 968 821 921 800 q 1072 842 1015 842 m 1067 724 q 985 683 1015 724 q 954 568 954 643 q 983 453 954 501 q 1072 406 1011 406 q 1148 441 1115 406 q 1181 561 1181 476 q 1174 623 1181 593 q 1155 675 1168 653 q 1119 710 1142 697 q 1067 724 1097 724 m 1275 222 q 1283 221 1282 222 q 1283 214 1283 219 l 1283 135 q 1275 125 1283 125 l 863 125 q 853 135 853 125 l 853 214 q 863 222 853 222 l 1275 222 z "},"℗":{"ha":1056,"x_min":65,"x_max":989,"o":"m 385 219 q 378 226 378 219 l 378 690 q 383 697 378 697 l 546 697 q 635 684 597 697 q 697 648 674 671 q 733 595 721 625 q 744 532 744 565 q 728 458 744 490 q 685 403 713 425 q 622 371 658 382 q 543 360 585 360 l 486 360 l 486 226 q 481 219 486 219 l 385 219 m 486 453 l 535 453 q 574 456 556 453 q 605 467 592 458 q 626 490 618 475 q 635 529 635 506 q 610 587 635 569 q 539 604 585 604 l 486 604 l 486 453 m 65 458 q 101 641 65 557 q 199 787 136 725 q 345 884 261 849 q 528 919 429 919 q 710 884 625 919 q 856 787 794 849 q 953 640 918 725 q 989 457 989 556 q 953 270 989 356 q 856 124 918 185 q 710 28 794 63 q 528 -7 626 -7 q 344 28 429 -7 q 198 124 260 63 q 101 272 136 186 q 65 458 65 357 m 154 458 q 183 303 154 374 q 263 183 213 233 q 381 104 313 132 q 528 76 449 76 q 683 105 614 76 q 801 184 753 133 q 876 304 850 235 q 901 457 901 374 q 872 610 901 540 q 792 731 843 681 q 674 810 742 782 q 528 839 606 839 q 375 810 444 839 q 257 729 306 781 q 181 608 208 678 q 154 458 154 539 z "},"℠":{"ha":494,"x_min":-7,"x_max":490,"o":"m -7 749 q 0 751 -7 754 q 41 734 18 740 q 83 728 64 728 q 108 733 101 728 q 114 743 114 738 q 106 756 114 750 q 75 769 99 763 q 13 802 31 785 q -6 847 -6 819 q 17 898 -6 878 q 90 918 40 918 q 160 903 133 918 q 164 896 164 900 l 164 849 q 157 846 164 842 q 125 858 143 853 q 88 864 107 864 q 64 860 69 864 q 58 850 58 857 q 67 838 58 843 q 104 824 76 832 q 161 794 144 811 q 178 746 178 778 q 147 690 178 707 q 78 674 115 674 q 35 678 57 674 q -1 692 14 683 q -7 700 -7 694 l -7 749 m 321 683 q 314 688 318 683 q 288 803 299 750 q 274 869 276 856 l 272 869 q 271 803 272 851 q 267 682 269 756 q 263 678 267 678 l 213 678 q 207 682 207 678 l 222 908 q 229 913 222 913 l 307 913 q 314 908 313 913 q 338 813 328 856 q 350 753 347 771 l 353 753 q 357 774 353 758 q 367 812 361 790 q 380 859 372 833 q 396 911 388 885 q 401 913 396 913 l 475 913 q 482 908 482 913 l 490 683 q 485 678 490 678 l 432 678 q 426 683 426 678 q 426 759 426 735 q 426 797 426 783 q 426 823 426 810 q 428 867 426 836 l 425 867 q 419 842 424 860 q 409 800 415 825 q 394 747 403 775 q 378 689 386 718 q 374 683 375 683 l 321 683 z "},"Ω":{"ha":983,"x_min":17,"x_max":968,"o":"m 38 0 q 26 11 26 0 l 17 142 q 26 153 17 153 l 236 153 q 178 211 207 178 q 128 288 150 244 q 93 387 107 332 q 79 510 79 442 q 108 669 79 593 q 192 802 138 744 q 324 893 246 860 q 503 926 403 926 q 678 892 603 926 q 803 801 753 858 q 878 668 853 743 q 903 511 903 593 q 889 392 903 446 q 852 293 875 338 q 800 213 829 249 q 739 151 771 178 l 958 151 q 968 142 968 151 l 953 11 q 942 0 953 0 l 560 0 q 549 11 549 0 l 549 128 q 557 142 549 136 q 685 284 638 200 q 732 493 732 368 q 717 608 732 556 q 673 699 703 661 q 598 758 643 736 q 492 779 553 779 q 385 757 431 779 q 310 696 340 735 q 264 604 279 657 q 249 490 249 551 q 263 376 249 429 q 302 281 278 324 q 358 203 326 238 q 426 143 390 168 q 435 129 435 138 l 435 13 q 424 0 435 0 l 38 0 z "},"℮":{"ha":1111,"x_min":53,"x_max":1053,"o":"m 243 429 q 236 424 236 429 l 236 178 q 239 163 236 169 q 247 150 242 157 q 385 53 307 89 q 554 18 463 18 q 733 58 650 18 q 875 167 817 99 l 949 167 q 777 40 881 88 q 553 -8 674 -8 q 358 27 449 -8 q 199 124 267 63 q 92 267 132 185 q 53 440 53 349 q 92 616 53 533 q 199 760 132 699 q 358 856 267 821 q 553 892 449 892 q 747 856 656 892 q 906 760 838 821 q 1013 616 974 699 q 1053 440 1053 533 l 1053 429 l 243 429 m 871 708 q 857 736 871 722 q 721 830 799 796 q 554 864 643 864 q 385 828 463 864 q 249 732 308 793 q 236 701 236 719 l 236 461 q 238 456 236 460 q 243 453 240 453 l 863 453 q 869 456 868 453 q 871 461 871 460 l 871 708 z "},"∂":{"ha":704,"x_min":53,"x_max":647,"o":"m 354 406 q 242 369 283 406 q 200 268 200 333 q 243 165 200 199 q 344 131 286 131 q 461 184 422 131 q 499 325 500 238 q 486 356 499 343 q 432 392 467 378 q 354 406 397 406 m 96 894 q 103 903 96 901 q 124 906 113 906 q 150 906 135 906 q 376 865 282 906 q 531 755 471 825 q 619 590 592 685 q 647 386 647 496 q 565 89 647 190 q 339 -12 483 -12 q 211 10 265 -12 q 122 72 157 33 q 69 159 86 110 q 53 263 53 208 q 74 378 53 326 q 133 467 96 431 q 224 524 171 504 q 339 544 276 544 q 433 533 397 544 q 489 506 469 521 q 456 606 482 560 q 385 687 429 653 q 279 740 342 721 q 138 758 217 758 l 104 758 q 98 759 100 758 q 96 767 96 760 l 96 894 z "},"∆":{"ha":836,"x_min":22,"x_max":813,"o":"m 32 0 q 22 10 22 0 l 22 106 q 24 117 22 111 q 26 125 25 122 l 292 826 q 298 857 296 840 q 301 904 300 874 q 310 913 303 913 l 504 913 q 515 906 511 913 l 808 126 q 812 115 811 121 q 813 103 813 110 l 813 11 q 812 3 813 6 q 804 0 811 0 l 32 0 m 629 151 q 591 258 613 199 q 547 379 569 317 q 501 503 524 442 q 460 616 479 564 q 428 707 442 668 q 410 763 414 746 l 407 763 q 378 671 400 736 q 324 520 356 606 q 258 338 293 435 q 192 151 222 240 l 629 151 z "},"∏":{"ha":885,"x_min":104,"x_max":779,"o":"m 622 -132 q 613 -121 613 -132 l 613 760 l 271 760 l 271 -121 q 261 -132 271 -132 l 114 -132 q 104 -121 104 -132 l 104 904 q 113 913 104 913 l 772 913 q 779 903 779 913 l 779 -121 q 771 -132 779 -132 l 622 -132 z "},"∑":{"ha":640,"x_min":28,"x_max":638,"o":"m 579 913 q 590 901 590 913 l 604 774 q 603 763 606 765 q 593 761 600 761 l 211 761 l 451 392 q 451 376 458 383 l 199 15 l 626 15 q 635 4 638 15 l 617 -126 q 604 -136 614 -136 l 38 -136 q 28 -128 28 -136 l 28 -24 q 32 -7 28 -12 l 296 372 l 39 774 q 35 781 38 775 q 33 796 33 786 l 33 900 q 42 913 33 913 l 579 913 l 579 913 z "},"√":{"ha":721,"x_min":19,"x_max":719,"o":"m 479 -190 q 469 -199 475 -199 l 347 -199 q 335 -190 339 -199 l 169 301 l 60 257 q 47 263 51 253 l 22 339 q 28 350 19 349 l 251 442 q 261 436 258 446 l 347 158 q 383 30 371 83 q 403 -60 396 -24 l 404 -60 q 409 -8 406 -40 q 418 63 413 24 q 431 147 424 103 q 446 235 438 190 l 594 1060 q 604 1071 597 1071 l 711 1071 q 717 1061 719 1071 l 479 -190 z "},"∞":{"ha":1028,"x_min":42,"x_max":985,"o":"m 760 138 q 690 150 722 138 q 627 183 657 163 q 569 229 597 203 q 514 283 542 256 q 459 232 486 258 q 401 185 432 206 q 333 151 369 164 q 254 138 297 138 q 168 154 207 138 q 101 200 129 171 q 57 269 72 229 q 42 358 42 310 q 58 441 42 401 q 103 511 74 481 q 173 559 132 542 q 265 576 214 576 q 338 563 304 576 q 403 528 372 550 q 463 481 435 507 q 515 429 490 454 q 569 482 542 456 q 626 529 596 508 q 692 563 657 550 q 772 576 728 576 q 858 560 819 576 q 926 514 897 543 q 969 445 954 485 q 985 358 985 406 q 968 274 985 314 q 922 203 951 233 q 851 156 893 174 q 760 138 810 138 m 763 242 q 843 276 810 242 q 876 358 876 310 q 844 440 876 407 q 765 474 813 474 q 713 463 738 474 q 666 436 689 453 q 623 399 643 419 q 583 360 603 379 q 624 318 604 339 q 665 281 644 297 q 710 253 686 264 q 763 242 733 242 m 264 240 q 315 251 290 240 q 363 278 340 261 q 405 315 385 294 q 444 356 425 336 q 407 394 426 374 q 365 432 388 414 q 319 462 343 450 q 267 474 294 474 q 184 439 215 474 q 153 358 153 404 q 184 274 153 307 q 264 240 215 240 z "},"∫":{"ha":458,"x_min":0,"x_max":461,"o":"m 461 911 q 451 904 461 900 q 424 912 440 908 q 388 915 407 915 q 333 899 353 915 q 303 853 313 882 q 291 787 293 825 q 289 706 289 749 q 294 573 289 651 q 304 410 299 494 q 315 242 310 325 q 319 92 319 158 q 311 -31 319 25 q 281 -127 303 -86 q 218 -191 258 -168 q 114 -214 178 -214 q 54 -207 82 -214 q 8 -192 26 -200 q 0 -176 0 -187 l 0 -58 q 8 -51 0 -46 q 58 -68 35 -64 q 96 -72 81 -72 q 164 -36 146 -72 q 182 100 182 0 q 177 250 182 165 q 167 423 172 335 q 158 595 163 511 q 153 743 153 679 q 162 859 153 803 q 196 958 171 915 q 263 1026 221 1000 q 372 1051 306 1051 q 453 1038 428 1051 q 461 1025 461 1035 l 461 911 z "},"≈":{"ha":776,"x_min":49,"x_max":726,"o":"m 60 397 q 51 403 51 397 q 92 542 49 490 q 218 593 135 593 q 311 581 269 593 q 411 546 353 569 q 490 516 461 526 q 547 506 519 506 q 594 522 579 506 q 610 582 608 538 q 619 588 610 588 l 715 588 q 725 582 725 588 q 685 438 726 486 q 567 390 644 390 q 518 393 540 390 q 474 401 496 396 q 428 417 453 407 q 372 439 404 426 q 294 469 324 458 q 236 479 264 479 q 189 464 208 479 q 167 401 169 449 q 157 397 167 397 l 60 397 m 60 131 q 51 136 51 131 q 92 276 49 225 q 218 328 135 328 q 311 315 269 328 q 411 281 353 303 q 490 251 461 261 q 547 240 519 240 q 594 256 579 240 q 610 317 608 272 q 619 321 610 321 l 715 321 q 725 317 725 321 q 685 173 726 221 q 565 125 644 125 q 520 128 542 125 q 476 136 499 131 q 429 151 454 142 q 372 172 404 160 q 294 203 324 193 q 236 214 264 214 q 189 198 208 214 q 167 136 169 182 q 157 131 167 131 l 60 131 z "},"≠":{"ha":763,"x_min":42,"x_max":722,"o":"m 492 436 l 406 288 l 711 288 q 722 276 722 288 l 722 179 q 708 168 722 168 l 336 168 l 261 38 q 257 32 258 33 q 249 31 256 31 l 144 31 q 140 40 135 31 l 214 168 l 51 168 q 42 179 42 168 l 42 278 q 51 288 42 288 l 282 288 l 368 436 l 53 436 q 42 447 42 436 l 42 546 q 53 556 42 556 l 436 556 l 513 689 q 528 697 518 697 l 629 697 q 636 688 639 697 l 560 556 l 713 556 q 722 547 722 556 l 722 447 q 710 436 722 436 l 492 436 z "},"≤":{"ha":757,"x_min":83,"x_max":674,"o":"m 83 543 q 85 551 83 550 q 90 556 86 553 l 663 818 q 674 813 674 822 l 674 703 q 664 690 674 694 l 219 497 l 219 494 l 665 300 q 672 296 669 297 q 674 288 674 294 l 674 182 q 664 172 674 171 l 90 436 q 83 449 83 442 l 83 543 m 665 121 q 674 108 674 121 l 674 10 q 663 0 674 0 l 93 0 q 83 11 83 0 l 83 111 q 93 121 83 121 l 665 121 z "},"≥":{"ha":757,"x_min":83,"x_max":674,"o":"m 674 449 q 667 436 674 439 l 94 174 q 83 178 83 169 l 83 289 q 93 301 83 296 l 536 494 l 536 497 l 92 692 q 83 704 83 693 l 83 810 q 93 819 83 821 l 667 556 q 674 543 674 550 l 674 449 m 665 121 q 674 108 674 121 l 674 10 q 663 0 674 0 l 93 0 q 83 11 83 0 l 83 111 q 93 121 83 121 l 665 121 z "},"Ă":{"ha":842,"x_min":4,"x_max":838,"o":"m 246 240 l 169 11 q 154 0 165 0 l 15 0 q 6 14 4 0 l 292 828 q 299 853 296 839 q 304 903 301 867 q 313 913 304 913 l 506 913 q 515 904 514 913 l 836 13 q 828 0 838 0 l 672 0 q 658 8 663 0 l 578 240 l 246 240 m 533 392 q 506 476 522 426 q 472 581 489 526 q 438 686 454 635 q 411 774 421 738 l 410 774 q 388 692 401 739 q 357 595 374 646 q 323 492 340 544 q 290 392 306 439 l 533 392 m 303 1188 q 314 1178 310 1188 q 351 1127 326 1146 q 413 1108 376 1108 q 474 1125 447 1108 q 513 1179 500 1142 q 524 1188 518 1188 l 638 1188 q 646 1183 644 1188 q 646 1175 647 1178 q 565 1033 629 1082 q 413 983 500 983 q 260 1031 324 983 q 181 1176 196 1078 q 189 1188 178 1188 l 303 1188 z "},"Ā":{"ha":842,"x_min":4,"x_max":838,"o":"m 246 240 l 169 11 q 154 0 165 0 l 15 0 q 6 14 4 0 l 292 828 q 299 853 296 839 q 304 903 301 867 q 313 913 304 913 l 506 913 q 515 904 514 913 l 836 13 q 828 0 838 0 l 672 0 q 658 8 663 0 l 578 240 l 246 240 m 533 392 q 506 476 522 426 q 472 581 489 526 q 438 686 454 635 q 411 774 421 738 l 410 774 q 388 692 401 739 q 357 595 374 646 q 323 492 340 544 q 290 392 306 439 l 533 392 m 610 1139 q 618 1129 618 1139 l 618 1022 q 610 1013 618 1013 l 219 1013 q 207 1022 207 1013 l 207 1128 q 217 1139 207 1139 l 610 1139 z "},"Ą":{"ha":842,"x_min":4,"x_max":874,"o":"m 533 392 q 506 476 522 426 q 472 581 489 526 q 438 686 454 635 q 411 775 421 738 l 410 775 q 388 694 401 740 q 357 596 374 647 q 323 492 340 544 q 290 392 306 439 l 533 392 m 578 240 l 246 240 l 168 11 q 154 0 167 0 l 15 0 q 6 14 4 0 l 292 828 q 299 853 296 839 q 304 903 301 867 q 313 913 304 913 l 506 913 q 515 904 514 913 l 833 19 q 826 0 839 6 q 724 -122 724 -58 q 744 -166 724 -149 q 803 -183 764 -183 q 838 -181 822 -183 q 863 -175 853 -178 q 874 -182 874 -172 l 874 -271 q 864 -290 874 -286 q 816 -306 846 -301 q 750 -311 786 -311 q 686 -304 718 -311 q 628 -280 654 -297 q 585 -235 601 -262 q 568 -165 568 -207 q 595 -78 568 -121 q 674 3 622 -36 q 656 17 663 4 l 578 240 z "},"Ć":{"ha":774,"x_min":50,"x_max":736,"o":"m 728 29 q 718 11 728 15 q 634 -8 683 -1 q 526 -14 585 -14 q 344 15 431 -14 q 192 101 257 43 q 88 247 126 160 q 50 454 50 335 q 85 645 50 558 q 185 794 121 732 q 342 892 250 857 q 547 926 433 926 q 658 920 615 926 q 728 903 701 914 q 736 888 736 899 l 736 756 q 725 747 736 742 q 645 770 692 763 q 544 778 599 778 q 412 755 471 778 q 311 690 353 732 q 247 590 269 649 q 224 458 224 531 q 253 306 224 368 q 331 207 283 244 q 435 153 378 169 q 547 136 493 136 q 639 141 599 136 q 718 160 679 146 q 728 153 728 164 l 728 29 m 532 1176 q 547 1183 539 1183 l 724 1183 q 728 1179 728 1183 q 726 1171 729 1175 l 536 1019 q 517 1011 529 1011 l 371 1011 q 364 1015 365 1011 q 365 1021 363 1018 l 532 1176 z "},"Č":{"ha":774,"x_min":50,"x_max":736,"o":"m 728 29 q 718 11 728 15 q 634 -8 683 -1 q 526 -14 585 -14 q 344 15 431 -14 q 192 101 257 43 q 88 247 126 160 q 50 454 50 335 q 85 645 50 558 q 185 794 121 732 q 342 892 250 857 q 547 926 433 926 q 658 920 615 926 q 728 903 701 914 q 736 888 736 899 l 736 756 q 725 747 736 742 q 645 770 692 763 q 544 778 599 778 q 412 755 471 778 q 311 690 353 732 q 247 590 269 649 q 224 458 224 531 q 253 306 224 368 q 331 207 283 244 q 435 153 378 169 q 547 136 493 136 q 639 141 599 136 q 718 160 679 146 q 728 153 728 164 l 728 29 m 479 1083 l 565 1172 q 579 1181 571 1181 l 706 1181 q 710 1176 710 1181 q 708 1169 711 1172 l 553 1007 q 539 1003 547 1003 l 413 1003 q 396 1008 400 1003 l 233 1172 q 239 1181 228 1181 l 374 1181 q 384 1178 381 1181 q 392 1174 388 1176 l 479 1083 z "},"Ĉ":{"ha":774,"x_min":50,"x_max":736,"o":"m 728 29 q 718 11 728 15 q 634 -8 683 -1 q 526 -14 585 -14 q 344 15 431 -14 q 192 101 257 43 q 88 247 126 160 q 50 454 50 335 q 85 645 50 558 q 185 794 121 732 q 342 892 250 857 q 547 926 433 926 q 658 920 615 926 q 728 903 701 914 q 736 888 736 899 l 736 756 q 725 747 736 742 q 645 770 692 763 q 544 778 599 778 q 412 755 471 778 q 311 690 353 732 q 247 590 269 649 q 224 458 224 531 q 253 306 224 368 q 331 207 283 244 q 435 153 378 169 q 547 136 493 136 q 639 141 599 136 q 718 160 679 146 q 728 153 728 164 l 728 29 m 457 1103 l 369 1013 q 356 1004 363 1004 l 231 1004 q 225 1009 226 1004 q 226 1017 224 1014 l 383 1178 q 389 1182 386 1181 q 396 1183 392 1183 l 524 1183 q 539 1176 535 1183 l 701 1014 q 696 1004 708 1004 l 561 1004 q 544 1013 550 1004 l 457 1103 z "},"Ċ":{"ha":774,"x_min":50,"x_max":736,"o":"m 728 29 q 718 11 728 15 q 634 -8 683 -1 q 526 -14 585 -14 q 344 15 431 -14 q 192 101 257 43 q 88 247 126 160 q 50 454 50 335 q 85 645 50 558 q 185 794 121 732 q 342 892 250 857 q 547 926 433 926 q 658 920 615 926 q 728 903 701 914 q 736 888 736 899 l 736 756 q 725 747 736 742 q 645 770 692 763 q 544 778 599 778 q 412 755 471 778 q 311 690 353 732 q 247 590 269 649 q 224 458 224 531 q 253 306 224 368 q 331 207 283 244 q 435 153 378 169 q 547 136 493 136 q 639 141 599 136 q 718 160 679 146 q 728 153 728 164 l 728 29 m 472 1017 q 404 1040 429 1017 q 379 1100 379 1063 q 406 1159 379 1136 q 475 1182 432 1182 q 542 1159 518 1182 q 567 1099 567 1136 q 542 1040 567 1063 q 472 1017 517 1017 z "},"Ď":{"ha":917,"x_min":103,"x_max":865,"o":"m 103 900 q 113 911 103 910 q 211 914 143 913 q 375 915 279 915 q 589 883 497 915 q 742 791 681 850 q 835 651 804 732 q 865 472 865 569 q 822 255 865 344 q 707 108 778 165 q 548 24 636 50 q 372 -3 460 -3 q 301 -3 339 -3 q 226 -3 263 -3 q 160 -2 190 -3 q 113 0 129 -1 q 103 13 103 0 l 103 900 m 271 144 q 315 143 292 143 q 365 143 338 143 q 499 164 439 143 q 603 226 560 185 q 669 328 646 268 q 693 468 693 389 q 669 600 693 543 q 603 694 646 657 q 503 751 561 732 q 374 769 444 769 q 320 769 344 769 q 271 767 296 768 l 271 144 m 413 1076 l 499 1165 q 513 1174 504 1174 l 639 1174 q 644 1169 643 1174 q 642 1163 644 1165 l 486 1000 q 472 996 481 996 l 346 996 q 329 1001 333 996 l 167 1165 q 172 1174 161 1174 l 307 1174 q 317 1172 314 1174 q 325 1167 321 1169 l 413 1076 z "},"Đ":{"ha":933,"x_min":15,"x_max":875,"o":"m 281 144 q 324 143 300 143 q 374 143 347 143 q 508 164 447 143 q 612 226 568 185 q 679 328 656 268 q 703 468 703 389 q 679 600 703 543 q 613 694 656 657 q 512 751 571 732 q 382 769 453 769 q 329 769 353 769 q 281 767 306 768 l 281 531 l 497 531 q 504 522 504 531 l 504 419 q 496 411 504 411 l 281 411 l 281 144 m 113 900 q 122 911 113 910 q 220 914 153 913 q 383 915 288 915 q 598 883 506 915 q 751 791 690 850 q 844 651 813 732 q 875 472 875 569 q 831 255 875 344 q 717 108 788 165 q 558 24 646 50 q 382 -3 469 -3 q 310 -3 349 -3 q 235 -3 272 -3 q 168 -2 199 -3 q 121 0 138 -1 q 113 13 113 0 l 113 411 l 24 411 q 15 421 15 411 l 15 522 q 22 531 15 531 l 113 531 l 113 900 z "},"Ĕ":{"ha":736,"x_min":103,"x_max":704,"o":"m 681 11 q 668 0 679 0 l 115 0 q 103 11 103 0 l 103 901 q 114 913 103 913 l 650 913 q 663 903 661 913 l 678 774 q 668 761 681 761 l 271 761 l 271 540 l 632 540 q 642 531 642 540 l 642 399 q 632 390 642 390 l 271 390 l 271 151 l 692 151 q 701 140 704 151 l 681 11 m 269 1193 q 281 1183 276 1193 q 318 1133 293 1151 q 379 1114 343 1114 q 440 1131 414 1114 q 479 1185 467 1147 q 490 1193 485 1193 l 604 1193 q 613 1188 611 1193 q 613 1181 614 1183 q 531 1038 596 1088 q 379 989 467 989 q 226 1036 290 989 q 147 1182 163 1083 q 156 1193 144 1193 l 269 1193 z "},"Ě":{"ha":736,"x_min":103,"x_max":704,"o":"m 681 11 q 668 0 679 0 l 115 0 q 103 11 103 0 l 103 901 q 114 913 103 913 l 650 913 q 663 903 661 913 l 678 774 q 668 761 681 761 l 271 761 l 271 540 l 632 540 q 642 531 642 540 l 642 399 q 632 390 642 390 l 271 390 l 271 151 l 692 151 q 701 140 704 151 l 681 11 m 385 1076 l 471 1165 q 485 1174 476 1174 l 611 1174 q 616 1169 615 1174 q 614 1163 617 1165 l 458 1000 q 444 996 453 996 l 318 996 q 301 1001 306 996 l 139 1165 q 144 1174 133 1174 l 279 1174 q 290 1172 286 1174 q 297 1167 293 1169 l 385 1076 z "},"Ė":{"ha":736,"x_min":103,"x_max":704,"o":"m 681 11 q 668 0 679 0 l 115 0 q 103 11 103 0 l 103 901 q 114 913 103 913 l 650 913 q 663 903 661 913 l 678 774 q 668 761 681 761 l 271 761 l 271 540 l 632 540 q 642 531 642 540 l 642 399 q 632 390 642 390 l 271 390 l 271 151 l 692 151 q 701 140 704 151 l 681 11 m 383 1006 q 315 1028 340 1006 q 290 1089 290 1051 q 317 1148 290 1125 q 386 1171 343 1171 q 453 1148 429 1171 q 478 1088 478 1125 q 453 1028 478 1051 q 383 1006 428 1006 z "},"Ē":{"ha":736,"x_min":103,"x_max":704,"o":"m 681 11 q 668 0 679 0 l 115 0 q 103 11 103 0 l 103 901 q 114 913 103 913 l 650 913 q 663 903 661 913 l 678 774 q 668 761 681 761 l 271 761 l 271 540 l 632 540 q 642 531 642 540 l 642 399 q 632 390 642 390 l 271 390 l 271 151 l 692 151 q 701 140 704 151 l 681 11 m 576 1149 q 585 1139 585 1149 l 585 1032 q 576 1022 585 1022 l 186 1022 q 174 1032 174 1022 l 174 1138 q 183 1149 174 1149 l 576 1149 z "},"Ę":{"ha":736,"x_min":103,"x_max":704,"o":"m 618 0 q 529 -119 529 -60 q 550 -166 529 -149 q 611 -183 571 -183 q 648 -181 631 -183 q 681 -174 665 -178 q 690 -181 690 -172 l 690 -275 q 682 -289 690 -283 q 632 -305 664 -299 q 563 -311 600 -311 q 498 -303 531 -311 q 439 -279 465 -296 q 396 -235 413 -262 q 379 -165 379 -207 q 408 -78 379 -121 q 490 0 438 -36 l 115 0 q 103 11 103 0 l 103 901 q 114 913 103 913 l 650 913 q 663 903 661 913 l 678 774 q 668 761 681 761 l 271 761 l 271 540 l 632 540 q 642 531 642 540 l 642 399 q 632 390 642 390 l 271 390 l 271 151 l 692 151 q 701 140 704 151 l 681 11 q 668 0 679 0 l 618 0 z "},"Ğ":{"ha":897,"x_min":50,"x_max":821,"o":"m 496 365 q 485 378 485 367 l 485 501 q 494 510 485 510 l 808 510 q 819 499 819 510 l 819 46 q 811 33 821 35 q 668 -4 738 6 q 538 -14 599 -14 q 324 22 415 -14 q 172 122 233 58 q 81 269 111 185 q 50 450 50 354 q 87 647 50 558 q 191 797 124 735 q 353 892 258 858 q 563 926 447 926 q 692 919 633 926 q 788 893 750 911 q 796 876 796 889 l 796 743 q 785 736 796 731 q 684 768 738 760 q 568 776 631 776 q 312 692 400 778 q 224 456 224 607 q 244 329 224 388 q 306 227 265 271 q 406 158 346 183 q 546 133 467 133 q 606 136 582 133 q 651 146 631 139 l 651 361 l 496 365 m 383 1206 q 394 1196 390 1206 q 432 1145 407 1164 q 493 1126 457 1126 q 554 1143 528 1126 q 593 1197 581 1160 q 604 1206 599 1206 l 718 1206 q 726 1201 725 1206 q 726 1193 728 1196 q 645 1051 710 1100 q 493 1001 581 1001 q 340 1049 404 1001 q 261 1194 276 1096 q 269 1206 258 1206 l 383 1206 z "},"Ĝ":{"ha":897,"x_min":50,"x_max":821,"o":"m 496 365 q 485 378 485 367 l 485 501 q 494 510 485 510 l 808 510 q 819 499 819 510 l 819 46 q 811 33 821 35 q 668 -4 738 6 q 538 -14 599 -14 q 324 22 415 -14 q 172 122 233 58 q 81 269 111 185 q 50 450 50 354 q 87 647 50 558 q 191 797 124 735 q 353 892 258 858 q 563 926 447 926 q 692 919 633 926 q 788 893 750 911 q 796 876 796 889 l 796 743 q 785 736 796 731 q 684 768 738 760 q 568 776 631 776 q 312 692 400 778 q 224 456 224 607 q 244 329 224 388 q 306 227 265 271 q 406 158 346 183 q 546 133 467 133 q 606 136 582 133 q 651 146 631 139 l 651 361 l 496 365 m 488 1103 l 400 1013 q 386 1004 393 1004 l 261 1004 q 256 1009 257 1004 q 257 1017 254 1014 l 414 1178 q 419 1182 417 1181 q 426 1183 422 1183 l 554 1183 q 569 1176 565 1183 l 732 1014 q 726 1004 739 1004 l 592 1004 q 575 1013 581 1004 l 488 1103 z "},"Ģ":{"ha":897,"x_min":50,"x_max":821,"o":"m 496 365 q 485 378 485 367 l 485 501 q 494 510 485 510 l 808 510 q 819 499 819 510 l 819 46 q 811 33 821 35 q 668 -4 738 6 q 538 -14 599 -14 q 324 22 415 -14 q 172 122 233 58 q 81 269 111 185 q 50 450 50 354 q 87 647 50 558 q 191 797 124 735 q 353 892 258 858 q 563 926 447 926 q 692 919 633 926 q 788 893 750 911 q 796 876 796 889 l 796 743 q 785 736 796 731 q 684 768 738 760 q 568 776 631 776 q 312 692 400 778 q 224 456 224 607 q 244 329 224 388 q 306 227 265 271 q 406 158 346 183 q 546 133 467 133 q 606 136 582 133 q 651 146 631 139 l 651 361 l 496 365 m 403 -328 q 396 -324 397 -328 q 397 -317 394 -319 q 438 -236 426 -272 q 449 -165 449 -200 q 443 -123 449 -144 q 428 -78 438 -101 q 428 -71 425 -74 q 433 -68 431 -68 l 571 -68 q 585 -76 576 -68 q 599 -112 593 -89 q 606 -156 606 -135 q 590 -247 606 -208 q 543 -322 574 -286 q 529 -328 538 -328 l 403 -328 z "},"Ġ":{"ha":897,"x_min":50,"x_max":821,"o":"m 496 365 q 485 378 485 367 l 485 501 q 494 510 485 510 l 808 510 q 819 499 819 510 l 819 46 q 811 33 821 35 q 668 -4 738 6 q 538 -14 599 -14 q 324 22 415 -14 q 172 122 233 58 q 81 269 111 185 q 50 450 50 354 q 87 647 50 558 q 191 797 124 735 q 353 892 258 858 q 563 926 447 926 q 692 919 633 926 q 788 893 750 911 q 796 876 796 889 l 796 743 q 785 736 796 731 q 684 768 738 760 q 568 776 631 776 q 312 692 400 778 q 224 456 224 607 q 244 329 224 388 q 306 227 265 271 q 406 158 346 183 q 546 133 467 133 q 606 136 582 133 q 651 146 631 139 l 651 361 l 496 365 m 506 1018 q 438 1041 463 1018 q 413 1101 413 1064 q 439 1160 413 1138 q 508 1183 465 1183 q 576 1160 551 1183 q 600 1100 600 1138 q 575 1041 600 1064 q 506 1018 550 1018 z "},"Ħ":{"ha":929,"x_min":24,"x_max":911,"o":"m 668 647 l 271 647 l 271 528 l 668 528 l 668 647 m 901 761 q 911 753 911 761 l 911 656 q 901 647 911 647 l 835 647 l 835 11 q 825 0 835 0 l 679 0 q 668 11 668 0 l 668 376 l 271 376 l 271 13 q 260 0 271 0 l 117 0 q 104 13 104 0 l 104 647 l 33 647 q 24 657 24 647 l 24 753 q 32 761 24 761 l 104 761 l 104 900 q 115 913 104 913 l 260 913 q 271 901 271 913 l 271 761 l 668 761 l 668 903 q 678 913 668 913 l 826 913 q 835 903 835 913 l 835 761 l 901 761 z "},"Ĥ":{"ha":929,"x_min":104,"x_max":826,"o":"m 669 0 q 658 11 658 0 l 658 399 l 271 399 l 271 13 q 260 0 271 0 l 117 0 q 104 13 104 0 l 104 900 q 115 913 104 913 l 260 913 q 271 901 271 913 l 271 550 l 658 550 l 658 903 q 668 913 658 913 l 817 913 q 826 903 826 913 l 826 11 q 815 0 826 0 l 669 0 m 463 1086 l 375 996 q 361 988 368 988 l 236 988 q 231 992 232 988 q 232 1000 229 997 l 389 1161 q 394 1165 392 1164 q 401 1167 397 1167 l 529 1167 q 544 1160 540 1167 l 707 997 q 701 988 714 988 l 567 988 q 550 996 556 988 l 463 1086 z "},"İ":{"ha":375,"x_min":93,"x_max":281,"o":"m 271 13 q 260 0 271 0 l 114 0 q 103 13 103 0 l 103 901 q 114 913 103 913 l 260 913 q 271 901 271 913 l 271 13 m 186 1001 q 118 1024 143 1001 q 93 1085 93 1047 q 119 1144 93 1121 q 189 1167 146 1167 q 256 1144 232 1167 q 281 1083 281 1121 q 256 1024 281 1047 q 186 1001 231 1001 z "},"Ī":{"ha":375,"x_min":-17,"x_max":394,"o":"m 271 13 q 260 0 271 0 l 114 0 q 103 13 103 0 l 103 901 q 114 913 103 913 l 260 913 q 271 901 271 913 l 271 13 m 386 1138 q 394 1128 394 1138 l 394 1021 q 386 1011 394 1011 l -4 1011 q -17 1021 -17 1011 l -17 1126 q -7 1138 -17 1138 l 386 1138 z "},"Į":{"ha":375,"x_min":18,"x_max":328,"o":"m 103 903 q 113 913 103 913 l 263 913 q 271 904 271 913 l 271 14 q 265 0 271 4 q 169 -132 169 -67 q 192 -185 169 -167 q 250 -203 215 -203 q 288 -201 269 -203 q 321 -193 307 -199 q 328 -200 328 -192 l 328 -292 q 321 -308 328 -306 q 276 -322 308 -315 q 201 -328 244 -328 q 133 -319 167 -328 q 74 -293 100 -311 q 33 -247 49 -275 q 18 -176 18 -218 q 49 -75 18 -119 q 114 3 79 -31 q 103 19 103 7 l 103 903 z "},"Ĩ":{"ha":375,"x_min":-46,"x_max":426,"o":"m 271 13 q 260 0 271 0 l 114 0 q 103 13 103 0 l 103 901 q 114 913 103 913 l 260 913 q 271 901 271 913 l 271 13 m -35 993 q -46 1003 -46 993 q -3 1135 -44 1093 q 96 1178 39 1178 q 155 1167 129 1178 q 201 1143 181 1156 q 240 1119 222 1131 q 276 1108 258 1108 q 305 1124 296 1108 q 317 1165 314 1140 q 325 1174 317 1174 l 417 1174 q 426 1165 426 1174 q 414 1082 425 1115 q 384 1028 403 1049 q 342 1000 365 1008 q 292 992 318 992 q 235 1002 260 992 q 189 1026 210 1013 q 149 1049 168 1039 q 111 1060 131 1060 q 83 1046 96 1060 q 67 1001 69 1032 q 58 993 67 993 l -35 993 z "},"Ĵ":{"ha":447,"x_min":-12,"x_max":511,"o":"m 182 903 q 193 913 182 913 l 340 913 q 350 903 350 913 l 350 264 q 348 196 350 229 q 339 135 346 163 q 241 -24 315 25 q 60 -74 167 -74 q 26 -72 42 -74 q -3 -68 10 -71 q -12 -53 -12 -65 l -12 75 q 0 83 -12 85 q 24 81 15 81 q 43 81 33 81 q 101 88 75 81 q 144 115 126 96 q 172 165 163 133 q 182 247 182 197 l 182 903 m 260 1083 l 172 993 q 158 985 165 985 l 33 985 q 28 990 29 985 q 29 997 26 994 l 186 1158 q 192 1163 189 1161 q 199 1164 194 1164 l 326 1164 q 342 1157 338 1164 l 504 994 q 499 985 511 985 l 364 985 q 347 993 353 985 l 260 1083 z "},"Ķ":{"ha":811,"x_min":103,"x_max":844,"o":"m 840 15 q 842 5 844 10 q 833 0 840 0 l 657 0 q 644 2 649 0 q 633 11 640 4 l 271 424 l 271 13 q 260 0 271 0 l 115 0 q 103 13 103 0 l 103 903 q 114 913 103 913 l 260 913 q 271 901 271 913 l 271 493 l 628 904 q 644 913 633 913 l 804 913 q 815 908 814 913 q 813 899 817 903 l 440 482 q 440 469 436 476 l 840 15 m 315 -314 q 308 -310 310 -314 q 310 -303 307 -306 q 350 -222 339 -258 q 361 -151 361 -186 q 356 -109 361 -131 q 340 -64 350 -87 q 340 -57 338 -60 q 346 -54 343 -54 l 483 -54 q 497 -62 489 -54 q 512 -98 506 -75 q 518 -142 518 -121 q 502 -233 518 -194 q 456 -308 486 -272 q 442 -314 450 -314 l 315 -314 z "},"Ĺ":{"ha":696,"x_min":99,"x_max":692,"o":"m 117 0 q 103 14 103 0 l 103 900 q 114 913 103 913 l 263 913 q 271 903 271 913 l 271 151 l 679 151 q 689 142 692 151 l 665 11 q 653 0 664 0 l 117 0 m 268 1167 q 283 1174 275 1174 l 460 1174 q 465 1169 464 1174 q 463 1161 465 1165 l 272 1010 q 253 1001 265 1001 l 107 1001 q 100 1005 101 1001 q 101 1011 99 1008 l 268 1167 z "},"Ľ":{"ha":696,"x_min":103,"x_max":692,"o":"m 117 0 q 103 14 103 0 l 103 900 q 114 913 103 913 l 263 913 q 271 903 271 913 l 271 151 l 679 151 q 689 142 692 151 l 665 11 q 653 0 664 0 l 117 0 m 461 904 q 471 914 461 914 l 593 914 q 603 904 604 914 l 578 585 q 568 578 576 578 l 472 578 q 463 588 463 578 l 461 904 z "},"Ļ":{"ha":696,"x_min":103,"x_max":692,"o":"m 117 0 q 103 14 103 0 l 103 900 q 114 913 103 913 l 263 913 q 271 903 271 913 l 271 151 l 679 151 q 689 142 692 151 l 665 11 q 653 0 664 0 l 117 0 m 281 -329 q 274 -325 275 -329 q 275 -318 272 -321 q 315 -237 304 -274 q 326 -167 326 -201 q 321 -124 326 -146 q 306 -79 315 -103 q 306 -72 303 -75 q 311 -69 308 -69 l 449 -69 q 463 -78 454 -69 q 477 -113 471 -90 q 483 -157 483 -136 q 467 -249 483 -210 q 421 -324 451 -287 q 407 -329 415 -329 l 281 -329 z "},"Ŀ":{"ha":696,"x_min":103,"x_max":692,"o":"m 117 0 q 103 14 103 0 l 103 900 q 114 913 103 913 l 263 913 q 271 903 271 913 l 271 151 l 679 151 q 689 142 692 151 l 665 11 q 653 0 664 0 l 117 0 m 539 432 q 471 455 496 432 q 446 515 446 478 q 472 574 446 551 q 542 597 499 597 q 609 574 585 597 q 633 514 633 551 q 608 455 633 478 q 539 432 583 432 z "},"Ń":{"ha":949,"x_min":103,"x_max":844,"o":"m 115 0 q 106 2 108 0 q 103 13 103 4 l 103 903 q 113 913 103 913 l 308 913 q 319 910 317 913 q 325 903 322 908 q 384 796 350 857 q 454 668 418 735 q 527 533 490 601 q 596 405 564 465 q 652 297 628 344 q 689 224 676 250 l 690 224 q 690 255 690 238 q 688 297 689 272 q 687 356 688 321 q 686 439 686 390 l 686 901 q 699 913 686 913 l 832 913 q 844 900 844 913 l 844 13 q 831 0 844 0 l 654 0 q 636 10 642 0 q 587 103 618 44 q 517 231 556 161 q 439 375 479 300 q 363 519 399 450 q 298 644 326 588 q 256 735 269 701 l 254 735 q 257 683 256 708 q 260 626 258 657 q 261 560 261 596 q 261 476 261 524 l 261 13 q 250 0 261 0 l 115 0 m 544 1163 q 560 1169 551 1169 l 736 1169 q 741 1165 740 1169 q 739 1157 742 1161 l 549 1006 q 529 997 542 997 l 383 997 q 376 1001 378 997 q 378 1007 375 1004 l 544 1163 z "},"Ň":{"ha":949,"x_min":103,"x_max":844,"o":"m 115 0 q 106 2 108 0 q 103 13 103 4 l 103 903 q 113 913 103 913 l 308 913 q 319 910 317 913 q 325 903 322 908 q 384 796 350 857 q 454 668 418 735 q 527 533 490 601 q 596 405 564 465 q 652 297 628 344 q 689 224 676 250 l 690 224 q 690 255 690 238 q 688 297 689 272 q 687 356 688 321 q 686 439 686 390 l 686 901 q 699 913 686 913 l 832 913 q 844 900 844 913 l 844 13 q 831 0 844 0 l 654 0 q 636 10 642 0 q 587 103 618 44 q 517 231 556 161 q 439 375 479 300 q 363 519 399 450 q 298 644 326 588 q 256 735 269 701 l 254 735 q 257 683 256 708 q 260 626 258 657 q 261 560 261 596 q 261 476 261 524 l 261 13 q 250 0 261 0 l 115 0 m 483 1064 l 569 1153 q 583 1161 575 1161 l 710 1161 q 715 1157 714 1161 q 713 1150 715 1153 l 557 988 q 543 983 551 983 l 417 983 q 400 989 404 983 l 238 1153 q 243 1161 232 1161 l 378 1161 q 388 1159 385 1161 q 396 1154 392 1157 l 483 1064 z "},"Ņ":{"ha":949,"x_min":103,"x_max":844,"o":"m 115 0 q 106 2 108 0 q 103 13 103 4 l 103 903 q 113 913 103 913 l 308 913 q 319 910 317 913 q 325 903 322 908 q 384 796 350 857 q 454 668 418 735 q 527 533 490 601 q 596 405 564 465 q 652 297 628 344 q 689 224 676 250 l 690 224 q 690 255 690 238 q 688 297 689 272 q 687 356 688 321 q 686 439 686 390 l 686 901 q 699 913 686 913 l 832 913 q 844 900 844 913 l 844 13 q 831 0 844 0 l 654 0 q 636 10 642 0 q 587 103 618 44 q 517 231 556 161 q 439 375 479 300 q 363 519 399 450 q 298 644 326 588 q 256 735 269 701 l 254 735 q 257 683 256 708 q 260 626 258 657 q 261 560 261 596 q 261 476 261 524 l 261 13 q 250 0 261 0 l 115 0 m 369 -315 q 363 -311 364 -315 q 364 -304 361 -307 q 404 -224 393 -260 q 415 -153 415 -187 q 410 -110 415 -132 q 394 -65 404 -89 q 394 -58 392 -61 q 400 -56 397 -56 l 538 -56 q 551 -64 543 -56 q 566 -99 560 -76 q 572 -143 572 -122 q 556 -235 572 -196 q 510 -310 540 -274 q 496 -315 504 -315 l 369 -315 z "},"Ő":{"ha":961,"x_min":50,"x_max":910,"o":"m 481 926 q 662 890 582 926 q 797 790 742 853 q 881 642 851 726 q 910 461 910 557 q 878 265 910 353 q 790 116 847 178 q 654 20 733 54 q 481 -14 575 -14 q 299 22 379 -14 q 164 120 219 57 q 79 269 108 183 q 50 457 50 356 q 81 643 50 557 q 169 792 113 729 q 306 890 226 854 q 481 926 385 926 m 224 457 q 240 331 224 390 q 290 228 257 272 q 373 160 324 185 q 486 135 422 135 q 591 158 544 135 q 670 223 638 181 q 719 325 703 265 q 736 457 736 385 q 719 589 736 529 q 668 690 701 649 q 587 755 635 732 q 478 778 539 778 q 376 756 422 778 q 295 694 329 735 q 242 594 261 654 q 224 457 224 533 m 360 1175 q 374 1183 363 1183 l 513 1183 q 517 1172 522 1183 l 394 1018 q 381 1013 389 1013 l 265 1013 q 260 1022 254 1013 l 360 1175 m 617 1175 q 633 1185 625 1185 l 771 1185 q 779 1181 778 1185 q 778 1171 781 1176 l 657 1022 q 640 1013 650 1013 l 525 1013 q 519 1024 513 1013 l 617 1175 z "},"Ō":{"ha":961,"x_min":50,"x_max":910,"o":"m 481 926 q 662 890 582 926 q 797 790 742 853 q 881 642 851 726 q 910 461 910 557 q 878 265 910 353 q 790 116 847 178 q 654 20 733 54 q 481 -14 575 -14 q 299 22 379 -14 q 164 120 219 57 q 79 269 108 183 q 50 457 50 356 q 81 643 50 557 q 169 792 113 729 q 306 890 226 854 q 481 926 385 926 m 224 457 q 240 331 224 390 q 290 228 257 272 q 373 160 324 185 q 486 135 422 135 q 591 158 544 135 q 670 223 638 181 q 719 325 703 265 q 736 457 736 385 q 719 589 736 529 q 668 690 701 649 q 587 755 635 732 q 478 778 539 778 q 376 756 422 778 q 295 694 329 735 q 242 594 261 654 q 224 457 224 533 m 681 1150 q 689 1140 689 1150 l 689 1033 q 681 1024 689 1024 l 290 1024 q 278 1033 278 1024 l 278 1139 q 288 1150 278 1150 l 681 1150 z "},"Ŕ":{"ha":815,"x_min":103,"x_max":821,"o":"m 114 0 q 103 11 103 0 l 103 899 q 113 911 103 911 q 187 913 154 913 q 251 915 219 914 q 315 915 282 915 q 388 915 347 915 q 648 846 556 915 q 740 642 740 776 q 689 488 740 550 q 561 397 638 425 q 593 351 572 381 q 638 285 614 322 q 690 208 663 249 q 741 131 717 168 q 785 63 765 94 q 814 15 804 32 q 811 0 821 0 l 638 0 q 625 2 629 0 q 618 7 621 4 q 578 69 603 31 q 526 153 554 108 q 470 244 499 199 q 419 326 442 290 q 406 344 413 339 q 388 350 399 350 l 268 350 l 268 11 q 257 0 268 0 l 114 0 m 389 493 q 524 529 474 493 q 574 632 574 565 q 522 735 574 701 q 382 769 471 769 q 315 769 346 769 q 268 767 285 768 l 268 493 l 389 493 m 438 1169 q 453 1176 444 1176 l 629 1176 q 634 1172 633 1176 q 632 1164 635 1168 l 442 1013 q 422 1004 435 1004 l 276 1004 q 269 1008 271 1004 q 271 1014 268 1011 l 438 1169 z "},"Ř":{"ha":815,"x_min":103,"x_max":821,"o":"m 114 0 q 103 11 103 0 l 103 899 q 113 911 103 911 q 187 913 154 913 q 251 915 219 914 q 315 915 282 915 q 388 915 347 915 q 648 846 556 915 q 740 642 740 776 q 689 488 740 550 q 561 397 638 425 q 593 351 572 381 q 638 285 614 322 q 690 208 663 249 q 741 131 717 168 q 785 63 765 94 q 814 15 804 32 q 811 0 821 0 l 638 0 q 625 2 629 0 q 618 7 621 4 q 578 69 603 31 q 526 153 554 108 q 470 244 499 199 q 419 326 442 290 q 406 344 413 339 q 388 350 399 350 l 268 350 l 268 11 q 257 0 268 0 l 114 0 m 389 493 q 524 529 474 493 q 574 632 574 565 q 522 735 574 701 q 382 769 471 769 q 315 769 346 769 q 268 767 285 768 l 268 493 l 389 493 m 382 1071 l 468 1160 q 482 1168 474 1168 l 608 1168 q 613 1164 613 1168 q 611 1157 614 1160 l 456 994 q 442 990 450 990 l 315 990 q 299 996 303 990 l 136 1160 q 142 1168 131 1168 l 276 1168 q 287 1166 283 1168 q 294 1161 290 1164 l 382 1071 z "},"Ŗ":{"ha":815,"x_min":103,"x_max":821,"o":"m 114 0 q 103 11 103 0 l 103 899 q 113 911 103 911 q 187 913 154 913 q 251 915 219 914 q 315 915 282 915 q 388 915 347 915 q 648 846 556 915 q 740 642 740 776 q 689 488 740 550 q 561 397 638 425 q 593 351 572 381 q 638 285 614 322 q 690 208 663 249 q 741 131 717 168 q 785 63 765 94 q 814 15 804 32 q 811 0 821 0 l 638 0 q 625 2 629 0 q 618 7 621 4 q 578 69 603 31 q 526 153 554 108 q 470 244 499 199 q 419 326 442 290 q 406 344 413 339 q 388 350 399 350 l 268 350 l 268 11 q 257 0 268 0 l 114 0 m 389 493 q 524 529 474 493 q 574 632 574 565 q 522 735 574 701 q 382 769 471 769 q 315 769 346 769 q 268 767 285 768 l 268 493 l 389 493 m 313 -306 q 306 -301 307 -306 q 307 -294 304 -297 q 347 -214 336 -250 q 358 -143 358 -178 q 353 -101 358 -122 q 338 -56 347 -79 q 338 -49 335 -51 q 343 -46 340 -46 l 481 -46 q 494 -54 486 -46 q 509 -90 503 -67 q 515 -133 515 -112 q 499 -225 515 -186 q 453 -300 483 -264 q 439 -306 447 -306 l 313 -306 z "},"Ś":{"ha":689,"x_min":50,"x_max":640,"o":"m 303 -14 q 165 -1 226 -14 q 60 36 103 13 q 50 57 50 42 l 50 201 q 61 207 50 213 q 183 153 118 171 q 308 135 247 135 q 433 165 394 135 q 471 239 471 194 q 441 309 471 278 q 332 374 411 340 l 265 401 q 160 458 201 428 q 94 520 118 488 q 60 589 69 553 q 50 664 50 625 q 71 767 50 719 q 133 851 92 815 q 233 906 174 886 q 372 926 293 926 q 494 917 439 926 q 585 890 550 908 q 593 872 593 885 l 593 738 q 590 731 593 733 q 581 732 588 728 q 486 767 540 756 q 371 778 432 778 q 296 769 326 778 q 247 747 265 761 q 222 715 229 733 q 214 679 214 697 q 244 613 214 642 q 356 549 274 583 l 408 526 q 521 468 476 499 q 592 403 565 438 q 629 333 618 369 q 640 254 640 296 q 617 144 640 193 q 551 59 594 94 q 444 5 507 24 q 303 -14 382 -14 m 404 1178 q 419 1185 411 1185 l 596 1185 q 601 1181 600 1185 q 599 1172 601 1176 l 408 1021 q 389 1013 401 1013 l 243 1013 q 236 1016 238 1013 q 238 1022 235 1019 l 404 1178 z "},"Ş":{"ha":689,"x_min":50,"x_max":640,"o":"m 303 -14 q 165 -1 226 -14 q 60 36 103 13 q 50 57 50 42 l 50 201 q 61 207 50 213 q 183 153 118 171 q 308 135 247 135 q 433 165 394 135 q 471 239 471 194 q 441 309 471 278 q 332 374 411 340 l 265 401 q 160 458 201 428 q 94 520 118 488 q 60 589 69 553 q 50 664 50 625 q 71 767 50 719 q 133 851 92 815 q 233 906 174 886 q 372 926 293 926 q 494 917 439 926 q 585 890 550 908 q 593 872 593 885 l 593 738 q 590 731 593 733 q 581 732 588 728 q 486 767 540 756 q 371 778 432 778 q 296 769 326 778 q 247 747 265 761 q 222 715 229 733 q 214 679 214 697 q 244 613 214 642 q 356 549 274 583 l 408 526 q 521 468 476 499 q 592 403 565 438 q 629 333 618 369 q 640 254 640 296 q 617 144 640 193 q 551 59 594 94 q 444 5 507 24 q 303 -14 382 -14 m 399 8 l 351 -56 q 440 -105 410 -74 q 469 -189 469 -136 q 424 -284 469 -247 q 304 -321 378 -321 q 247 -316 275 -321 q 201 -303 218 -311 q 194 -292 194 -300 l 194 -219 q 203 -212 194 -211 q 248 -227 222 -222 q 293 -232 274 -232 q 336 -222 319 -232 q 353 -190 353 -212 q 222 -125 353 -142 q 219 -107 219 -121 q 221 -89 218 -93 l 297 8 l 399 8 z "},"Ŝ":{"ha":689,"x_min":50,"x_max":640,"o":"m 303 -14 q 165 -1 226 -14 q 60 36 103 13 q 50 57 50 42 l 50 201 q 61 207 50 213 q 183 153 118 171 q 308 135 247 135 q 433 165 394 135 q 471 239 471 194 q 441 309 471 278 q 332 374 411 340 l 265 401 q 160 458 201 428 q 94 520 118 488 q 60 589 69 553 q 50 664 50 625 q 71 767 50 719 q 133 851 92 815 q 233 906 174 886 q 372 926 293 926 q 494 917 439 926 q 585 890 550 908 q 593 872 593 885 l 593 738 q 590 731 593 733 q 581 732 588 728 q 486 767 540 756 q 371 778 432 778 q 296 769 326 778 q 247 747 265 761 q 222 715 229 733 q 214 679 214 697 q 244 613 214 642 q 356 549 274 583 l 408 526 q 521 468 476 499 q 592 403 565 438 q 629 333 618 369 q 640 254 640 296 q 617 144 640 193 q 551 59 594 94 q 444 5 507 24 q 303 -14 382 -14 m 335 1096 l 247 1006 q 233 997 240 997 l 108 997 q 103 1002 104 997 q 104 1010 101 1007 l 261 1171 q 267 1175 264 1174 q 274 1176 269 1176 l 401 1176 q 417 1169 413 1176 l 579 1007 q 574 997 586 997 l 439 997 q 422 1006 428 997 l 335 1096 z "},"Ș":{"ha":689,"x_min":50,"x_max":640,"o":"m 303 -14 q 165 -1 226 -14 q 60 36 103 13 q 50 57 50 42 l 50 201 q 61 207 50 213 q 183 153 118 171 q 308 135 247 135 q 433 165 394 135 q 471 239 471 194 q 441 309 471 278 q 332 374 411 340 l 265 401 q 160 458 201 428 q 94 520 118 488 q 60 589 69 553 q 50 664 50 625 q 71 767 50 719 q 133 851 92 815 q 233 906 174 886 q 372 926 293 926 q 494 917 439 926 q 585 890 550 908 q 593 872 593 885 l 593 738 q 590 731 593 733 q 581 732 588 728 q 486 767 540 756 q 371 778 432 778 q 296 769 326 778 q 247 747 265 761 q 222 715 229 733 q 214 679 214 697 q 244 613 214 642 q 356 549 274 583 l 408 526 q 521 468 476 499 q 592 403 565 438 q 629 333 618 369 q 640 254 640 296 q 617 144 640 193 q 551 59 594 94 q 444 5 507 24 q 303 -14 382 -14 m 225 -332 q 218 -328 219 -332 q 219 -321 217 -324 q 260 -240 249 -276 q 271 -169 271 -204 q 265 -127 271 -149 q 250 -82 260 -106 q 250 -75 247 -78 q 256 -72 253 -72 l 393 -72 q 407 -81 399 -72 q 422 -116 415 -93 q 428 -160 428 -139 q 412 -251 428 -212 q 365 -326 396 -290 q 351 -332 360 -332 l 225 -332 z "},"Ť":{"ha":750,"x_min":-1,"x_max":750,"o":"m 292 761 l 10 761 q 1 772 -1 761 l 19 901 q 32 913 21 913 l 722 913 q 736 900 735 913 l 749 774 q 739 761 750 761 l 458 761 l 458 13 q 447 0 458 0 l 304 0 q 292 13 292 -1 l 292 761 m 381 1071 l 467 1160 q 481 1168 472 1168 l 607 1168 q 612 1164 611 1168 q 610 1157 613 1160 l 454 994 q 440 990 449 990 l 314 990 q 297 996 301 990 l 135 1160 q 140 1168 129 1168 l 275 1168 q 285 1166 282 1168 q 293 1161 289 1164 l 381 1071 z "},"Ţ":{"ha":757,"x_min":1,"x_max":753,"o":"m 751 774 q 740 761 753 761 l 461 761 l 461 13 q 449 0 461 0 l 432 0 l 393 -53 q 481 -102 450 -69 q 513 -186 513 -135 q 467 -281 513 -244 q 347 -317 422 -317 q 288 -312 315 -317 q 244 -299 260 -307 q 236 -283 236 -293 l 236 -218 q 247 -210 236 -206 q 291 -223 267 -218 q 335 -228 315 -228 q 378 -218 361 -228 q 394 -187 394 -208 q 363 -147 394 -164 q 264 -121 332 -129 q 261 -103 261 -118 q 264 -86 261 -89 l 329 0 l 306 0 q 293 13 293 -3 l 293 761 l 13 761 q 4 772 1 761 l 21 901 q 35 913 22 913 l 724 913 q 738 900 736 913 l 751 774 z "},"Ț":{"ha":750,"x_min":-1,"x_max":750,"o":"m 292 761 l 10 761 q 1 772 -1 761 l 19 901 q 32 913 21 913 l 722 913 q 736 900 735 913 l 749 774 q 739 761 750 761 l 458 761 l 458 13 q 447 0 458 0 l 304 0 q 292 13 292 -1 l 292 761 m 263 -322 q 256 -318 257 -322 q 257 -311 254 -314 q 297 -231 286 -267 q 308 -160 308 -194 q 303 -117 308 -139 q 288 -72 297 -96 q 288 -65 285 -68 q 293 -62 290 -62 l 431 -62 q 444 -71 436 -62 q 459 -106 453 -83 q 465 -150 465 -129 q 449 -242 465 -203 q 403 -317 433 -281 q 389 -322 397 -322 l 263 -322 z "},"Ŭ":{"ha":906,"x_min":90,"x_max":815,"o":"m 258 354 q 307 194 258 254 q 456 135 356 135 q 532 146 497 135 q 592 183 567 157 q 633 251 618 208 q 647 357 647 293 l 647 900 q 658 913 647 913 l 804 913 q 815 901 815 913 l 815 349 q 787 183 815 251 q 710 70 758 114 q 594 6 661 26 q 450 -14 526 -14 q 301 8 368 -14 q 188 74 235 31 q 115 185 140 118 q 90 342 90 251 l 90 900 q 101 913 90 913 l 247 913 q 258 901 258 913 l 258 354 m 342 1168 q 353 1158 349 1168 q 390 1108 365 1126 q 451 1089 415 1089 q 513 1106 486 1089 q 551 1160 539 1122 q 563 1168 557 1168 l 676 1168 q 685 1163 683 1168 q 685 1156 686 1158 q 603 1013 668 1063 q 451 964 539 964 q 299 1011 363 964 q 219 1157 235 1058 q 228 1168 217 1168 l 342 1168 z "},"Ű":{"ha":906,"x_min":90,"x_max":815,"o":"m 258 354 q 307 194 258 254 q 456 135 356 135 q 532 146 497 135 q 592 183 567 157 q 633 251 618 208 q 647 357 647 293 l 647 900 q 658 913 647 913 l 804 913 q 815 901 815 913 l 815 349 q 787 183 815 251 q 710 70 758 114 q 594 6 661 26 q 450 -14 526 -14 q 301 8 368 -14 q 188 74 235 31 q 115 185 140 118 q 90 342 90 251 l 90 900 q 101 913 90 913 l 247 913 q 258 901 258 913 l 258 354 m 342 1160 q 356 1168 344 1168 l 494 1168 q 499 1157 504 1168 l 376 1003 q 363 997 371 997 l 247 997 q 242 1007 236 997 l 342 1160 m 599 1160 q 615 1169 607 1169 l 753 1169 q 761 1165 760 1169 q 760 1156 763 1161 l 639 1007 q 622 997 632 997 l 507 997 q 501 1008 494 997 l 599 1160 z "},"Ū":{"ha":906,"x_min":90,"x_max":815,"o":"m 258 354 q 307 194 258 254 q 456 135 356 135 q 532 146 497 135 q 592 183 567 157 q 633 251 618 208 q 647 357 647 293 l 647 900 q 658 913 647 913 l 804 913 q 815 901 815 913 l 815 349 q 787 183 815 251 q 710 70 758 114 q 594 6 661 26 q 450 -14 526 -14 q 301 8 368 -14 q 188 74 235 31 q 115 185 140 118 q 90 342 90 251 l 90 900 q 101 913 90 913 l 247 913 q 258 901 258 913 l 258 354 m 651 1142 q 660 1132 660 1142 l 660 1025 q 651 1015 660 1015 l 261 1015 q 249 1025 249 1015 l 249 1131 q 258 1142 249 1142 l 651 1142 z "},"Ų":{"ha":906,"x_min":90,"x_max":821,"o":"m 675 39 q 569 -49 597 -10 q 542 -119 542 -87 q 563 -166 542 -147 q 619 -185 583 -185 q 656 -182 639 -185 q 685 -175 672 -179 q 696 -183 696 -174 l 696 -269 q 686 -289 696 -283 q 639 -305 668 -299 q 574 -311 610 -311 q 512 -303 543 -311 q 455 -279 481 -296 q 413 -235 429 -262 q 397 -165 397 -207 q 488 -11 397 -85 q 474 -13 481 -12 q 453 -14 468 -14 q 303 8 371 -14 q 189 72 236 29 q 116 181 142 115 q 90 333 90 246 l 90 900 q 101 913 90 913 l 247 913 q 258 901 258 913 l 258 349 q 308 192 258 249 q 458 135 358 135 q 535 144 500 135 q 597 179 571 154 q 638 246 622 204 q 653 351 653 288 l 653 900 q 664 913 653 913 l 810 913 q 821 901 821 913 l 821 342 q 781 153 821 226 q 675 39 740 81 z "},"Ů":{"ha":906,"x_min":90,"x_max":815,"o":"m 258 354 q 307 194 258 254 q 456 135 356 135 q 532 146 497 135 q 592 183 567 157 q 633 251 618 208 q 647 357 647 293 l 647 900 q 658 913 647 913 l 804 913 q 815 901 815 913 l 815 349 q 787 183 815 251 q 710 70 758 114 q 594 6 661 26 q 450 -14 526 -14 q 301 8 368 -14 q 188 74 235 31 q 115 185 140 118 q 90 342 90 251 l 90 900 q 101 913 90 913 l 247 913 q 258 901 258 913 l 258 354 m 299 1085 q 342 1178 299 1144 q 450 1211 385 1211 q 559 1177 517 1211 q 601 1085 601 1143 q 558 990 601 1024 q 450 957 515 957 q 341 990 383 957 q 299 1085 299 1024 m 388 1085 q 405 1044 388 1060 q 450 1029 422 1029 q 495 1044 478 1029 q 513 1085 513 1058 q 495 1125 513 1110 q 450 1140 478 1140 q 405 1125 422 1140 q 388 1085 388 1110 z "},"Ũ":{"ha":906,"x_min":90,"x_max":815,"o":"m 258 354 q 307 194 258 254 q 456 135 356 135 q 532 146 497 135 q 592 183 567 157 q 633 251 618 208 q 647 357 647 293 l 647 900 q 658 913 647 913 l 804 913 q 815 901 815 913 l 815 349 q 787 183 815 251 q 710 70 758 114 q 594 6 661 26 q 450 -14 526 -14 q 301 8 368 -14 q 188 74 235 31 q 115 185 140 118 q 90 342 90 251 l 90 900 q 101 913 90 913 l 247 913 q 258 901 258 913 l 258 354 m 239 1001 q 228 1011 228 1001 q 271 1144 229 1101 q 369 1186 313 1186 q 428 1175 403 1186 q 475 1151 454 1164 q 514 1128 496 1139 q 550 1117 532 1117 q 578 1133 569 1117 q 590 1174 588 1149 q 599 1182 590 1182 l 690 1182 q 700 1174 700 1182 q 688 1090 699 1124 q 658 1037 676 1057 q 615 1008 639 1017 q 565 1000 592 1000 q 508 1010 533 1000 q 463 1034 483 1021 q 423 1058 442 1047 q 385 1068 404 1068 q 356 1054 369 1068 q 340 1010 343 1040 q 332 1001 340 1001 l 239 1001 z "},"Ẃ":{"ha":1188,"x_min":11,"x_max":1176,"o":"m 699 901 q 741 722 719 815 q 784 538 763 629 q 824 360 806 446 q 857 203 843 274 l 858 203 q 874 283 864 232 q 901 417 883 335 q 944 619 918 500 q 1006 901 969 738 q 1019 913 1008 913 l 1165 913 q 1175 900 1176 913 l 940 8 q 926 0 938 0 l 776 0 q 767 2 769 0 q 763 8 765 4 q 738 114 753 53 q 708 243 724 175 q 676 382 692 311 q 645 517 660 453 q 619 635 631 582 q 600 724 607 689 l 599 724 q 579 634 592 689 q 551 515 567 579 q 517 379 535 450 q 481 241 499 308 q 448 114 464 174 q 421 13 432 54 q 407 0 418 0 l 260 0 q 250 3 253 0 q 244 11 247 6 l 13 901 q 21 913 11 913 l 178 913 q 187 911 183 913 q 192 903 190 910 q 264 595 236 717 q 308 397 292 474 q 333 276 325 319 q 346 204 342 233 l 347 204 q 365 287 353 238 q 396 416 376 336 q 444 613 415 496 q 513 901 472 731 q 526 913 514 913 l 688 913 q 699 901 694 913 m 682 1168 q 697 1175 689 1175 l 874 1175 q 878 1171 878 1175 q 876 1163 879 1167 l 686 1011 q 667 1003 679 1003 l 521 1003 q 514 1006 515 1003 q 515 1013 513 1010 l 682 1168 z "},"Ŵ":{"ha":1188,"x_min":11,"x_max":1176,"o":"m 699 901 q 741 722 719 815 q 784 538 763 629 q 824 360 806 446 q 857 203 843 274 l 858 203 q 874 283 864 232 q 901 417 883 335 q 944 619 918 500 q 1006 901 969 738 q 1019 913 1008 913 l 1165 913 q 1175 900 1176 913 l 940 8 q 926 0 938 0 l 776 0 q 767 2 769 0 q 763 8 765 4 q 738 114 753 53 q 708 243 724 175 q 676 382 692 311 q 645 517 660 453 q 619 635 631 582 q 600 724 607 689 l 599 724 q 579 634 592 689 q 551 515 567 579 q 517 379 535 450 q 481 241 499 308 q 448 114 464 174 q 421 13 432 54 q 407 0 418 0 l 260 0 q 250 3 253 0 q 244 11 247 6 l 13 901 q 21 913 11 913 l 178 913 q 187 911 183 913 q 192 903 190 910 q 264 595 236 717 q 308 397 292 474 q 333 276 325 319 q 346 204 342 233 l 347 204 q 365 287 353 238 q 396 416 376 336 q 444 613 415 496 q 513 901 472 731 q 526 913 514 913 l 688 913 q 699 901 694 913 m 597 1090 l 510 1000 q 496 992 503 992 l 371 992 q 365 997 367 992 q 367 1004 364 1001 l 524 1165 q 529 1169 526 1168 q 536 1171 532 1171 l 664 1171 q 679 1164 675 1171 l 842 1001 q 836 992 849 992 l 701 992 q 685 1000 690 992 l 597 1090 z "},"Ẅ":{"ha":1188,"x_min":11,"x_max":1176,"o":"m 699 901 q 741 722 719 815 q 784 538 763 629 q 824 360 806 446 q 857 203 843 274 l 858 203 q 874 283 864 232 q 901 417 883 335 q 944 619 918 500 q 1006 901 969 738 q 1019 913 1008 913 l 1165 913 q 1175 900 1176 913 l 940 8 q 926 0 938 0 l 776 0 q 767 2 769 0 q 763 8 765 4 q 738 114 753 53 q 708 243 724 175 q 676 382 692 311 q 645 517 660 453 q 619 635 631 582 q 600 724 607 689 l 599 724 q 579 634 592 689 q 551 515 567 579 q 517 379 535 450 q 481 241 499 308 q 448 114 464 174 q 421 13 432 54 q 407 0 418 0 l 260 0 q 250 3 253 0 q 244 11 247 6 l 13 901 q 21 913 11 913 l 178 913 q 187 911 183 913 q 192 903 190 910 q 264 595 236 717 q 308 397 292 474 q 333 276 325 319 q 346 204 342 233 l 347 204 q 365 287 353 238 q 396 416 376 336 q 444 613 415 496 q 513 901 472 731 q 526 913 514 913 l 688 913 q 699 901 694 913 m 458 997 q 394 1019 418 997 q 371 1079 371 1042 q 397 1139 371 1115 q 463 1163 422 1163 q 526 1139 503 1163 q 550 1079 550 1115 q 525 1019 550 1042 q 458 997 500 997 m 747 997 q 684 1019 708 997 q 660 1079 660 1042 q 685 1139 660 1115 q 751 1163 711 1163 q 815 1139 790 1163 q 839 1079 839 1115 q 814 1019 839 1040 q 747 997 789 997 z "},"Ẁ":{"ha":1188,"x_min":11,"x_max":1176,"o":"m 699 901 q 741 722 719 815 q 784 538 763 629 q 824 360 806 446 q 857 203 843 274 l 858 203 q 874 283 864 232 q 901 417 883 335 q 944 619 918 500 q 1006 901 969 738 q 1019 913 1008 913 l 1165 913 q 1175 900 1176 913 l 940 8 q 926 0 938 0 l 776 0 q 767 2 769 0 q 763 8 765 4 q 738 114 753 53 q 708 243 724 175 q 676 382 692 311 q 645 517 660 453 q 619 635 631 582 q 600 724 607 689 l 599 724 q 579 634 592 689 q 551 515 567 579 q 517 379 535 450 q 481 241 499 308 q 448 114 464 174 q 421 13 432 54 q 407 0 418 0 l 260 0 q 250 3 253 0 q 244 11 247 6 l 13 901 q 21 913 11 913 l 178 913 q 187 911 183 913 q 192 903 190 910 q 264 595 236 717 q 308 397 292 474 q 333 276 325 319 q 346 204 342 233 l 347 204 q 365 287 353 238 q 396 416 376 336 q 444 613 415 496 q 513 901 472 731 q 526 913 514 913 l 688 913 q 699 901 694 913 m 689 1019 q 682 1008 697 1008 l 544 1008 q 533 1009 538 1008 q 524 1014 529 1010 l 333 1167 q 338 1179 324 1179 l 511 1179 q 529 1172 522 1179 l 689 1019 z "},"Ŷ":{"ha":747,"x_min":-24,"x_max":772,"o":"m -19 900 q -20 910 -24 907 q -12 913 -17 913 l 156 913 q 164 910 163 913 q 168 906 165 908 q 261 726 224 799 q 323 606 299 653 q 361 531 347 558 q 382 485 375 503 q 404 531 390 503 q 442 608 418 560 q 501 728 465 656 q 589 904 536 800 q 600 913 590 913 l 763 913 q 768 901 772 913 l 467 364 q 456 322 456 346 l 456 13 q 443 0 456 0 l 301 0 q 288 13 288 0 l 288 328 q 286 349 288 342 q 278 368 285 357 l -19 900 m 368 1093 l 281 1003 q 267 994 274 994 l 142 994 q 136 999 138 994 q 138 1007 135 1004 l 294 1168 q 300 1172 297 1171 q 307 1174 303 1174 l 435 1174 q 450 1167 446 1174 l 613 1004 q 607 994 619 994 l 472 994 q 456 1003 461 994 l 368 1093 z "},"Ỳ":{"ha":747,"x_min":-24,"x_max":772,"o":"m -19 900 q -20 910 -24 907 q -12 913 -17 913 l 156 913 q 164 910 163 913 q 168 906 165 908 q 261 726 224 799 q 323 606 299 653 q 361 531 347 558 q 382 485 375 503 q 404 531 390 503 q 442 608 418 560 q 501 728 465 656 q 589 904 536 800 q 600 913 590 913 l 763 913 q 768 901 772 913 l 467 364 q 456 322 456 346 l 456 13 q 443 0 456 0 l 301 0 q 288 13 288 0 l 288 328 q 286 349 288 342 q 278 368 285 357 l -19 900 m 471 1010 q 464 999 479 999 l 326 999 q 315 999 319 999 q 306 1004 311 1000 l 115 1157 q 119 1169 106 1169 l 293 1169 q 311 1163 304 1169 l 471 1010 z "},"Ź":{"ha":760,"x_min":21,"x_max":747,"o":"m 32 0 q 21 11 21 0 l 21 104 q 22 114 21 111 q 25 121 22 117 l 507 763 l 42 763 q 32 772 31 763 l 53 901 q 65 913 54 913 l 711 913 q 719 904 719 913 l 719 804 q 713 785 719 793 l 239 151 l 736 151 q 743 139 747 151 l 721 11 q 708 0 719 0 l 32 0 m 443 1174 q 458 1181 450 1181 l 635 1181 q 640 1176 639 1181 q 638 1168 640 1172 l 447 1017 q 428 1008 440 1008 l 282 1008 q 275 1012 276 1008 q 276 1018 274 1015 l 443 1174 z "},"Ż":{"ha":760,"x_min":21,"x_max":747,"o":"m 32 0 q 21 11 21 0 l 21 104 q 22 114 21 111 q 25 121 22 117 l 507 763 l 42 763 q 32 772 31 763 l 53 901 q 65 913 54 913 l 711 913 q 719 904 719 913 l 719 804 q 713 785 719 793 l 239 151 l 736 151 q 743 139 747 151 l 721 11 q 708 0 719 0 l 32 0 m 374 1006 q 306 1028 331 1006 q 281 1089 281 1051 q 307 1148 281 1125 q 376 1171 333 1171 q 444 1148 419 1171 q 468 1088 468 1125 q 443 1028 468 1051 q 374 1006 418 1006 z "},"Ə":{"ha":913,"x_min":46,"x_max":863,"o":"m 690 513 l 690 521 q 673 613 688 567 q 626 694 658 658 q 540 753 593 731 q 407 776 486 776 q 254 756 328 776 q 114 692 181 735 q 104 699 104 685 l 104 832 q 110 847 104 843 q 244 903 164 879 q 426 926 325 926 q 629 886 546 926 q 765 781 713 846 q 840 632 817 715 q 863 463 863 549 q 835 271 863 358 q 753 120 807 183 q 619 22 699 57 q 439 -14 540 -14 q 258 22 333 -14 q 136 115 183 57 q 67 245 89 172 q 46 392 46 318 q 48 468 46 435 q 56 506 50 501 q 83 510 60 508 q 140 512 107 511 q 211 513 174 513 q 282 513 249 513 l 690 513 m 338 369 q 282 369 303 369 q 249 369 261 369 q 231 367 236 368 q 225 365 226 367 q 224 355 225 361 q 224 344 224 349 q 235 276 224 313 q 274 208 247 240 q 344 156 301 176 q 450 135 388 135 q 685 369 661 135 l 338 369 z "},"ă":{"ha":689,"x_min":40,"x_max":604,"o":"m 439 306 q 363 310 407 310 q 242 284 279 310 q 204 214 204 258 q 235 147 204 175 q 340 118 265 118 q 392 122 368 118 q 439 135 415 125 l 439 306 m 601 142 q 601 97 601 118 q 604 54 601 76 q 601 49 604 50 q 522 19 558 31 q 450 -1 485 7 q 381 -11 415 -8 q 313 -14 347 -14 q 206 -1 256 -14 q 120 41 157 13 q 62 113 83 69 q 40 214 40 156 q 64 310 40 269 q 129 379 88 351 q 228 421 171 407 q 353 435 285 435 q 407 434 385 435 q 439 432 429 433 l 439 449 q 434 478 439 461 q 415 513 429 496 q 372 541 400 529 q 299 553 344 553 q 117 514 197 553 q 110 514 114 513 q 106 522 106 515 l 106 643 q 114 657 106 651 q 213 688 158 678 q 325 699 268 699 q 449 677 397 699 q 535 619 501 656 q 585 532 569 582 q 601 424 601 482 l 601 142 m 228 964 q 236 958 236 964 q 273 906 249 925 q 338 888 297 888 q 401 904 374 888 q 440 957 429 921 q 447 964 442 964 l 561 964 q 567 956 569 964 q 491 817 550 868 q 336 767 432 767 q 186 813 247 767 q 108 956 125 860 q 117 964 107 964 l 228 964 z "},"ā":{"ha":689,"x_min":40,"x_max":604,"o":"m 439 306 q 363 310 407 310 q 242 284 279 310 q 204 214 204 258 q 235 147 204 175 q 340 118 265 118 q 392 122 368 118 q 439 135 415 125 l 439 306 m 601 142 q 601 97 601 118 q 604 54 601 76 q 601 49 604 50 q 522 19 558 31 q 450 -1 485 7 q 381 -11 415 -8 q 313 -14 347 -14 q 206 -1 256 -14 q 120 41 157 13 q 62 113 83 69 q 40 214 40 156 q 64 310 40 269 q 129 379 88 351 q 228 421 171 407 q 353 435 285 435 q 407 434 385 435 q 439 432 429 433 l 439 449 q 434 478 439 461 q 415 513 429 496 q 372 541 400 529 q 299 553 344 553 q 117 514 197 553 q 110 514 114 513 q 106 522 106 515 l 106 643 q 114 657 106 651 q 213 688 158 678 q 325 699 268 699 q 449 677 397 699 q 535 619 501 656 q 585 532 569 582 q 601 424 601 482 l 601 142 m 539 931 q 547 921 547 931 l 547 821 q 539 813 547 813 l 150 813 q 142 822 142 813 l 142 921 q 151 931 142 931 l 539 931 z "},"ą":{"ha":689,"x_min":40,"x_max":614,"o":"m 447 308 q 415 313 438 311 q 368 314 393 314 q 247 288 289 314 q 204 214 204 261 q 238 146 204 174 q 346 118 271 118 q 400 124 374 118 q 447 139 426 129 l 447 308 m 317 -14 q 208 -1 258 -14 q 121 40 158 13 q 62 109 83 67 q 40 210 40 151 q 64 307 40 265 q 131 377 88 349 q 231 420 174 406 q 358 435 289 435 q 413 434 390 435 q 447 432 436 433 l 447 447 q 442 478 447 460 q 423 513 438 496 q 381 542 408 531 q 308 554 354 554 q 118 507 206 554 q 107 514 107 501 l 107 636 q 115 649 107 646 q 221 685 161 672 q 339 699 281 699 q 460 677 410 699 q 544 619 511 656 q 594 532 578 582 q 610 424 610 482 l 610 146 q 614 53 610 99 q 613 45 614 47 q 606 40 613 43 q 482 -44 518 -6 q 446 -118 446 -83 q 467 -166 446 -149 q 526 -183 489 -183 q 565 -181 547 -183 q 596 -174 583 -178 q 607 -182 607 -169 l 607 -269 q 597 -289 607 -283 q 547 -304 579 -299 q 479 -310 515 -310 q 415 -302 447 -310 q 356 -278 383 -294 q 313 -234 329 -261 q 296 -167 296 -207 q 328 -77 296 -118 q 410 -7 361 -36 q 363 -12 385 -11 q 317 -14 340 -14 z "},"ć":{"ha":599,"x_min":44,"x_max":592,"o":"m 564 19 q 557 8 564 10 q 483 -10 524 -6 q 403 -14 443 -14 q 251 13 318 -14 q 139 88 185 40 q 69 201 93 136 q 44 340 44 265 q 72 483 44 417 q 150 597 100 549 q 270 672 200 644 q 426 699 340 699 q 509 694 479 699 q 557 683 539 690 q 564 668 564 679 l 563 544 q 551 536 563 533 q 501 549 529 544 q 432 554 472 554 q 276 500 336 554 q 217 346 217 446 q 235 249 217 289 q 285 185 254 210 q 354 148 315 160 q 433 136 393 136 q 502 140 471 136 q 554 150 533 143 q 564 143 564 154 l 564 19 m 403 976 q 418 989 408 989 l 578 989 q 586 976 592 989 l 417 779 q 399 771 408 771 l 269 771 q 264 774 265 771 q 265 781 263 778 l 403 976 z "},"č":{"ha":599,"x_min":44,"x_max":583,"o":"m 564 19 q 557 8 564 10 q 483 -10 524 -6 q 403 -14 443 -14 q 251 13 318 -14 q 139 88 185 40 q 69 201 93 136 q 44 340 44 265 q 72 483 44 417 q 150 597 100 549 q 270 672 200 644 q 426 699 340 699 q 509 694 479 699 q 557 683 539 690 q 564 668 564 679 l 563 544 q 551 536 563 533 q 501 549 529 544 q 432 554 472 554 q 276 500 336 554 q 217 346 217 446 q 235 249 217 289 q 285 185 254 210 q 354 148 315 160 q 433 136 393 136 q 502 140 471 136 q 554 150 533 143 q 564 143 564 154 l 564 19 m 367 853 l 453 979 q 464 983 457 983 l 571 983 q 575 972 583 983 l 436 778 q 424 771 431 771 l 301 771 q 288 778 292 771 l 144 974 q 144 981 142 978 q 150 983 146 983 l 265 983 q 279 978 274 983 l 367 853 z "},"ĉ":{"ha":599,"x_min":44,"x_max":574,"o":"m 564 19 q 557 8 564 10 q 483 -10 524 -6 q 403 -14 443 -14 q 251 13 318 -14 q 139 88 185 40 q 69 201 93 136 q 44 340 44 265 q 72 483 44 417 q 150 597 100 549 q 270 672 200 644 q 426 699 340 699 q 509 694 479 699 q 557 683 539 690 q 564 668 564 679 l 563 544 q 551 536 563 533 q 501 549 529 544 q 432 554 472 554 q 276 500 336 554 q 217 346 217 446 q 235 249 217 289 q 285 185 254 210 q 354 148 315 160 q 433 136 393 136 q 502 140 471 136 q 554 150 533 143 q 564 143 564 154 l 564 19 m 347 904 l 260 778 q 249 774 257 774 l 143 774 q 138 785 129 774 l 278 979 q 289 986 281 986 l 413 986 q 425 979 421 986 l 569 783 q 564 774 574 774 l 449 774 q 435 779 439 774 l 347 904 z "},"ċ":{"ha":599,"x_min":44,"x_max":564,"o":"m 564 19 q 557 8 564 10 q 483 -10 524 -6 q 403 -14 443 -14 q 251 13 318 -14 q 139 88 185 40 q 69 201 93 136 q 44 340 44 265 q 72 483 44 417 q 150 597 100 549 q 270 672 200 644 q 426 699 340 699 q 509 694 479 699 q 557 683 539 690 q 564 668 564 679 l 563 544 q 551 536 563 533 q 501 549 529 544 q 432 554 472 554 q 276 500 336 554 q 217 346 217 446 q 235 249 217 289 q 285 185 254 210 q 354 148 315 160 q 433 136 393 136 q 502 140 471 136 q 554 150 533 143 q 564 143 564 154 l 564 19 m 367 785 q 297 811 322 785 q 271 881 271 838 q 298 950 271 924 q 367 976 325 976 q 437 949 411 976 q 463 881 463 922 q 436 811 463 838 q 367 785 410 785 z "},"ď":{"ha":846,"x_min":46,"x_max":872,"o":"m 747 979 q 756 989 747 989 l 863 989 q 871 978 872 989 l 851 664 q 842 653 851 653 l 758 653 q 749 663 749 653 l 747 979 m 401 -14 q 261 8 326 -14 q 148 73 196 29 q 73 183 100 117 q 46 336 46 249 q 73 478 46 411 q 151 593 100 544 q 276 670 203 642 q 440 699 349 699 q 469 698 456 699 q 499 694 482 697 l 499 979 q 508 989 499 989 l 658 989 q 667 981 667 989 l 667 142 q 667 97 667 121 q 671 53 668 72 q 663 40 671 43 q 529 -1 594 11 q 401 -14 464 -14 m 499 549 q 435 558 475 558 q 349 544 389 558 q 281 502 310 529 q 235 435 251 475 q 218 344 218 394 q 234 247 218 288 q 277 181 250 207 q 340 142 304 154 q 418 131 376 131 q 460 133 439 131 q 499 142 481 135 l 499 549 z "},"đ":{"ha":754,"x_min":44,"x_max":771,"o":"m 499 513 q 469 523 486 519 q 425 526 453 526 q 275 475 333 526 q 217 329 217 424 q 233 237 217 275 q 278 175 250 199 q 343 141 307 151 q 418 131 379 131 q 499 146 467 131 l 499 513 m 763 883 q 771 876 771 883 l 771 772 q 761 764 771 764 l 667 764 l 667 147 q 668 100 667 125 q 671 58 669 75 q 670 51 671 53 q 663 46 669 49 q 534 0 599 14 q 401 -14 469 -14 q 261 7 326 -14 q 148 69 196 28 q 72 174 100 111 q 44 322 44 238 q 70 459 44 396 q 145 568 96 522 q 266 640 194 614 q 429 667 338 667 q 474 665 460 667 q 499 661 488 664 l 499 764 l 282 764 q 272 774 272 764 l 272 876 q 281 883 272 883 l 499 883 l 499 979 q 508 989 499 989 l 660 989 q 667 981 667 989 l 667 883 l 763 883 z "},"ĕ":{"ha":697,"x_min":44,"x_max":656,"o":"m 214 304 q 228 236 215 268 q 267 181 242 204 q 332 143 293 157 q 424 129 371 129 q 596 163 517 129 q 604 157 604 168 l 604 42 q 596 26 604 31 q 507 -3 556 7 q 388 -14 458 -14 q 227 17 293 -14 q 121 97 161 47 q 63 208 81 146 q 44 335 44 271 q 66 473 44 407 q 129 589 88 539 q 231 669 171 639 q 371 699 292 699 q 501 672 447 699 q 590 601 556 644 q 640 507 625 558 q 656 406 656 456 q 654 353 656 376 q 650 319 653 331 q 639 310 649 311 q 585 306 624 307 q 496 304 547 304 l 214 304 m 421 424 q 477 424 461 424 q 497 425 493 424 l 497 436 q 491 474 497 451 q 470 516 485 496 q 429 551 456 536 q 364 565 403 565 q 301 553 328 565 q 257 520 275 540 q 228 474 239 500 q 214 424 218 449 l 421 424 m 250 964 q 258 958 258 964 q 295 906 271 925 q 360 888 319 888 q 424 904 396 888 q 463 957 451 921 q 469 964 464 964 l 583 964 q 589 956 592 964 q 513 817 572 868 q 358 767 454 767 q 208 813 269 767 q 131 956 147 860 q 139 964 129 964 l 250 964 z "},"ě":{"ha":697,"x_min":44,"x_max":656,"o":"m 214 304 q 228 236 215 268 q 267 181 242 204 q 332 143 293 157 q 424 129 371 129 q 596 163 517 129 q 604 157 604 168 l 604 42 q 596 26 604 31 q 507 -3 556 7 q 388 -14 458 -14 q 227 17 293 -14 q 121 97 161 47 q 63 208 81 146 q 44 335 44 271 q 66 473 44 407 q 129 589 88 539 q 231 669 171 639 q 371 699 292 699 q 501 672 447 699 q 590 601 556 644 q 640 507 625 558 q 656 406 656 456 q 654 353 656 376 q 650 319 653 331 q 639 310 649 311 q 585 306 624 307 q 496 304 547 304 l 214 304 m 421 424 q 477 424 461 424 q 497 425 493 424 l 497 436 q 491 474 497 451 q 470 516 485 496 q 429 551 456 536 q 364 565 403 565 q 301 553 328 565 q 257 520 275 540 q 228 474 239 500 q 214 424 218 449 l 421 424 m 357 853 l 443 979 q 454 983 447 983 l 561 983 q 565 972 574 983 l 426 778 q 414 771 421 771 l 292 771 q 278 778 282 771 l 135 974 q 134 981 132 978 q 140 983 136 983 l 256 983 q 269 978 264 983 l 357 853 z "},"ė":{"ha":697,"x_min":44,"x_max":656,"o":"m 214 304 q 228 236 215 268 q 267 181 242 204 q 332 143 293 157 q 424 129 371 129 q 596 163 517 129 q 604 157 604 168 l 604 42 q 596 26 604 31 q 507 -3 556 7 q 388 -14 458 -14 q 227 17 293 -14 q 121 97 161 47 q 63 208 81 146 q 44 335 44 271 q 66 473 44 407 q 129 589 88 539 q 231 669 171 639 q 371 699 292 699 q 501 672 447 699 q 590 601 556 644 q 640 507 625 558 q 656 406 656 456 q 654 353 656 376 q 650 319 653 331 q 639 310 649 311 q 585 306 624 307 q 496 304 547 304 l 214 304 m 421 424 q 477 424 461 424 q 497 425 493 424 l 497 436 q 491 474 497 451 q 470 516 485 496 q 429 551 456 536 q 364 565 403 565 q 301 553 328 565 q 257 520 275 540 q 228 474 239 500 q 214 424 218 449 l 421 424 m 361 783 q 291 810 317 783 q 265 879 265 836 q 292 949 265 922 q 361 975 319 975 q 431 948 406 975 q 457 879 457 921 q 431 810 457 836 q 361 783 404 783 z "},"ē":{"ha":697,"x_min":44,"x_max":656,"o":"m 214 304 q 228 236 215 268 q 267 181 242 204 q 332 143 293 157 q 424 129 371 129 q 596 163 517 129 q 604 157 604 168 l 604 42 q 596 26 604 31 q 507 -3 556 7 q 388 -14 458 -14 q 227 17 293 -14 q 121 97 161 47 q 63 208 81 146 q 44 335 44 271 q 66 473 44 407 q 129 589 88 539 q 231 669 171 639 q 371 699 292 699 q 501 672 447 699 q 590 601 556 644 q 640 507 625 558 q 656 406 656 456 q 654 353 656 376 q 650 319 653 331 q 639 310 649 311 q 585 306 624 307 q 496 304 547 304 l 214 304 m 421 424 q 477 424 461 424 q 497 425 493 424 l 497 436 q 491 474 497 451 q 470 516 485 496 q 429 551 456 536 q 364 565 403 565 q 301 553 328 565 q 257 520 275 540 q 228 474 239 500 q 214 424 218 449 l 421 424 m 557 931 q 565 921 565 931 l 565 821 q 557 813 565 813 l 168 813 q 160 822 160 813 l 160 921 q 169 931 160 931 l 557 931 z "},"ę":{"ha":697,"x_min":44,"x_max":656,"o":"m 421 424 q 476 424 460 424 q 497 425 493 424 l 497 438 q 491 475 497 453 q 469 517 485 497 q 428 551 454 538 q 364 565 403 565 q 301 553 328 565 q 257 520 275 540 q 228 474 239 500 q 214 424 218 449 l 421 424 m 386 -12 q 225 17 290 -12 q 119 97 160 47 q 62 208 79 146 q 44 335 44 271 q 66 473 44 407 q 128 589 88 539 q 231 669 169 639 q 371 699 292 699 q 503 672 449 699 q 591 602 557 644 q 640 508 625 560 q 656 407 656 457 q 654 356 656 376 q 650 324 653 335 q 639 314 647 314 q 585 309 624 311 q 496 307 547 307 l 214 307 q 266 181 215 232 q 424 129 317 129 q 596 164 517 129 q 603 157 603 168 l 603 43 q 593 24 603 28 q 417 -121 417 -47 q 438 -168 417 -150 q 499 -186 460 -186 q 535 -183 519 -186 q 564 -176 551 -181 q 576 -185 576 -172 l 576 -271 q 567 -289 576 -285 q 450 -311 526 -311 q 386 -303 418 -311 q 328 -279 354 -296 q 287 -235 303 -262 q 271 -167 271 -207 q 302 -81 271 -122 q 386 -12 333 -40 z "},"ğ":{"ha":714,"x_min":32,"x_max":713,"o":"m 253 11 q 204 -38 222 -10 q 186 -82 186 -67 q 199 -119 186 -100 q 234 -152 211 -137 q 291 -176 257 -167 q 368 -185 325 -185 q 513 -151 467 -185 q 558 -78 558 -118 q 546 -40 558 -56 q 513 -15 533 -25 q 464 -1 492 -6 q 404 4 436 3 l 253 11 m 338 578 q 255 547 285 578 q 225 464 225 517 q 253 384 225 415 q 338 353 282 353 q 419 381 390 353 q 449 461 449 410 q 422 544 449 510 q 338 578 396 578 m 440 146 q 648 86 583 139 q 713 -53 713 33 q 688 -152 713 -106 q 616 -233 663 -199 q 503 -288 569 -268 q 357 -308 438 -308 q 212 -289 274 -308 q 110 -239 150 -269 q 51 -170 71 -208 q 32 -94 32 -132 q 62 -17 32 -61 q 161 86 92 26 q 132 190 129 132 q 157 281 132 239 q 88 353 114 308 q 61 461 61 397 q 80 554 61 511 q 134 630 99 597 q 221 681 169 663 q 338 699 272 699 q 406 696 374 699 q 460 689 438 693 q 492 685 478 685 l 685 685 q 693 676 693 685 l 693 563 q 685 554 693 554 q 633 556 665 554 q 578 561 601 558 q 599 519 589 544 q 608 456 608 493 q 588 358 608 400 q 531 288 567 317 q 445 246 494 260 q 340 232 396 232 q 285 236 311 232 q 280 215 282 225 q 281 194 278 206 q 299 151 283 171 l 440 146 m 228 961 q 236 956 236 961 q 273 903 249 922 q 338 885 297 885 q 401 901 374 885 q 440 954 429 918 q 447 961 442 961 l 561 961 q 567 953 569 961 q 491 815 550 865 q 336 764 432 764 q 186 810 247 764 q 108 953 125 857 q 117 961 107 961 l 228 961 z "},"ĝ":{"ha":714,"x_min":32,"x_max":713,"o":"m 253 11 q 204 -38 222 -10 q 186 -82 186 -67 q 199 -119 186 -100 q 234 -152 211 -137 q 291 -176 257 -167 q 368 -185 325 -185 q 513 -151 467 -185 q 558 -78 558 -118 q 546 -40 558 -56 q 513 -15 533 -25 q 464 -1 492 -6 q 404 4 436 3 l 253 11 m 338 578 q 255 547 285 578 q 225 464 225 517 q 253 384 225 415 q 338 353 282 353 q 419 381 390 353 q 449 461 449 410 q 422 544 449 510 q 338 578 396 578 m 440 146 q 648 86 583 139 q 713 -53 713 33 q 688 -152 713 -106 q 616 -233 663 -199 q 503 -288 569 -268 q 357 -308 438 -308 q 212 -289 274 -308 q 110 -239 150 -269 q 51 -170 71 -208 q 32 -94 32 -132 q 62 -17 32 -61 q 161 86 92 26 q 132 190 129 132 q 157 281 132 239 q 88 353 114 308 q 61 461 61 397 q 80 554 61 511 q 134 630 99 597 q 221 681 169 663 q 338 699 272 699 q 406 696 374 699 q 460 689 438 693 q 492 685 478 685 l 685 685 q 693 676 693 685 l 693 563 q 685 554 693 554 q 633 556 665 554 q 578 561 601 558 q 599 519 589 544 q 608 456 608 493 q 588 358 608 400 q 531 288 567 317 q 445 246 494 260 q 340 232 396 232 q 285 236 311 232 q 280 215 282 225 q 281 194 278 206 q 299 151 283 171 l 440 146 m 343 901 l 256 775 q 244 771 253 771 l 139 771 q 133 782 125 771 l 274 976 q 285 983 276 983 l 408 983 q 421 976 417 983 l 565 781 q 560 771 569 771 l 444 771 q 431 776 435 771 l 343 901 z "},"ģ":{"ha":714,"x_min":32,"x_max":713,"o":"m 283 760 q 269 768 275 760 q 255 803 261 781 q 249 847 249 825 q 265 939 249 900 q 311 1014 281 978 q 325 1018 313 1018 l 451 1018 q 458 1015 457 1018 q 457 1008 460 1011 q 417 928 428 964 q 406 856 406 892 q 411 815 406 836 q 426 768 417 793 q 421 760 431 760 l 283 760 m 253 11 q 204 -38 222 -10 q 186 -82 186 -67 q 199 -119 186 -100 q 234 -152 211 -137 q 291 -176 257 -167 q 368 -185 325 -185 q 513 -151 467 -185 q 558 -78 558 -118 q 546 -40 558 -56 q 513 -15 533 -25 q 464 -1 492 -6 q 404 4 436 3 l 253 11 m 338 578 q 255 547 285 578 q 225 464 225 517 q 253 384 225 415 q 338 353 282 353 q 419 381 390 353 q 449 461 449 410 q 422 544 449 510 q 338 578 396 578 m 440 146 q 648 86 583 139 q 713 -53 713 33 q 688 -152 713 -106 q 616 -233 663 -199 q 503 -288 569 -268 q 357 -308 438 -308 q 212 -289 274 -308 q 110 -239 150 -269 q 51 -170 71 -208 q 32 -94 32 -132 q 62 -17 32 -61 q 161 86 92 26 q 132 190 129 132 q 157 281 132 239 q 88 353 114 308 q 61 461 61 397 q 80 554 61 511 q 134 630 99 597 q 221 681 169 663 q 338 699 272 699 q 406 696 374 699 q 460 689 438 693 q 492 685 478 685 l 685 685 q 693 676 693 685 l 693 563 q 685 554 693 554 q 633 556 665 554 q 578 561 601 558 q 599 519 589 544 q 608 456 608 493 q 588 358 608 400 q 531 288 567 317 q 445 246 494 260 q 340 232 396 232 q 285 236 311 232 q 280 215 282 225 q 281 194 278 206 q 299 151 283 171 l 440 146 z "}}}
